<svg width="412" height="60" viewBox="0 0 412 60" fill="none" xmlns="http://www.w3.org/2000/svg">
<path d="M0.102482 59L-0.179258 59L-0.179258 59.2817L0.102482 59.2817L0.102482 59ZM0.102482 3.91707L0.102482 3.63533L-0.179258 3.63533L-0.179258 3.91707L0.102482 3.91707ZM39.3671 5.60329L39.2435 5.85646L39.2458 5.85755L39.3671 5.60329ZM44.9075 10.3407L44.6722 10.4956L44.6722 10.4956L44.9075 10.3407ZM45.7105 23.3487L45.9656 23.4682L45.7105 23.3487ZM42.4184 27.6043L42.2413 27.3851L42.2372 27.3886L42.4184 27.6043ZM37.8415 30.0935L37.7575 29.8246L37.5598 29.8864L37.5598 30.0935L37.8415 30.0935ZM37.8415 30.4147L37.5598 30.4147L37.5598 30.6433L37.7835 30.6904L37.8415 30.4147ZM43.2213 32.8236L43.051 33.0481L43.0547 33.0508L43.2213 32.8236ZM46.9952 37.4004L46.7417 37.5236L46.7462 37.5322L46.9952 37.4004ZM46.112 52.2551L45.8801 52.095L45.8776 52.0989L46.112 52.2551ZM40.0898 57.3138L39.9749 57.0566L40.0898 57.3138ZM12.0666 49.2039L11.7848 49.2039L11.7848 49.4856L12.0666 49.4856L12.0666 49.2039ZM34.1479 47.5177L33.9623 47.3056L33.9579 47.3096L34.1479 47.5177ZM35.272 38.6852L35.0227 38.8164L35.272 38.6852ZM32.8632 36.3566L32.7273 36.6036L32.7372 36.6086L32.8632 36.3566ZM12.0666 35.4733L12.0666 35.1916L11.7848 35.1916L11.7848 35.4733L12.0666 35.4733ZM12.0666 26.159L11.7848 26.159L11.7848 26.4408L12.0666 26.4408L12.0666 26.159ZM31.5784 25.3561L31.7153 25.6024L31.7196 25.5999L31.5784 25.3561ZM33.8267 23.1078L33.5804 22.9709L33.5777 22.9759L33.8267 23.1078ZM32.8632 15.0782L32.6688 15.2823L32.6737 15.2867L32.8632 15.0782ZM12.0666 13.4723L12.0666 13.1905L11.7848 13.1905L11.7848 13.4723L12.0666 13.4723ZM0.384221 59L0.384222 3.91707L-0.179258 3.91707L-0.179258 59L0.384221 59ZM0.102482 4.19881L31.5784 4.19881L31.5784 3.63533L0.102482 3.63533L0.102482 4.19881ZM31.5784 4.19881C34.4318 4.19881 36.9849 4.7534 39.2435 5.85645L39.4908 5.35012C37.1458 4.20489 34.5064 3.63533 31.5784 3.63533L31.5784 4.19881ZM39.2458 5.85755C41.5582 6.96122 43.3642 8.50743 44.6722 10.4956L45.1429 10.1859C43.7744 8.10572 41.8867 6.49364 39.4885 5.34902L39.2458 5.85755ZM44.6722 10.4956C45.9766 12.4783 46.6332 14.8051 46.6332 17.4871L47.1967 17.4871C47.1967 14.7089 46.515 12.2715 45.1429 10.1859L44.6722 10.4956ZM46.6332 17.4871C46.6332 19.6471 46.2382 21.5591 45.4554 23.2291L45.9656 23.4682C46.7887 21.7123 47.1967 19.7166 47.1967 17.4871L46.6332 17.4871ZM45.4554 23.2291C44.6695 24.9056 43.598 26.2894 42.2413 27.3852L42.5954 27.8235C44.0223 26.671 45.1456 25.2176 45.9656 23.4682L45.4554 23.2291ZM42.2372 27.3886C40.9282 28.4881 39.4358 29.3001 37.7575 29.8246L37.9255 30.3624C39.6731 29.8163 41.232 28.9688 42.5996 27.8201L42.2372 27.3886ZM37.5598 30.0935L37.5598 30.4147L38.1232 30.4147L38.1232 30.0935L37.5598 30.0935ZM37.7835 30.6904C39.7797 31.1106 41.534 31.8972 43.0511 33.048L43.3916 32.5991C41.8039 31.3946 39.9717 30.5752 37.8996 30.139L37.7835 30.6904ZM43.0547 33.0508C44.6219 34.2001 45.8509 35.6892 46.7418 37.5235L47.2487 37.2773C46.3196 35.3645 45.0326 33.8024 43.3879 32.5964L43.0547 33.0508ZM46.7462 37.5322C47.684 39.3036 48.1588 41.4243 48.1588 43.9044L48.7223 43.9044C48.7223 41.3526 48.2335 39.1373 47.2442 37.2686L46.7462 37.5322ZM48.1588 43.9044C48.1588 47.1786 47.3936 49.9032 45.8801 52.0951L46.3438 52.4152C47.9351 50.1106 48.7223 47.268 48.7223 43.9044L48.1588 43.9044ZM45.8776 52.0989C44.4088 54.302 42.4433 55.9537 39.9749 57.0566L40.2047 57.571C42.7682 56.4256 44.8174 54.7049 46.3464 52.4114L45.8776 52.0989ZM39.9749 57.0566C37.4994 58.1626 34.7289 58.7183 31.6587 58.7183L31.6587 59.2817C34.7981 59.2817 37.6483 58.7132 40.2047 57.571L39.9749 57.0566ZM31.6587 58.7183L0.102482 58.7183L0.102482 59.2817L31.6587 59.2817L31.6587 58.7183ZM12.0666 49.4856L29.3302 49.4856L29.3302 48.9222L12.0666 48.9222L12.0666 49.4856ZM29.3302 49.4856C31.3671 49.4856 33.0453 48.906 34.3379 47.7258L33.9579 47.3096C32.7881 48.3777 31.2545 48.9222 29.3302 48.9222L29.3302 49.4856ZM34.3334 47.7297C35.6999 46.534 36.3567 44.7029 36.3567 42.2985L35.7933 42.2985C35.7933 44.6047 35.1653 46.2531 33.9624 47.3057L34.3334 47.7297ZM36.3567 42.2985C36.3567 40.8705 36.082 39.6192 35.5214 38.5539L35.0227 38.8164C35.5327 39.7853 35.7933 40.9428 35.7933 42.2985L36.3567 42.2985ZM35.5214 38.5539C34.9574 37.4824 34.1102 36.6651 32.9892 36.1046L32.7372 36.6086C33.7574 37.1187 34.5161 37.8537 35.0227 38.8164L35.5214 38.5539ZM32.9989 36.1097C31.8745 35.4913 30.4587 35.1916 28.7681 35.1916L28.7681 35.7551C30.3963 35.7551 31.7106 36.0442 32.7274 36.6034L32.9989 36.1097ZM28.7681 35.1916L12.0666 35.1916L12.0666 35.7551L28.7681 35.7551L28.7681 35.1916ZM11.7848 35.4733L11.7848 49.2039L12.3483 49.2039L12.3483 35.4733L11.7848 35.4733ZM12.0666 26.4408L27.9651 26.4408L27.9651 25.8773L12.0666 25.8773L12.0666 26.4408ZM27.9651 26.4408C29.4439 26.4408 30.6988 26.167 31.7153 25.6023L31.4416 25.1098C30.531 25.6157 29.377 25.8773 27.9651 25.8773L27.9651 26.4408ZM31.7196 25.5999C32.7758 24.9884 33.5659 24.2027 34.0757 23.2396L33.5777 22.9759C33.124 23.8329 32.4152 24.546 31.4373 25.1122L31.7196 25.5999ZM34.073 23.2446C34.6342 22.2345 34.9114 21.089 34.9114 19.8156L34.3479 19.8156C34.3479 21.0047 34.0899 22.054 33.5804 22.9709L34.073 23.2446ZM34.9114 19.8156C34.9114 17.6747 34.306 16.0091 33.0527 14.8697L32.6737 15.2867C33.7757 16.2885 34.3479 17.7812 34.3479 19.8156L34.9114 19.8156ZM33.0575 14.8742C31.8705 13.7437 30.2966 13.1905 28.3666 13.1905L28.3666 13.754C30.1837 13.754 31.6076 14.2715 32.6689 15.2822L33.0575 14.8742ZM28.3666 13.1905L12.0666 13.1905L12.0666 13.754L28.3666 13.754L28.3666 13.1905ZM11.7848 13.4723L11.7848 26.159L12.3483 26.159L12.3483 13.4723L11.7848 13.4723ZM57.0868 59L56.805 59L56.805 59.2817L57.0868 59.2817L57.0868 59ZM57.0868 0.946128L57.0868 0.664388L56.805 0.664388L56.805 0.946128L57.0868 0.946128ZM68.2479 0.946128L68.5296 0.946128L68.5296 0.664388L68.2479 0.664388L68.2479 0.946128ZM68.2479 59L68.2479 59.2817L68.5296 59.2817L68.5296 59L68.2479 59ZM57.3685 59L57.3685 0.946128L56.805 0.946128L56.805 59L57.3685 59ZM57.0868 1.22787L68.2479 1.22787L68.2479 0.664388L57.0868 0.664388L57.0868 1.22787ZM67.9662 0.946128L67.9662 59L68.5296 59L68.5296 0.946128L67.9662 0.946128ZM68.2479 58.7183L57.0868 58.7183L57.0868 59.2817L68.2479 59.2817L68.2479 58.7183ZM86.2022 57.635L86.0762 57.887L86.0796 57.8886L86.2022 57.635ZM78.8953 50.3281L78.6432 50.4541L78.6441 50.4557L78.8953 50.3281ZM78.8953 25.4364L79.1456 25.5657L79.1464 25.564L78.8953 25.4364ZM86.2022 18.2097L86.3248 18.4634L86.3282 18.4617L86.2022 18.2097ZM109.729 18.2097L109.601 18.4609L109.606 18.4634L109.729 18.2097ZM117.036 25.4364L116.785 25.564L116.785 25.5657L117.036 25.4364ZM117.036 50.3281L117.287 50.4557L117.288 50.4541L117.036 50.3281ZM109.729 57.635L109.853 57.8878L109.855 57.887L109.729 57.635ZM103.787 49.9266L103.641 49.6857L103.637 49.6882L103.787 49.9266ZM107.079 30.0132L107.343 29.9151L107.079 30.0132ZM103.787 25.8378L103.631 26.0725L103.641 26.0787L103.787 25.8378ZM92.0638 25.8378L92.2139 26.0763L92.2161 26.0748L92.0638 25.8378ZM88.8519 30.0132L88.5878 29.9151L88.8519 30.0132ZM88.8519 45.7512L88.5878 45.8493L88.8519 45.7512ZM92.0638 49.9266L91.9136 50.165L91.9175 50.1674L92.0638 49.9266ZM97.9254 59.6818C93.3523 59.6818 89.4889 58.9107 86.3248 57.3813L86.0796 57.8886C89.3391 59.4641 93.2912 60.2453 97.9254 60.2453L97.9254 59.6818ZM86.3282 57.383C83.1714 55.8046 80.7791 53.4131 79.1464 50.2004L78.6441 50.4557C80.3303 53.7737 82.8092 56.2535 86.0762 57.887L86.3282 57.383ZM79.1472 50.2021C77.5129 46.9333 76.6878 42.8311 76.6878 37.8822L76.1243 37.8822C76.1243 42.89 76.9587 47.085 78.6433 50.4541L79.1472 50.2021ZM76.6878 37.8822C76.6878 32.8246 77.5134 28.7246 79.1456 25.5657L78.645 25.307C76.9582 28.5717 76.1243 32.769 76.1243 37.8822L76.6878 37.8822ZM79.1464 25.564C80.7788 22.352 83.17 19.9882 86.3248 18.4634L86.0796 17.9561C82.8107 19.536 80.3307 21.99 78.6441 25.3087L79.1464 25.564ZM86.3282 18.4617C89.4914 16.8801 93.3535 16.0826 97.9254 16.0826L97.9254 15.5191C93.2899 15.5191 89.3366 16.3275 86.0762 17.9577L86.3282 18.4617ZM97.9254 16.0826C102.606 16.0826 106.493 16.8806 109.601 18.4609L109.857 17.9586C106.648 16.327 102.666 15.5191 97.9254 15.5191L97.9254 16.0826ZM109.606 18.4634C112.761 19.9882 115.152 22.352 116.785 25.564L117.287 25.3087C115.6 21.99 113.12 19.536 109.851 17.9561L109.606 18.4634ZM116.785 25.5657C118.418 28.7246 119.243 32.8246 119.243 37.8822L119.807 37.8822C119.807 32.769 118.973 28.5717 117.286 25.307L116.785 25.5657ZM119.243 37.8822C119.243 42.8311 118.418 46.9333 116.784 50.2021L117.288 50.4541C118.972 47.085 119.807 42.89 119.807 37.8822L119.243 37.8822ZM116.785 50.2004C115.152 53.4131 112.76 55.8046 109.603 57.383L109.855 57.887C113.122 56.2535 115.601 53.7737 117.287 50.4557L116.785 50.2004ZM109.605 57.3821C106.496 58.9102 102.607 59.6818 97.9254 59.6818L97.9254 60.2453C102.665 60.2453 106.645 59.4645 109.853 57.8878L109.605 57.3821ZM97.9254 51.5733C100.419 51.5733 102.431 51.1132 103.937 50.165L103.637 49.6882C102.252 50.56 100.357 51.0099 97.9254 51.0099L97.9254 51.5733ZM103.933 50.1674C105.494 49.2199 106.628 47.7736 107.343 45.8493L106.815 45.6531C106.138 47.4759 105.078 48.8132 103.641 49.6857L103.933 50.1674ZM107.343 45.8493C108.054 43.9352 108.405 41.5979 108.405 38.8458L107.841 38.8458C107.841 41.5537 107.496 43.8201 106.815 45.6531L107.343 45.8493ZM108.405 38.8458L108.405 36.9187L107.841 36.9187L107.841 38.8458L108.405 38.8458ZM108.405 36.9187C108.405 34.1665 108.054 31.8293 107.343 29.9151L106.815 30.1113C107.496 31.9443 107.841 34.2107 107.841 36.9187L108.405 36.9187ZM107.343 29.9151C106.628 27.9908 105.494 26.5445 103.933 25.597L103.641 26.0787C105.078 26.9512 106.138 28.2885 106.815 30.1113L107.343 29.9151ZM103.943 25.6034C102.436 24.5986 100.421 24.1108 97.9254 24.1108L97.9254 24.6742C100.354 24.6742 102.247 25.1499 103.631 26.0723L103.943 25.6034ZM97.9254 24.1108C95.4809 24.1108 93.4691 24.5995 91.9114 25.6008L92.2161 26.0748C93.6562 25.1491 95.552 24.6742 97.9254 24.6742L97.9254 24.1108ZM91.9137 25.5994C90.4074 26.5478 89.3015 27.9938 88.5878 29.9151L89.116 30.1113C89.7942 28.2855 90.8295 26.9479 92.2139 26.0762L91.9137 25.5994ZM88.5878 29.9151C87.8769 31.8293 87.5264 34.1665 87.5264 36.9187L88.0898 36.9187C88.0898 34.2107 88.4352 31.9443 89.116 30.1113L88.5878 29.9151ZM87.5264 36.9187L87.5264 38.8458L88.0898 38.8458L88.0898 36.9187L87.5264 36.9187ZM87.5264 38.8458C87.5264 41.5979 87.8769 43.9352 88.5878 45.8493L89.116 45.6531C88.4352 43.8201 88.0898 41.5537 88.0898 38.8458L87.5264 38.8458ZM88.5878 45.8493C89.3015 47.7706 90.4074 49.2166 91.9137 50.165L92.2139 49.6882C90.8295 48.8165 89.7942 47.4789 89.116 45.6531L88.5878 45.8493ZM91.9175 50.1674C93.474 51.1124 95.4834 51.5733 97.9254 51.5733L97.9254 51.0099C95.5495 51.0099 93.6512 50.5608 92.21 49.6857L91.9175 50.1674ZM134.964 57.635L134.833 57.8843L134.837 57.8861L134.964 57.635ZM127.979 50.3281L127.723 50.4474L127.726 50.4524L127.979 50.3281ZM127.979 25.4364L127.726 25.312L127.725 25.3137L127.979 25.4364ZM134.964 18.1294L134.835 17.8792L134.833 17.8801L134.964 18.1294ZM154.075 16.7644L153.993 17.0341L153.995 17.0346L154.075 16.7644ZM160.177 19.9762L160.359 19.7609L160.177 19.9762ZM164.031 25.3561L163.77 25.4607L163.773 25.4686L164.031 25.3561ZM165.396 32.8236L165.396 33.1053L165.678 33.1053L165.678 32.8236L165.396 32.8236ZM154.235 32.8236L153.954 32.8236L153.954 33.1053L154.235 33.1053L154.235 32.8236ZM150.622 25.2758L150.487 25.5231L150.492 25.5255L150.622 25.2758ZM140.906 25.7575L140.742 25.5289L140.906 25.7575ZM137.935 30.0132L138.202 30.1046L137.935 30.0132ZM137.935 45.7512L137.669 45.8426L137.671 45.8493L137.935 45.7512ZM141.067 50.0069L140.906 50.2386L140.913 50.2427L141.067 50.0069ZM151.023 50.4083L150.893 50.1585L150.889 50.161L151.023 50.4083ZM153.834 47.5177L154.086 47.6437L153.834 47.5177ZM154.797 42.8605L154.797 42.5788L154.516 42.5788L154.516 42.8605L154.797 42.8605ZM165.396 42.8605L165.678 42.8605L165.678 42.5788L165.396 42.5788L165.396 42.8605ZM164.031 50.1675L163.772 50.0572L163.77 50.0628L164.031 50.1675ZM160.177 55.5473L159.995 55.3319L159.992 55.3348L160.177 55.5473ZM154.155 58.8394L154.24 59.1079L154.155 58.8394ZM146.286 59.6818C141.82 59.6818 138.093 58.9108 135.092 57.3839L134.837 57.8861C137.938 59.4639 141.758 60.2453 146.286 60.2453L146.286 59.6818ZM135.096 57.3857C132.1 55.8091 129.813 53.4188 128.231 50.2037L127.726 50.4524C129.356 53.7681 131.726 56.249 134.833 57.8843L135.096 57.3857ZM128.234 50.2087C126.704 46.938 125.932 42.8333 125.932 37.8822L125.368 37.8822C125.368 42.8878 126.148 47.0803 127.723 50.4474L128.234 50.2087ZM125.932 37.8822C125.932 32.8224 126.704 28.7199 128.232 25.559L127.725 25.3137C126.148 28.5765 125.368 32.7712 125.368 37.8822L125.932 37.8822ZM128.231 25.5607C129.813 22.3456 132.1 19.9553 135.096 18.3788L134.833 17.8801C131.726 19.5154 129.356 21.9963 127.726 25.312L128.231 25.5607ZM135.094 18.3797C138.149 16.7993 141.876 16.0023 146.286 16.0023L146.286 15.4388C141.81 15.4388 137.989 16.2477 134.835 17.8792L135.094 18.3797ZM146.286 16.0023C149.154 16.0023 151.723 16.3476 153.993 17.0341L154.156 16.4947C151.823 15.7894 149.199 15.4388 146.286 15.4388L146.286 16.0023ZM153.995 17.0346C156.316 17.7205 158.315 18.7737 159.996 20.1916L160.359 19.7609C158.613 18.2881 156.544 17.2001 154.155 16.4942L153.995 17.0346ZM159.996 20.1916C161.672 21.6062 162.93 23.3611 163.77 25.4607L164.293 25.2514C163.42 23.0686 162.108 21.2369 160.359 19.7609L159.996 20.1916ZM163.773 25.4686C164.664 27.5126 165.115 29.9616 165.115 32.8236L165.678 32.8236C165.678 29.9042 165.219 27.3749 164.29 25.2435L163.773 25.4686ZM165.396 32.5418L154.235 32.5418L154.235 33.1053L165.396 33.1053L165.396 32.5418ZM154.517 32.8236C154.517 30.8706 154.219 29.246 153.606 27.9646L153.098 28.2077C153.663 29.3886 153.954 30.9223 153.954 32.8236L154.517 32.8236ZM153.606 27.9646C152.991 26.6773 152.037 25.696 150.752 25.026L150.492 25.5255C151.67 26.1402 152.536 27.0325 153.098 28.2077L153.606 27.9646ZM150.757 25.0284C149.526 24.3569 147.977 24.0305 146.125 24.0305L146.125 24.5939C147.914 24.5939 149.363 24.9099 150.487 25.5231L150.757 25.0284ZM146.125 24.0305C143.943 24.0305 142.14 24.5218 140.742 25.5289L141.071 25.9862C142.349 25.0662 144.026 24.5939 146.125 24.5939L146.125 24.0305ZM140.742 25.5289C139.347 26.5329 138.326 28.0044 137.669 29.9218L138.202 30.1046C138.829 28.2749 139.789 26.9092 141.071 25.9862L140.742 25.5289ZM137.669 29.9218C137.013 31.8341 136.69 34.1959 136.69 36.9989L137.253 36.9989C137.253 34.2349 137.573 31.9395 138.202 30.1046L137.669 29.9218ZM136.69 36.9989L136.69 38.8458L137.253 38.8458L137.253 36.9989L136.69 36.9989ZM136.69 38.8458C136.69 41.596 137.013 43.9308 137.669 45.8426L138.202 45.6598C137.572 43.8244 137.253 41.5556 137.253 38.8458L136.69 38.8458ZM137.671 45.8493C138.383 47.7669 139.459 49.2365 140.906 50.2385L141.227 49.7752C139.891 48.8501 138.879 47.4826 138.199 45.6531L137.671 45.8493ZM140.913 50.2427C142.364 51.1915 144.243 51.6536 146.527 51.6536L146.527 51.0902C144.315 51.0902 142.553 50.6423 141.221 49.7711L140.913 50.2427ZM146.527 51.6536C148.378 51.6536 149.927 51.3272 151.158 50.6557L150.889 50.161C149.764 50.7742 148.316 51.0902 146.527 51.0902L146.527 51.6536ZM151.154 50.6581C152.439 49.9873 153.418 48.9795 154.086 47.6437L153.582 47.3917C152.965 48.6253 152.07 49.5446 150.893 50.1586L151.154 50.6581ZM154.086 47.6437C154.752 46.3108 155.079 44.713 155.079 42.8605L154.516 42.8605C154.516 44.6482 154.2 46.1551 153.582 47.3917L154.086 47.6437ZM154.797 43.1423L165.396 43.1423L165.396 42.5788L154.797 42.5788L154.797 43.1423ZM165.115 42.8605C165.115 45.5592 164.665 47.9564 163.772 50.0573L164.291 50.2777C165.218 48.0961 165.678 45.622 165.678 42.8605L165.115 42.8605ZM163.77 50.0628C162.93 52.1624 161.672 53.9173 159.996 55.3319L160.359 55.7626C162.108 54.2866 163.42 52.4549 164.293 50.2721L163.77 50.0628ZM159.992 55.3348C158.365 56.7519 156.393 57.8317 154.07 58.5709L154.24 59.1079C156.628 58.3482 158.67 57.2333 160.362 55.7597L159.992 55.3348ZM154.07 58.5709C151.746 59.3102 149.152 59.6818 146.286 59.6818L146.286 60.2453C149.201 60.2453 151.853 59.8674 154.24 59.1079L154.07 58.5709ZM173.767 59L173.485 59L173.485 59.2817L173.767 59.2817L173.767 59ZM173.767 0.865833L173.767 0.584093L173.485 0.584093L173.485 0.865833L173.767 0.865833ZM184.928 0.865833L185.209 0.865833L185.209 0.584093L184.928 0.584093L184.928 0.865833ZM184.928 34.3492L184.646 34.3492L184.646 35.1225L185.143 34.5304L184.928 34.3492ZM199.702 16.7644L199.702 16.4827L199.571 16.4827L199.486 16.5832L199.702 16.7644ZM212.79 16.7644L213.003 16.9498L213.411 16.4827L212.79 16.4827L212.79 16.7644ZM198.337 33.3053L198.125 33.12L197.991 33.2733L198.095 33.4486L198.337 33.3053ZM213.513 59L213.513 59.2817L214.007 59.2817L213.756 58.8567L213.513 59ZM200.746 59L200.499 59.1348L200.579 59.2817L200.746 59.2817L200.746 59ZM191.03 41.1743L191.278 41.0395L191.1 40.7133L190.834 40.9725L191.03 41.1743ZM184.928 47.1162L184.731 46.9144L184.646 46.9973L184.646 47.1162L184.928 47.1162ZM184.928 59L184.928 59.2817L185.209 59.2817L185.209 59L184.928 59ZM174.048 59L174.048 0.865833L173.485 0.865833L173.485 59L174.048 59ZM173.767 1.14757L184.928 1.14757L184.928 0.584093L173.767 0.584093L173.767 1.14757ZM184.646 0.865833L184.646 34.3492L185.209 34.3492L185.209 0.865833L184.646 0.865833ZM185.143 34.5304L199.918 16.9456L199.486 16.5832L184.712 34.1679L185.143 34.5304ZM199.702 17.0461L212.79 17.0461L212.79 16.4827L199.702 16.4827L199.702 17.0461ZM212.578 16.579L198.125 33.12L198.549 33.4907L213.003 16.9498L212.578 16.579ZM198.095 33.4486L213.27 59.1433L213.756 58.8567L198.58 33.1621L198.095 33.4486ZM213.513 58.7183L200.746 58.7183L200.746 59.2817L213.513 59.2817L213.513 58.7183ZM200.993 58.8652L191.278 41.0395L190.783 41.3092L200.499 59.1348L200.993 58.8652ZM190.834 40.9725L184.731 46.9144L185.124 47.3181L191.227 41.3762L190.834 40.9725ZM184.646 47.1162L184.646 59L185.209 59L185.209 47.1162L184.646 47.1162ZM184.928 58.7183L173.767 58.7183L173.767 59.2817L184.928 59.2817L184.928 58.7183ZM224.042 57.635L223.911 57.8843L223.915 57.8861L224.042 57.635ZM217.057 50.3281L216.801 50.4474L216.804 50.4524L217.057 50.3281ZM217.057 25.4364L216.804 25.312L216.803 25.3137L217.057 25.4364ZM224.042 18.1294L223.913 17.8792L223.911 17.8801L224.042 18.1294ZM243.153 16.7644L243.071 17.0341L243.073 17.0346L243.153 16.7644ZM249.255 19.9762L249.437 19.7609L249.255 19.9762ZM253.11 25.3561L252.848 25.4607L252.851 25.4686L253.11 25.3561ZM254.475 32.8236L254.475 33.1053L254.756 33.1053L254.756 32.8236L254.475 32.8236ZM243.313 32.8236L243.032 32.8236L243.032 33.1053L243.313 33.1053L243.313 32.8236ZM239.7 25.2758L239.565 25.5231L239.57 25.5255L239.7 25.2758ZM229.984 25.7575L229.82 25.5289L229.984 25.7575ZM227.013 30.0132L227.28 30.1046L227.013 30.0132ZM227.013 45.7512L226.747 45.8426L226.749 45.8493L227.013 45.7512ZM230.145 50.0069L229.985 50.2386L229.991 50.2427L230.145 50.0069ZM240.102 50.4083L239.971 50.1585L239.967 50.161L240.102 50.4083ZM242.912 47.5177L243.164 47.6437L242.912 47.5177ZM243.876 42.8605L243.876 42.5788L243.594 42.5788L243.594 42.8605L243.876 42.8605ZM254.475 42.8605L254.756 42.8605L254.756 42.5788L254.475 42.5788L254.475 42.8605ZM253.11 50.1675L252.85 50.0572L252.848 50.0628L253.11 50.1675ZM249.255 55.5473L249.074 55.3319L249.07 55.3348L249.255 55.5473ZM243.233 58.8394L243.319 59.1079L243.233 58.8394ZM235.364 59.6818C230.899 59.6818 227.171 58.9108 224.17 57.3839L223.915 57.8861C227.016 59.4639 230.837 60.2453 235.364 60.2453L235.364 59.6818ZM224.174 57.3857C221.178 55.8091 218.891 53.4188 217.31 50.2037L216.804 50.4524C218.435 53.7681 220.804 56.249 223.911 57.8843L224.174 57.3857ZM217.312 50.2087C215.782 46.938 215.01 42.8333 215.01 37.8822L214.446 37.8822C214.446 42.8878 215.227 47.0803 216.802 50.4474L217.312 50.2087ZM215.01 37.8822C215.01 32.8224 215.783 28.7199 217.31 25.559L216.803 25.3137C215.226 28.5765 214.446 32.7712 214.446 37.8822L215.01 37.8822ZM217.31 25.5607C218.891 22.3456 221.178 19.9553 224.174 18.3788L223.911 17.8801C220.804 19.5154 218.435 21.9963 216.804 25.312L217.31 25.5607ZM224.172 18.3797C227.227 16.7993 230.954 16.0023 235.364 16.0023L235.364 15.4388C230.888 15.4388 227.067 16.2477 223.913 17.8792L224.172 18.3797ZM235.364 16.0023C238.233 16.0023 240.801 16.3476 243.071 17.0341L243.234 16.4947C240.901 15.7894 238.277 15.4388 235.364 15.4388L235.364 16.0023ZM243.073 17.0346C245.395 17.7205 247.393 18.7737 249.074 20.1916L249.437 19.7609C247.692 18.2881 245.622 17.2001 243.233 16.4942L243.073 17.0346ZM249.074 20.1916C250.75 21.6062 252.008 23.3611 252.848 25.4607L253.371 25.2514C252.498 23.0686 251.186 21.2369 249.437 19.7609L249.074 20.1916ZM252.851 25.4686C253.742 27.5126 254.193 29.9616 254.193 32.8236L254.756 32.8236C254.756 29.9042 254.297 27.3749 253.368 25.2435L252.851 25.4686ZM254.475 32.5418L243.313 32.5418L243.313 33.1053L254.475 33.1053L254.475 32.5418ZM243.595 32.8236C243.595 30.8706 243.297 29.246 242.684 27.9646L242.176 28.2077C242.741 29.3886 243.032 30.9223 243.032 32.8236L243.595 32.8236ZM242.684 27.9646C242.069 26.6773 241.115 25.696 239.83 25.026L239.57 25.5255C240.748 26.1402 241.614 27.0325 242.176 28.2077L242.684 27.9646ZM239.835 25.0284C238.604 24.3569 237.055 24.0305 235.204 24.0305L235.204 24.5939C236.993 24.5939 238.441 24.9099 239.565 25.5231L239.835 25.0284ZM235.204 24.0305C233.021 24.0305 231.218 24.5218 229.82 25.5289L230.149 25.9862C231.427 25.0662 233.104 24.5939 235.204 24.5939L235.204 24.0305ZM229.82 25.5289C228.425 26.5329 227.404 28.0044 226.747 29.9218L227.28 30.1046C227.907 28.2749 228.867 26.9092 230.149 25.9862L229.82 25.5289ZM226.747 29.9218C226.091 31.8341 225.768 34.1959 225.768 36.9989L226.332 36.9989C226.332 34.2349 226.651 31.9395 227.28 30.1046L226.747 29.9218ZM225.768 36.9989L225.768 38.8458L226.332 38.8458L226.332 36.9989L225.768 36.9989ZM225.768 38.8458C225.768 41.596 226.091 43.9308 226.747 45.8426L227.28 45.6598C226.651 43.8244 226.332 41.5556 226.332 38.8458L225.768 38.8458ZM226.749 45.8493C227.462 47.7669 228.537 49.2365 229.985 50.2385L230.305 49.7752C228.969 48.8501 227.957 47.4826 227.278 45.6531L226.749 45.8493ZM229.991 50.2427C231.442 51.1915 233.321 51.6536 235.605 51.6536L235.605 51.0902C233.393 51.0902 231.632 50.6423 230.299 49.7711L229.991 50.2427ZM235.605 51.6536C237.456 51.6536 239.005 51.3272 240.237 50.6557L239.967 50.161C238.843 50.7742 237.394 51.0902 235.605 51.0902L235.605 51.6536ZM240.232 50.6581C241.518 49.9873 242.496 48.9795 243.164 47.6437L242.66 47.3917C242.043 48.6253 241.148 49.5446 239.971 50.1586L240.232 50.6581ZM243.164 47.6437C243.83 46.3108 244.157 44.713 244.157 42.8605L243.594 42.8605C243.594 44.6482 243.278 46.1551 242.66 47.3917L243.164 47.6437ZM243.876 43.1423L254.475 43.1423L254.475 42.5788L243.876 42.5788L243.876 43.1423ZM254.193 42.8605C254.193 45.5592 253.743 47.9564 252.85 50.0573L253.369 50.2777C254.296 48.0961 254.756 45.622 254.756 42.8605L254.193 42.8605ZM252.848 50.0628C252.008 52.1624 250.75 53.9173 249.074 55.3319L249.437 55.7626C251.186 54.2866 252.498 52.4549 253.371 50.2721L252.848 50.0628ZM249.07 55.3348C247.443 56.7519 245.471 57.8317 243.148 58.5709L243.319 59.1079C245.706 58.3482 247.749 57.2333 249.44 55.7597L249.07 55.3348ZM243.148 58.5709C240.824 59.3102 238.231 59.6818 235.364 59.6818L235.364 60.2453C238.279 60.2453 240.931 59.8674 243.319 59.1079L243.148 58.5709ZM262.845 59L262.563 59L262.563 59.2817L262.845 59.2817L262.845 59ZM262.845 0.946128L262.845 0.664388L262.563 0.664388L262.563 0.946128L262.845 0.946128ZM274.006 0.946128L274.288 0.946128L274.288 0.664388L274.006 0.664388L274.006 0.946128ZM274.006 21.4216L273.724 21.4216L273.724 21.7033L274.006 21.7033L274.006 21.4216ZM274.568 21.4216L274.568 21.7033L274.702 21.7033L274.787 21.5988L274.568 21.4216ZM277.78 18.5309L277.934 18.7669L277.936 18.7653L277.78 18.5309ZM282.035 16.5235L281.954 16.2536L281.952 16.2544L282.035 16.5235ZM294.562 17.3265L294.685 17.0732L294.562 17.3265ZM299.379 22.1442L299.129 22.2727L299.131 22.2774L299.379 22.1442ZM301.146 59L301.146 59.2817L301.428 59.2817L301.428 59L301.146 59ZM289.985 59L289.703 59L289.703 59.2817L289.985 59.2817L289.985 59ZM289.503 29.13L289.236 29.2191L289.237 29.2237L289.503 29.13ZM288.058 26.8014L287.85 26.9918L287.858 27.0008L287.867 27.0091L288.058 26.8014ZM285.809 25.4364L285.889 25.1661L285.809 25.4364ZM278.262 26.2393L278.117 25.9977L278.262 26.2393ZM274.006 59L274.006 59.2817L274.288 59.2817L274.288 59L274.006 59ZM263.127 59L263.127 0.946128L262.563 0.946128L262.563 59L263.127 59ZM262.845 1.22787L274.006 1.22787L274.006 0.664388L262.845 0.664388L262.845 1.22787ZM273.724 0.946128L273.724 21.4216L274.288 21.4216L274.288 0.946128L273.724 0.946128ZM274.006 21.7033L274.568 21.7033L274.568 21.1398L274.006 21.1398L274.006 21.7033ZM274.787 21.5988C275.678 20.4979 276.727 19.5541 277.934 18.7669L277.626 18.2949C276.37 19.1137 275.278 20.0969 274.349 21.2443L274.787 21.5988ZM277.936 18.7653C279.197 17.9246 280.591 17.2668 282.119 16.7926L281.952 16.2544C280.375 16.7438 278.932 17.4242 277.624 18.2965L277.936 18.7653ZM282.116 16.7934C283.693 16.3203 285.405 16.0826 287.255 16.0826L287.255 15.5191C285.357 15.5191 283.59 15.7631 281.954 16.2537L282.116 16.7934ZM287.255 16.0826C290.004 16.0826 292.396 16.5848 294.438 17.5798L294.685 17.0732C292.552 16.034 290.073 15.5191 287.255 15.5191L287.255 16.0826ZM294.438 17.5798C296.468 18.5684 298.03 20.1286 299.129 22.2727L299.63 22.0158C298.48 19.7703 296.831 18.1187 294.685 17.0732L294.438 17.5798ZM299.131 22.2774C300.28 24.4177 300.864 27.2311 300.864 30.7359L301.428 30.7359C301.428 27.1747 300.835 24.2603 299.628 22.011L299.131 22.2774ZM300.864 30.7359L300.864 59L301.428 59L301.428 30.7359L300.864 30.7359ZM301.146 58.7183L289.985 58.7183L289.985 59.2817L301.146 59.2817L301.146 58.7183ZM290.267 59L290.267 32.5024L289.703 32.5024L289.703 59L290.267 59ZM290.267 32.5024C290.267 31.1436 290.104 29.9855 289.769 29.0362L289.237 29.2237C289.545 30.0945 289.703 31.1846 289.703 32.5024L290.267 32.5024ZM289.77 29.0409C289.436 28.0395 288.931 27.2199 288.248 26.5937L287.867 27.0091C288.469 27.5606 288.927 28.2934 289.236 29.2191L289.77 29.0409ZM288.265 26.611C287.639 25.9275 286.844 25.4469 285.889 25.1661L285.73 25.7066C286.595 25.9611 287.299 26.3905 287.85 26.9918L288.265 26.611ZM285.889 25.1661C284.949 24.8896 283.904 24.7531 282.758 24.7531L282.758 25.3166C283.86 25.3166 284.85 25.4478 285.73 25.7066L285.889 25.1661ZM282.758 24.7531C281.051 24.7531 279.501 25.1668 278.117 25.9977L278.407 26.4809C279.698 25.7059 281.146 25.3166 282.758 25.3166L282.758 24.7531ZM278.117 25.9977C276.734 26.8271 275.655 27.9621 274.882 29.3979L275.378 29.665C276.104 28.3172 277.112 27.2574 278.407 26.4809L278.117 25.9977ZM274.882 29.3979C274.107 30.8365 273.724 32.4896 273.724 34.3492L274.288 34.3492C274.288 32.5687 274.654 31.0099 275.378 29.665L274.882 29.3979ZM273.724 34.3492L273.724 59L274.288 59L274.288 34.3492L273.724 34.3492ZM274.006 58.7183L262.845 58.7183L262.845 59.2817L274.006 59.2817L274.006 58.7183ZM317.812 59.4818L317.755 59.7577L317.757 59.758L317.812 59.4818ZM313.396 57.7956L313.248 58.0356L313.255 58.0396L313.396 57.7956ZM309.943 54.1823L309.694 54.3149L309.7 54.3247L309.943 54.1823ZM310.586 40.7729L310.82 40.9291L310.586 40.7729ZM316.046 36.2763L316.162 36.5328L316.165 36.5316L316.046 36.2763ZM324.637 33.9477L324.673 34.2271L324.637 33.9477ZM335.638 33.3053L335.638 33.5871L335.92 33.5871L335.92 33.3053L335.638 33.3053ZM334.996 26.962L334.735 27.0694L334.741 27.0819L334.996 26.962ZM332.908 24.794L332.771 25.0403L332.777 25.0433L332.908 24.794ZM324.477 24.6334L324.377 24.3701L324.372 24.3718L324.477 24.6334ZM322.148 26.3196L321.917 26.1592L321.914 26.1633L322.148 26.3196ZM321.506 29.4511L321.506 29.7329L321.788 29.7329L321.788 29.4511L321.506 29.4511ZM310.666 29.4511L310.39 29.5064L310.435 29.7329L310.666 29.7329L310.666 29.4511ZM312.834 21.4216L313.049 21.6039L313.051 21.6007L312.834 21.4216ZM338.529 17.3265L338.427 17.5892L338.429 17.5898L338.529 17.3265ZM344.631 21.823L344.401 21.9851L344.404 21.9891L344.631 21.823ZM347.602 50.6492L347.414 50.8587L347.424 50.8685L347.436 50.8771L347.602 50.6492ZM352.179 51.2916L352.461 51.2916L352.461 51.0099L352.179 51.0099L352.179 51.2916ZM352.179 58.5985L352.305 58.8505L352.461 58.7726L352.461 58.5985L352.179 58.5985ZM349.69 59.4015L349.624 59.1271L349.612 59.1306L349.69 59.4015ZM341.419 59.1606L341.522 58.8981L341.516 58.8958L341.419 59.1606ZM338.448 57.3138L338.243 57.5066L338.249 57.513L338.448 57.3138ZM336.762 54.2626L337.034 54.1884L336.977 53.9808L336.762 53.9808L336.762 54.2626ZM336.2 54.2626L336.2 53.9808L336.066 53.9808L335.981 54.0853L336.2 54.2626ZM332.828 57.2335L332.676 56.9961L332.671 56.9991L332.828 57.2335ZM328.251 59.2409L328.177 58.9691L328.174 58.9697L328.251 59.2409ZM330.098 50.8901L330.194 51.1551L330.204 51.1509L330.098 50.8901ZM333.068 49.0433L333.261 49.2494L333.268 49.2425L333.068 49.0433ZM334.915 46.1527L334.656 46.0416L334.652 46.0524L334.915 46.1527ZM335.638 40.2108L335.92 40.2108L335.92 39.929L335.638 39.929L335.638 40.2108ZM327.608 40.8531L327.653 41.1315L327.659 41.1303L327.608 40.8531ZM321.988 42.8605L321.827 42.6289L321.823 42.6319L321.988 42.8605ZM320.703 49.3645L320.935 49.2041L320.703 49.3645ZM322.791 50.9704L322.683 51.2309L322.791 50.9704ZM322.309 59.6818C320.939 59.6818 319.458 59.5237 317.868 59.2055L317.757 59.758C319.378 60.0822 320.896 60.2453 322.309 60.2453L322.309 59.6818ZM317.869 59.2059C316.347 58.8909 314.903 58.3397 313.537 57.5515L313.255 58.0396C314.673 58.8574 316.173 59.4303 317.755 59.7577L317.869 59.2059ZM313.544 57.5556C312.195 56.7257 311.075 55.5565 310.186 54.0398L309.7 54.3247C310.631 55.9128 311.813 57.1525 313.248 58.0355L313.544 57.5556ZM310.192 54.0497C309.363 52.4964 308.94 50.5115 308.94 48.0798L308.377 48.0798C308.377 50.5728 308.81 52.6563 309.695 54.3148L310.192 54.0497ZM308.94 48.0798C308.94 45.1762 309.574 42.7989 310.82 40.9291L310.351 40.6166C309.028 42.601 308.377 45.095 308.377 48.0798L308.94 48.0798ZM310.82 40.9291C312.072 39.0508 313.849 37.5843 316.162 36.5328L315.929 36.0198C313.532 37.1095 311.668 38.6407 310.351 40.6166L310.82 40.9291ZM316.165 36.5316C318.542 35.4224 321.376 34.6526 324.673 34.2271L324.601 33.6683C321.261 34.0993 318.368 34.8819 315.927 36.021L316.165 36.5316ZM324.673 34.2271C327.978 33.8007 331.633 33.5871 335.638 33.5871L335.638 33.0236C331.613 33.0236 327.934 33.2382 324.601 33.6683L324.673 34.2271ZM335.92 33.3053L335.92 30.1738L335.356 30.1738L335.356 33.3053L335.92 33.3053ZM335.92 30.1738C335.92 28.9102 335.7 27.797 335.25 26.842L334.741 27.0819C335.148 27.947 335.356 28.975 335.356 30.1738L335.92 30.1738ZM335.256 26.8547C334.852 25.8737 334.104 25.1053 333.039 24.5447L332.777 25.0433C333.746 25.5533 334.39 26.2302 334.735 27.0692L335.256 26.8547ZM333.045 24.5477C332.021 23.9792 330.601 23.7093 328.813 23.7093L328.813 24.2728C330.557 24.2728 331.867 24.5382 332.771 25.0403L333.045 24.5477ZM328.813 23.7093C327.027 23.7093 325.544 23.9254 324.377 24.3701L324.577 24.8967C325.658 24.4849 327.066 24.2728 328.813 24.2728L328.813 23.7093ZM324.372 24.3718C323.268 24.8134 322.439 25.4041 321.917 26.1592L322.38 26.48C322.821 25.8433 323.544 25.3099 324.581 24.895L324.372 24.3718ZM321.914 26.1633C321.453 26.8539 321.224 27.6314 321.224 28.4876L321.788 28.4876C321.788 27.7379 321.987 27.07 322.383 26.4759L321.914 26.1633ZM321.224 28.4876L321.224 29.4511L321.788 29.4511L321.788 28.4876L321.224 28.4876ZM321.506 29.1694L310.666 29.1694L310.666 29.7329L321.506 29.7329L321.506 29.1694ZM310.942 29.3959C310.891 29.1417 310.867 28.9198 310.867 28.7285L310.304 28.7285C310.304 28.9654 310.333 29.2252 310.39 29.5064L310.942 29.3959ZM310.867 28.7285C310.867 28.728 310.867 28.7274 310.867 28.7269C310.867 28.7264 310.867 28.7259 310.867 28.7253C310.867 28.7248 310.867 28.7243 310.867 28.7238C310.867 28.7232 310.867 28.7227 310.867 28.7222C310.867 28.7217 310.867 28.7211 310.867 28.7206C310.867 28.7201 310.867 28.7196 310.867 28.719C310.867 28.7185 310.867 28.718 310.867 28.7175C310.867 28.7169 310.867 28.7164 310.867 28.7159C310.867 28.7154 310.867 28.7148 310.867 28.7143C310.867 28.7138 310.867 28.7133 310.867 28.7127C310.867 28.7122 310.867 28.7117 310.867 28.7112C310.867 28.7106 310.867 28.7101 310.867 28.7096C310.867 28.709 310.867 28.7085 310.867 28.708C310.867 28.7075 310.867 28.7069 310.867 28.7064C310.867 28.7059 310.867 28.7053 310.867 28.7048C310.867 28.7043 310.867 28.7038 310.867 28.7032C310.867 28.7027 310.867 28.7022 310.867 28.7016C310.867 28.7011 310.867 28.7006 310.867 28.7001C310.867 28.6995 310.867 28.699 310.867 28.6985C310.867 28.6979 310.867 28.6974 310.867 28.6969C310.867 28.6963 310.867 28.6958 310.867 28.6953C310.867 28.6947 310.867 28.6942 310.867 28.6937C310.867 28.6931 310.867 28.6926 310.867 28.6921C310.867 28.6916 310.867 28.691 310.867 28.6905C310.867 28.69 310.867 28.6894 310.867 28.6889C310.867 28.6884 310.867 28.6878 310.867 28.6873C310.867 28.6868 310.867 28.6862 310.867 28.6857C310.867 28.6852 310.867 28.6846 310.867 28.6841C310.867 28.6836 310.867 28.683 310.867 28.6825C310.867 28.6819 310.867 28.6814 310.867 28.6809C310.867 28.6803 310.867 28.6798 310.867 28.6793C310.867 28.6787 310.867 28.6782 310.867 28.6777C310.867 28.6771 310.867 28.6766 310.867 28.6761C310.867 28.6755 310.867 28.675 310.867 28.6745C310.867 28.6739 310.867 28.6734 310.867 28.6728C310.867 28.6723 310.867 28.6718 310.867 28.6712C310.867 28.6707 310.867 28.6702 310.867 28.6696C310.867 28.6691 310.867 28.6685 310.867 28.668C310.867 28.6675 310.867 28.6669 310.867 28.6664C310.867 28.6658 310.867 28.6653 310.867 28.6648C310.867 28.6642 310.867 28.6637 310.867 28.6632C310.867 28.6626 310.867 28.6621 310.867 28.6615C310.867 28.661 310.867 28.6605 310.867 28.6599C310.867 28.6594 310.867 28.6588 310.867 28.6583C310.867 28.6577 310.867 28.6572 310.867 28.6567C310.867 28.6561 310.867 28.6556 310.867 28.655C310.867 28.6545 310.867 28.654 310.867 28.6534C310.867 28.6529 310.867 28.6523 310.867 28.6518C310.867 28.6512 310.867 28.6507 310.867 28.6502C310.867 28.6496 310.867 28.6491 310.867 28.6485C310.867 28.648 310.867 28.6474 310.867 28.6469C310.867 28.6464 310.867 28.6458 310.867 28.6453C310.867 28.6447 310.867 28.6442 310.867 28.6436C310.867 28.6431 310.867 28.6426 310.867 28.642C310.867 28.6415 310.867 28.6409 310.867 28.6404C310.867 28.6398 310.867 28.6393 310.867 28.6387C310.867 28.6382 310.867 28.6376 310.867 28.6371C310.867 28.6366 310.867 28.636 310.867 28.6355C310.867 28.6349 310.867 28.6344 310.867 28.6338C310.867 28.6333 310.867 28.6327 310.867 28.6322C310.867 28.6316 310.867 28.6311 310.867 28.6305C310.867 28.63 310.867 28.6294 310.867 28.6289C310.867 28.6283 310.867 28.6278 310.867 28.6272C310.867 28.6267 310.867 28.6261 310.867 28.6256C310.867 28.6251 310.867 28.6245 310.867 28.624C310.867 28.6234 310.867 28.6229 310.867 28.6223C310.867 28.6218 310.867 28.6212 310.867 28.6207C310.867 28.6201 310.867 28.6196 310.867 28.619C310.867 28.6185 310.867 28.6179 310.867 28.6174C310.867 28.6168 310.867 28.6162 310.867 28.6157C310.867 28.6151 310.867 28.6146 310.867 28.614C310.867 28.6135 310.867 28.6129 310.867 28.6124C310.867 28.6118 310.867 28.6113 310.867 28.6107C310.867 28.6102 310.867 28.6096 310.867 28.6091C310.867 28.6085 310.867 28.608 310.867 28.6074C310.867 28.6069 310.867 28.6063 310.867 28.6058C310.867 28.6052 310.867 28.6046 310.867 28.6041C310.867 28.6035 310.867 28.603 310.867 28.6024C310.867 28.6019 310.867 28.6013 310.867 28.6008C310.867 28.6002 310.867 28.5997 310.867 28.5991C310.867 28.5985 310.867 28.598 310.867 28.5974C310.867 28.5969 310.867 28.5963 310.867 28.5958C310.867 28.5952 310.867 28.5947 310.867 28.5941C310.867 28.5935 310.867 28.593 310.867 28.5924C310.867 28.5919 310.867 28.5913 310.867 28.5908C310.867 28.5902 310.867 28.5896 310.867 28.5891C310.867 28.5885 310.867 28.588 310.867 28.5874C310.867 28.5868 310.867 28.5863 310.867 28.5857C310.867 28.5852 310.867 28.5846 310.867 28.584C310.867 28.5835 310.867 28.5829 310.867 28.5824C310.867 28.5818 310.867 28.5813 310.867 28.5807C310.867 28.5801 310.867 28.5796 310.867 28.579C310.867 28.5785 310.867 28.5779 310.867 28.5773C310.867 28.5768 310.867 28.5762 310.867 28.5756C310.867 28.5751 310.867 28.5745 310.867 28.574C310.867 28.5734 310.867 28.5728 310.867 28.5723C310.867 28.5717 310.867 28.5712 310.867 28.5706C310.867 28.57 310.867 28.5695 310.867 28.5689C310.867 28.5683 310.867 28.5678 310.867 28.5672C310.867 28.5667 310.867 28.5661 310.867 28.5655C310.867 28.565 310.867 28.5644 310.867 28.5638C310.867 28.5633 310.867 28.5627 310.867 28.5621C310.867 28.5616 310.867 28.561 310.867 28.5604C310.867 28.5599 310.867 28.5593 310.867 28.5588C310.867 28.5582 310.867 28.5576 310.867 28.5571C310.867 28.5565 310.867 28.5559 310.867 28.5554C310.867 28.5548 310.867 28.5542 310.867 28.5537C310.867 28.5531 310.867 28.5525 310.867 28.552C310.867 28.5514 310.867 28.5508 310.867 28.5503C310.867 28.5497 310.867 28.5491 310.867 28.5486C310.867 28.548 310.867 28.5474 310.867 28.5469C310.867 28.5463 310.867 28.5457 310.867 28.5451C310.867 28.5446 310.867 28.544 310.867 28.5434C310.867 28.5429 310.867 28.5423 310.867 28.5417C310.867 28.5412 310.867 28.5406 310.867 28.54C310.867 28.5395 310.867 28.5389 310.867 28.5383C310.867 28.5377 310.867 28.5372 310.867 28.5366C310.867 28.536 310.867 28.5355 310.867 28.5349C310.867 28.5343 310.867 28.5338 310.867 28.5332C310.867 28.5326 310.867 28.532 310.867 28.5315C310.867 28.5309 310.867 28.5303 310.867 28.5297C310.867 28.5292 310.867 28.5286 310.867 28.528C310.867 28.5275 310.867 28.5269 310.867 28.5263C310.867 28.5257 310.867 28.5252 310.867 28.5246C310.867 28.524 310.867 28.5234 310.867 28.5229C310.867 28.5223 310.867 28.5217 310.867 28.5212C310.867 28.5206 310.867 28.52 310.867 28.5194C310.867 28.5189 310.867 28.5183 310.867 28.5177C310.867 28.5171 310.867 28.5166 310.867 28.516C310.867 28.5154 310.867 28.5148 310.867 28.5143C310.867 28.5137 310.867 28.5131 310.867 28.5125C310.867 28.5119 310.867 28.5114 310.867 28.5108C310.867 28.5102 310.867 28.5096 310.867 28.5091C310.867 28.5085 310.867 28.5079 310.867 28.5073C310.867 28.5068 310.867 28.5062 310.867 28.5056C310.867 28.505 310.867 28.5044 310.867 28.5039C310.867 28.5033 310.867 28.5027 310.867 28.5021C310.867 28.5015 310.867 28.501 310.867 28.5004C310.867 28.4998 310.867 28.4992 310.867 28.4987C310.867 28.4981 310.867 28.4975 310.867 28.4969C310.867 28.4963 310.867 28.4958 310.867 28.4952C310.867 28.4946 310.867 28.494 310.867 28.4934C310.867 28.4929 310.867 28.4923 310.867 28.4917C310.867 28.4911 310.867 28.4905 310.867 28.4899C310.867 28.4894 310.867 28.4888 310.867 28.4882C310.867 28.4876 310.867 28.487 310.867 28.4865C310.867 28.4859 310.867 28.4853 310.867 28.4847C310.867 28.4841 310.867 28.4835 310.867 28.483C310.867 28.4824 310.867 28.4818 310.867 28.4812C310.867 28.4806 310.867 28.48 310.867 28.4795C310.867 28.4789 310.867 28.4783 310.867 28.4777C310.867 28.4771 310.867 28.4765 310.867 28.4759C310.867 28.4754 310.867 28.4748 310.867 28.4742C310.867 28.4736 310.867 28.473 310.867 28.4724C310.867 28.4719 310.867 28.4713 310.867 28.4707C310.867 28.4701 310.867 28.4695 310.867 28.4689C310.867 28.4683 310.867 28.4677 310.867 28.4672C310.867 28.4666 310.867 28.466 310.867 28.4654C310.867 28.4648 310.867 28.4642 310.867 28.4636C310.867 28.463 310.867 28.4625 310.867 28.4619C310.867 28.4613 310.867 28.4607 310.867 28.4601C310.867 28.4595 310.867 28.4589 310.867 28.4583C310.867 28.4578 310.867 28.4572 310.867 28.4566C310.867 28.456 310.867 28.4554 310.867 28.4548C310.867 28.4542 310.867 28.4536 310.867 28.453C310.867 28.4524 310.867 28.4519 310.867 28.4513C310.867 28.4507 310.867 28.4501 310.867 28.4495C310.867 28.4489 310.867 28.4483 310.867 28.4477C310.867 28.4471 310.867 28.4465 310.867 28.4459C310.867 28.4454 310.867 28.4448 310.867 28.4442C310.867 28.4436 310.867 28.443 310.867 28.4424C310.867 28.4418 310.867 28.4412 310.867 28.4406C310.867 28.44 310.867 28.4394 310.867 28.4388C310.867 28.4382 310.867 28.4376 310.867 28.4371C310.867 28.4365 310.867 28.4359 310.867 28.4353C310.867 28.4347 310.867 28.4341 310.867 28.4335C310.867 28.4329 310.867 28.4323 310.867 28.4317C310.867 28.4311 310.867 28.4305 310.867 28.4299C310.867 28.4293 310.867 28.4287 310.867 28.4281C310.867 28.4275 310.867 28.4269 310.867 28.4263C310.867 28.4257 310.867 28.4251 310.867 28.4246C310.867 28.424 310.867 28.4234 310.867 28.4228C310.867 28.4222 310.867 28.4216 310.867 28.421C310.867 28.4204 310.867 28.4198 310.867 28.4192C310.867 28.4186 310.867 28.418 310.867 28.4174C310.867 28.4168 310.867 28.4162 310.867 28.4156C310.867 28.415 310.867 28.4144 310.867 28.4138C310.867 28.4132 310.867 28.4126 310.867 28.412C310.867 28.4114 310.867 28.4108 310.867 28.4102C310.867 28.4096 310.867 28.409 310.867 28.4084C310.867 28.4078 310.867 28.4072 310.867 28.4066C310.867 28.406 310.867 28.4054 310.867 28.4048C310.867 28.4042 310.867 28.4036 310.867 28.403C310.867 28.4024 310.867 28.4018 310.867 28.4012C310.867 28.4006 310.867 28.4 310.867 28.3994C310.867 28.3988 310.867 28.3982 310.867 28.3976C310.867 28.397 310.867 28.3964 310.867 28.3958C310.867 28.3951 310.867 28.3945 310.867 28.3939C310.867 28.3933 310.867 28.3927 310.867 28.3921C310.867 28.3915 310.867 28.3909 310.867 28.3903C310.867 28.3897 310.867 28.3891 310.867 28.3885C310.867 28.3879 310.867 28.3873 310.867 28.3867C310.867 28.3861 310.867 28.3855 310.867 28.3849C310.867 28.3843 310.867 28.3837 310.867 28.3831C310.867 28.3825 310.867 28.3818 310.867 28.3812C310.867 28.3806 310.867 28.38 310.867 28.3794C310.867 28.3788 310.867 28.3782 310.867 28.3776C310.867 28.377 310.867 28.3764 310.867 28.3758C310.867 28.3752 310.867 28.3746 310.867 28.374C310.867 28.3733 310.867 28.3727 310.867 28.3721C310.867 28.3715 310.867 28.3709 310.867 28.3703C310.867 28.3697 310.867 28.3691 310.867 28.3685C310.867 28.3679 310.867 28.3673 310.867 28.3666C310.867 28.366 310.867 28.3654 310.867 28.3648C310.867 28.3642 310.867 28.3636 310.867 28.363C310.867 28.3624 310.867 28.3618 310.867 28.3611C310.867 28.3605 310.867 28.3599 310.867 28.3593C310.867 28.3587 310.867 28.3581 310.867 28.3575C310.867 28.3569 310.867 28.3563 310.867 28.3556C310.867 28.355 310.867 28.3544 310.867 28.3538C310.867 28.3532 310.867 28.3526 310.867 28.352C310.867 28.3514 310.867 28.3507 310.867 28.3501C310.867 28.3495 310.867 28.3489 310.867 28.3483C310.867 28.3477 310.867 28.3471 310.867 28.3464C310.867 28.3458 310.867 28.3452 310.867 28.3446C310.867 28.344 310.867 28.3434 310.867 28.3428C310.867 28.3421 310.867 28.3415 310.867 28.3409C310.867 28.3403 310.867 28.3397 310.867 28.3391C310.867 28.3385 310.867 28.3378 310.867 28.3372C310.867 28.3366 310.867 28.336 310.867 28.3354C310.867 28.3348 310.867 28.3341 310.867 28.3335C310.867 28.3329 310.867 28.3323 310.867 28.3317C310.867 28.331 310.867 28.3304 310.867 28.3298C310.867 28.3292 310.867 28.3286 310.867 28.328C310.867 28.3273 310.867 28.3267 310.867 28.3261C310.867 28.3255 310.867 28.3249 310.867 28.3242C310.867 28.3236 310.867 28.323 310.867 28.3224C310.867 28.3218 310.867 28.3211 310.867 28.3205C310.867 28.3199 310.867 28.3193 310.867 28.3187C310.867 28.318 310.867 28.3174 310.867 28.3168C310.867 28.3162 310.867 28.3156 310.867 28.3149C310.867 28.3143 310.867 28.3137 310.867 28.3131C310.867 28.3125 310.867 28.3118 310.867 28.3112C310.867 28.3106 310.867 28.31 310.867 28.3093C310.867 28.3087 310.867 28.3081 310.867 28.3075C310.867 28.3069 310.867 28.3062 310.867 28.3056C310.867 28.305 310.867 28.3044 310.867 28.3037C310.867 28.3031 310.867 28.3025 310.867 28.3019C310.867 28.3012 310.867 28.3006 310.867 28.3C310.867 28.2994 310.867 28.2987 310.867 28.2981C310.867 28.2975 310.867 28.2969 310.867 28.2962C310.867 28.2956 310.867 28.295 310.867 28.2944C310.867 28.2937 310.867 28.2931 310.867 28.2925C310.867 28.2919 310.867 28.2912 310.867 28.2906C310.867 28.29 310.867 28.2894 310.867 28.2887C310.867 28.2881 310.867 28.2875 310.867 28.2869C310.867 28.2862 310.867 28.2856 310.867 28.285C310.867 28.2843 310.867 28.2837 310.867 28.2831C310.867 28.2825 310.867 28.2818 310.867 28.2812C310.867 28.2806 310.867 28.2799 310.867 28.2793C310.867 28.2787 310.867 28.2781 310.867 28.2774C310.867 28.2768 310.867 28.2762 310.867 28.2755C310.867 28.2749 310.867 28.2743 310.867 28.2736C310.867 28.273 310.867 28.2724 310.867 28.2718C310.867 28.2711 310.867 28.2705 310.867 28.2699C310.867 28.2692 310.867 28.2686 310.867 28.268C310.867 28.2673 310.867 28.2667 310.867 28.2661C310.867 28.2654 310.867 28.2648 310.867 28.2642C310.867 28.2636 310.867 28.2629 310.867 28.2623C310.867 28.2617 310.867 28.261 310.867 28.2604C310.867 28.2598 310.867 28.2591 310.867 28.2585C310.867 28.2579 310.867 28.2572 310.867 28.2566C310.867 28.256 310.867 28.2553 310.867 28.2547C310.867 28.254 310.867 28.2534 310.867 28.2528C310.867 28.2521 310.867 28.2515 310.867 28.2509C310.867 28.2502 310.867 28.2496 310.867 28.249C310.867 28.2483 310.867 28.2477 310.867 28.2471C310.867 28.2464 310.867 28.2458 310.867 28.2452C310.867 28.2445 310.867 28.2439 310.867 28.2432C310.867 28.2426 310.867 28.242 310.867 28.2413C310.867 28.2407 310.867 28.2401 310.867 28.2394C310.867 28.2388 310.867 28.2381 310.867 28.2375C310.867 28.2369 310.867 28.2362 310.867 28.2356C310.867 28.235 310.867 28.2343 310.867 28.2337C310.867 28.233 310.867 28.2324 310.867 28.2318C310.867 28.2311 310.867 28.2305 310.867 28.2298C310.867 28.2292 310.867 28.2286 310.867 28.2279C310.867 28.2273 310.867 28.2266 310.867 28.226C310.867 28.2254 310.867 28.2247 310.867 28.2241C310.867 28.2234 310.867 28.2228 310.867 28.2222C310.867 28.2215 310.867 28.2209 310.867 28.2202C310.867 28.2196 310.867 28.219 310.867 28.2183C310.867 28.2177 310.867 28.217 310.867 28.2164C310.867 28.2157 310.867 28.2151 310.867 28.2145C310.867 28.2138 310.867 28.2132 310.867 28.2125C310.867 28.2119 310.867 28.2112 310.867 28.2106C310.867 28.2099 310.867 28.2093 310.867 28.2087C310.867 28.208 310.867 28.2074 310.867 28.2067C310.867 28.2061 310.867 28.2054 310.867 28.2048C310.867 28.2042 310.867 28.2035 310.867 28.2029C310.867 28.2022 310.867 28.2016 310.867 28.2009C310.867 28.2003 310.867 28.1996 310.867 28.199C310.867 28.1983 310.867 28.1977 310.867 28.197C310.867 28.1964 310.867 28.1958 310.867 28.1951C310.867 28.1945 310.867 28.1938 310.867 28.1932C310.867 28.1925 310.867 28.1919 310.867 28.1912C310.867 28.1906 310.867 28.1899 310.867 28.1893C310.867 28.1886 310.867 28.188 310.867 28.1873C310.867 28.1867 310.867 28.186 310.867 28.1854C310.867 28.1847 310.867 28.1841 310.867 28.1834C310.867 28.1828 310.867 28.1821 310.867 28.1815C310.867 28.1808 310.867 28.1802 310.867 28.1795C310.867 28.1789 310.867 28.1782 310.867 28.1776C310.867 28.1769 310.867 28.1763 310.867 28.1756C310.867 28.175 310.867 28.1743 310.867 28.1737C310.867 28.173 310.867 28.1724 310.867 28.1717C310.867 28.1711 310.867 28.1704 310.867 28.1698C310.867 28.1691 310.867 28.1685 310.867 28.1678C310.867 28.1672 310.867 28.1665 310.867 28.1659C310.867 28.1652 310.867 28.1646 310.867 28.1639C310.867 28.1632 310.867 28.1626 310.867 28.1619C310.867 28.1613 310.867 28.1606 310.867 28.16C310.867 28.1593 310.867 28.1587 310.867 28.158C310.867 28.1574 310.867 28.1567 310.867 28.156C310.867 28.1554 310.867 28.1547 310.867 28.1541C310.867 28.1534 310.867 28.1528 310.867 28.1521C310.867 28.1515 310.867 28.1508 310.867 28.1501C310.867 28.1495 310.867 28.1488 310.867 28.1482C310.867 28.1475 310.867 28.1469 310.867 28.1462C310.867 28.1456 310.867 28.1449 310.867 28.1442C310.867 28.1436 310.867 28.1429 310.867 28.1423C310.867 28.1416 310.867 28.1409 310.867 28.1403C310.867 28.1396 310.867 28.139 310.867 28.1383C310.867 28.1377 310.867 28.137 310.867 28.1363C310.867 28.1357 310.867 28.135 310.867 28.1344C310.867 28.1337 310.867 28.133 310.867 28.1324C310.867 28.1317 310.867 28.1311 310.867 28.1304C310.867 28.1297 310.867 28.1291 310.867 28.1284C310.867 28.1278 310.867 28.1271 310.867 28.1264C310.867 28.1258 310.867 28.1251 310.867 28.1244C310.867 28.1238 310.867 28.1231 310.867 28.1225C310.867 28.1218 310.867 28.1211 310.867 28.1205C310.867 28.1198 310.867 28.1191 310.867 28.1185C310.867 28.1178 310.867 28.1172 310.867 28.1165C310.867 28.1158 310.867 28.1152 310.867 28.1145C310.867 28.1138 310.867 28.1132 310.867 28.1125C310.867 28.1119 310.867 28.1112 310.867 28.1105C310.867 28.1099 310.867 28.1092 310.867 28.1085C310.867 28.1079 310.867 28.1072 310.867 28.1065C310.867 28.1059 310.867 28.1052 310.867 28.1045C310.867 28.1039 310.867 28.1032 310.867 28.1025C310.867 28.1019 310.867 28.1012 310.867 28.1005C310.867 28.0999 310.867 28.0992 310.867 28.0985C310.867 28.0979 310.867 28.0972 310.867 28.0965C310.867 28.0959 310.867 28.0952 310.867 28.0945C310.867 28.0939 310.867 28.0932 310.867 28.0925C310.867 28.0919 310.867 28.0912 310.867 28.0905C310.867 28.0899 310.867 28.0892 310.867 28.0885C310.867 28.0879 310.867 28.0872 310.867 28.0865C310.867 28.0858 310.867 28.0852 310.867 28.0845C310.867 28.0838 310.867 28.0832 310.867 28.0825C310.867 28.0818 310.867 28.0812 310.867 28.0805C310.867 28.0798 310.867 28.0791 310.867 28.0785C310.867 28.0778 310.867 28.0771 310.867 28.0765C310.867 28.0758 310.867 28.0751 310.867 28.0744C310.867 28.0738 310.867 28.0731 310.867 28.0724C310.867 28.0718 310.867 28.0711 310.867 28.0704C310.867 28.0697 310.867 28.0691 310.867 28.0684C310.867 28.0677 310.867 28.067 310.867 28.0664C310.867 28.0657 310.867 28.065 310.867 28.0644C310.867 28.0637 310.867 28.063 310.867 28.0623C310.867 28.0617 310.867 28.061 310.867 28.0603C310.867 28.0596 310.867 28.059 310.867 28.0583C310.867 28.0576 310.867 28.0569 310.867 28.0563C310.867 28.0556 310.867 28.0549 310.867 28.0542C310.867 28.0536 310.867 28.0529 310.867 28.0522C310.867 28.0515 310.867 28.0508 310.867 28.0502C310.867 28.0495 310.867 28.0488 310.867 28.0481C310.867 28.0475 310.867 28.0468 310.867 28.0461C310.867 28.0454 310.867 28.0448 310.867 28.0441C310.867 28.0434 310.867 28.0427 310.867 28.042C310.867 28.0414 310.867 28.0407 310.867 28.04C310.867 28.0393 310.867 28.0386 310.867 28.038C310.867 28.0373 310.867 28.0366 310.867 28.0359C310.867 28.0352 310.867 28.0346 310.867 28.0339C310.867 28.0332 310.867 28.0325 310.867 28.0318C310.867 28.0312 310.867 28.0305 310.867 28.0298C310.867 28.0291 310.867 28.0284 310.867 28.0278C310.867 28.0271 310.867 28.0264 310.867 28.0257C310.867 28.025 310.867 28.0244 310.867 28.0237C310.867 28.023 310.867 28.0223 310.867 28.0216C310.867 28.0209 310.867 28.0203 310.867 28.0196C310.867 28.0189 310.867 28.0182 310.867 28.0175C310.867 28.0168 310.867 28.0162 310.867 28.0155C310.867 28.0148 310.867 28.0141 310.867 28.0134C310.867 28.0127 310.867 28.0121 310.867 28.0114C310.867 28.0107 310.867 28.01 310.867 28.0093C310.867 28.0086 310.867 28.008 310.867 28.0073C310.867 28.0066 310.867 28.0059 310.867 28.0052C310.867 28.0045 310.867 28.0038 310.867 28.0032C310.867 28.0025 310.867 28.0018 310.867 28.0011C310.867 28.0004 310.867 27.9997 310.867 27.999C310.867 27.9983 310.867 27.9977 310.867 27.997C310.867 27.9963 310.867 27.9956 310.867 27.9949C310.867 27.9942 310.867 27.9935 310.867 27.9928C310.867 27.9922 310.867 27.9915 310.867 27.9908C310.867 27.9901 310.867 27.9894 310.867 27.9887C310.867 27.988 310.867 27.9873 310.867 27.9866C310.867 27.986 310.867 27.9853 310.867 27.9846C310.867 27.9839 310.867 27.9832 310.867 27.9825C310.867 27.9818 310.867 27.9811 310.867 27.9804C310.867 27.9797 310.867 27.9791 310.867 27.9784C310.867 27.9777 310.867 27.977 310.867 27.9763C310.867 27.9756 310.867 27.9749 310.867 27.9742C310.867 27.9735 310.867 27.9728 310.867 27.9721C310.867 27.9714 310.867 27.9708 310.867 27.9701C310.867 27.9694 310.867 27.9687 310.867 27.968C310.867 27.9673 310.867 27.9666 310.867 27.9659C310.867 27.9652 310.867 27.9645 310.867 27.9638C310.867 27.9631 310.867 27.9624 310.867 27.9617C310.867 27.961 310.867 27.9604 310.867 27.9597C310.867 27.959 310.867 27.9583 310.867 27.9576C310.867 27.9569 310.867 27.9562 310.867 27.9555C310.867 27.9548 310.867 27.9541 310.867 27.9534C310.867 27.9527 310.867 27.952 310.867 27.9513C310.867 27.9506 310.867 27.9499 310.867 27.9492C310.867 27.9485 310.867 27.9478 310.867 27.9471C310.867 27.9464 310.867 27.9457 310.867 27.945C310.867 27.9443 310.867 27.9436 310.867 27.9429C310.867 27.9422 310.867 27.9415 310.867 27.9408C310.867 27.9402 310.867 27.9394 310.867 27.9388C310.867 27.9381 310.867 27.9374 310.867 27.9367C310.867 27.936 310.867 27.9353 310.867 27.9346C310.867 27.9339 310.867 27.9332 310.867 27.9325C310.867 27.9318 310.867 27.9311 310.867 27.9304C310.867 27.9297 310.867 27.929 310.867 27.9283C310.867 27.9276 310.867 27.9269 310.867 27.9262C310.867 27.9254 310.867 27.9248 310.867 27.924C310.867 27.9233 310.867 27.9226 310.867 27.9219C310.867 27.9212 310.867 27.9205 310.867 27.9198C310.867 27.9191 310.867 27.9184 310.867 27.9177C310.867 27.917 310.867 27.9163 310.867 27.9156C310.867 27.9149 310.867 27.9142 310.867 27.9135C310.867 27.9128 310.867 27.9121 310.867 27.9114C310.867 27.9107 310.867 27.91 310.867 27.9093C310.867 27.9086 310.867 27.9079 310.867 27.9072C310.867 27.9065 310.867 27.9058 310.867 27.9051C310.867 27.9044 310.867 27.9036 310.867 27.9029C310.867 27.9022 310.867 27.9015 310.867 27.9008C310.867 27.9001 310.867 27.8994 310.867 27.8987C310.867 27.898 310.867 27.8973 310.867 27.8966C310.867 27.8959 310.867 27.8952 310.867 27.8945C310.867 27.8938 310.867 27.893 310.867 27.8923C310.867 27.8916 310.867 27.8909 310.867 27.8902C310.867 27.8895 310.867 27.8888 310.867 27.8881C310.867 27.8874 310.867 27.8867 310.867 27.886C310.867 27.8853 310.867 27.8845 310.867 27.8838C310.867 27.8831 310.867 27.8824 310.867 27.8817C310.867 27.881 310.867 27.8803 310.867 27.8796C310.867 27.8789 310.867 27.8782 310.867 27.8774C310.867 27.8767 310.867 27.876 310.867 27.8753C310.867 27.8746 310.867 27.8739 310.867 27.8732C310.867 27.8725 310.867 27.8718 310.867 27.871C310.867 27.8703 310.867 27.8696 310.867 27.8689C310.867 27.8682 310.867 27.8675 310.867 27.8668C310.867 27.8661 310.867 27.8653 310.867 27.8646C310.867 27.8639 310.867 27.8632 310.867 27.8625C310.867 27.8618 310.867 27.8611 310.867 27.8603C310.867 27.8596 310.867 27.8589 310.867 27.8582C310.867 27.8575 310.867 27.8568 310.867 27.8561C310.867 27.8553 310.867 27.8546 310.867 27.8539C310.867 27.8532 310.867 27.8525 310.867 27.8518C310.867 27.8511 310.867 27.8503 310.867 27.8496C310.867 27.8489 310.867 27.8482 310.867 27.8475C310.867 27.8468 310.867 27.846 310.867 27.8453C310.867 27.8446 310.867 27.8439 310.867 27.8432C310.867 27.8425 310.867 27.8417 310.867 27.841C310.867 27.8403 310.867 27.8396 310.867 27.8389C310.867 27.8382 310.867 27.8374 310.867 27.8367C310.867 27.836 310.867 27.8353 310.867 27.8346C310.867 27.8338 310.867 27.8331 310.867 27.8324C310.867 27.8317 310.867 27.831 310.867 27.8302C310.867 27.8295 310.867 27.8288 310.867 27.8281C310.867 27.8274 310.867 27.8266 310.867 27.8259C310.867 27.8252 310.867 27.8245 310.867 27.8238C310.867 27.823 310.867 27.8223 310.867 27.8216C310.867 27.8209 310.867 27.8202 310.867 27.8194C310.867 27.8187 310.867 27.818 310.867 27.8173C310.867 27.8165 310.867 27.8158 310.867 27.8151C310.867 27.8144 310.867 27.8137 310.867 27.8129C310.867 27.8122 310.867 27.8115 310.867 27.8108C310.867 27.81 310.867 27.8093 310.867 27.8086C310.867 27.8079 310.867 27.8071 310.867 27.8064C310.867 27.8057 310.867 27.805 310.867 27.8043C310.867 27.8035 310.867 27.8028 310.867 27.8021C310.867 27.8014 310.867 27.8006 310.867 27.7999C310.867 27.7992 310.867 27.7985 310.867 27.7977C310.867 27.797 310.867 27.7963 310.867 27.7955C310.867 27.7948 310.867 27.7941 310.867 27.7934C310.867 27.7926 310.867 27.7919 310.867 27.7912C310.867 27.7905 310.867 27.7897 310.867 27.789C310.867 27.7883 310.867 27.7876 310.867 27.7868C310.867 27.7861 310.867 27.7854 310.867 27.7846C310.867 27.7839 310.867 27.7832 310.867 27.7825C310.867 27.7817 310.867 27.781 310.867 27.7803C310.867 27.7795 310.867 27.7788 310.867 27.7781C310.867 27.7774 310.867 27.7766 310.867 27.7759C310.867 27.7752 310.867 27.7744 310.867 27.7737C310.867 27.773 310.867 27.7722 310.867 27.7715C310.867 27.7708 310.867 27.7701 310.867 27.7693C310.867 27.7686 310.867 27.7679 310.867 27.7671C310.867 27.7664 310.867 27.7657 310.867 27.7649L310.304 27.7649C310.304 27.7657 310.304 27.7664 310.304 27.7671C310.304 27.7679 310.304 27.7686 310.304 27.7693C310.304 27.7701 310.304 27.7708 310.304 27.7715C310.304 27.7722 310.304 27.773 310.304 27.7737C310.304 27.7744 310.304 27.7752 310.304 27.7759C310.304 27.7766 310.304 27.7774 310.304 27.7781C310.304 27.7788 310.304 27.7795 310.304 27.7803C310.304 27.781 310.304 27.7817 310.304 27.7825C310.304 27.7832 310.304 27.7839 310.304 27.7846C310.304 27.7854 310.304 27.7861 310.304 27.7868C310.304 27.7876 310.304 27.7883 310.304 27.789C310.304 27.7897 310.304 27.7905 310.304 27.7912C310.304 27.7919 310.304 27.7926 310.304 27.7934C310.304 27.7941 310.304 27.7948 310.304 27.7955C310.304 27.7963 310.304 27.797 310.304 27.7977C310.304 27.7985 310.304 27.7992 310.304 27.7999C310.304 27.8006 310.304 27.8014 310.304 27.8021C310.304 27.8028 310.304 27.8035 310.304 27.8043C310.304 27.805 310.304 27.8057 310.304 27.8064C310.304 27.8071 310.304 27.8079 310.304 27.8086C310.304 27.8093 310.304 27.81 310.304 27.8108C310.304 27.8115 310.304 27.8122 310.304 27.8129C310.304 27.8137 310.304 27.8144 310.304 27.8151C310.304 27.8158 310.304 27.8165 310.304 27.8173C310.304 27.818 310.304 27.8187 310.304 27.8194C310.304 27.8202 310.304 27.8209 310.304 27.8216C310.304 27.8223 310.304 27.823 310.304 27.8238C310.304 27.8245 310.304 27.8252 310.304 27.8259C310.304 27.8266 310.304 27.8274 310.304 27.8281C310.304 27.8288 310.304 27.8295 310.304 27.8302C310.304 27.831 310.304 27.8317 310.304 27.8324C310.304 27.8331 310.304 27.8338 310.304 27.8346C310.304 27.8353 310.304 27.836 310.304 27.8367C310.304 27.8374 310.304 27.8382 310.304 27.8389C310.304 27.8396 310.304 27.8403 310.304 27.841C310.304 27.8417 310.304 27.8425 310.304 27.8432C310.304 27.8439 310.304 27.8446 310.304 27.8453C310.304 27.846 310.304 27.8468 310.304 27.8475C310.304 27.8482 310.304 27.8489 310.304 27.8496C310.304 27.8503 310.304 27.8511 310.304 27.8518C310.304 27.8525 310.304 27.8532 310.304 27.8539C310.304 27.8546 310.304 27.8553 310.304 27.8561C310.304 27.8568 310.304 27.8575 310.304 27.8582C310.304 27.8589 310.304 27.8596 310.304 27.8603C310.304 27.8611 310.304 27.8618 310.304 27.8625C310.304 27.8632 310.304 27.8639 310.304 27.8646C310.304 27.8653 310.304 27.8661 310.304 27.8668C310.304 27.8675 310.304 27.8682 310.304 27.8689C310.304 27.8696 310.304 27.8703 310.304 27.871C310.304 27.8718 310.304 27.8725 310.304 27.8732C310.304 27.8739 310.304 27.8746 310.304 27.8753C310.304 27.876 310.304 27.8767 310.304 27.8774C310.304 27.8782 310.304 27.8789 310.304 27.8796C310.304 27.8803 310.304 27.881 310.304 27.8817C310.304 27.8824 310.304 27.8831 310.304 27.8838C310.304 27.8845 310.304 27.8853 310.304 27.886C310.304 27.8867 310.304 27.8874 310.304 27.8881C310.304 27.8888 310.304 27.8895 310.304 27.8902C310.304 27.8909 310.304 27.8916 310.304 27.8923C310.304 27.893 310.304 27.8938 310.304 27.8945C310.304 27.8952 310.304 27.8959 310.304 27.8966C310.304 27.8973 310.304 27.898 310.304 27.8987C310.304 27.8994 310.304 27.9001 310.304 27.9008C310.304 27.9015 310.304 27.9022 310.304 27.9029C310.304 27.9036 310.304 27.9044 310.304 27.9051C310.304 27.9058 310.304 27.9065 310.304 27.9072C310.304 27.9079 310.304 27.9086 310.304 27.9093C310.304 27.91 310.304 27.9107 310.304 27.9114C310.304 27.9121 310.304 27.9128 310.304 27.9135C310.304 27.9142 310.304 27.9149 310.304 27.9156C310.304 27.9163 310.304 27.917 310.304 27.9177C310.304 27.9184 310.304 27.9191 310.304 27.9198C310.304 27.9205 310.304 27.9212 310.304 27.9219C310.304 27.9226 310.304 27.9233 310.304 27.924C310.304 27.9248 310.304 27.9254 310.304 27.9262C310.304 27.9269 310.304 27.9276 310.304 27.9283C310.304 27.929 310.304 27.9297 310.304 27.9304C310.304 27.9311 310.304 27.9318 310.304 27.9325C310.304 27.9332 310.304 27.9339 310.304 27.9346C310.304 27.9353 310.304 27.936 310.304 27.9367C310.304 27.9374 310.304 27.9381 310.304 27.9388C310.304 27.9394 310.304 27.9402 310.304 27.9408C310.304 27.9415 310.304 27.9422 310.304 27.9429C310.304 27.9436 310.304 27.9443 310.304 27.945C310.304 27.9457 310.304 27.9464 310.304 27.9471C310.304 27.9478 310.304 27.9485 310.304 27.9492C310.304 27.9499 310.304 27.9506 310.304 27.9513C310.304 27.952 310.304 27.9527 310.304 27.9534C310.304 27.9541 310.304 27.9548 310.304 27.9555C310.304 27.9562 310.304 27.9569 310.304 27.9576C310.304 27.9583 310.304 27.959 310.304 27.9597C310.304 27.9604 310.304 27.961 310.304 27.9617C310.304 27.9624 310.304 27.9631 310.304 27.9638C310.304 27.9645 310.304 27.9652 310.304 27.9659C310.304 27.9666 310.304 27.9673 310.304 27.968C310.304 27.9687 310.304 27.9694 310.304 27.9701C310.304 27.9708 310.304 27.9714 310.304 27.9721C310.304 27.9728 310.304 27.9735 310.304 27.9742C310.304 27.9749 310.304 27.9756 310.304 27.9763C310.304 27.977 310.304 27.9777 310.304 27.9784C310.304 27.9791 310.304 27.9797 310.304 27.9804C310.304 27.9811 310.304 27.9818 310.304 27.9825C310.304 27.9832 310.304 27.9839 310.304 27.9846C310.304 27.9853 310.304 27.986 310.304 27.9866C310.304 27.9873 310.304 27.988 310.304 27.9887C310.304 27.9894 310.304 27.9901 310.304 27.9908C310.304 27.9915 310.304 27.9922 310.304 27.9928C310.304 27.9935 310.304 27.9942 310.304 27.9949C310.304 27.9956 310.304 27.9963 310.304 27.997C310.304 27.9977 310.304 27.9983 310.304 27.999C310.304 27.9997 310.304 28.0004 310.304 28.0011C310.304 28.0018 310.304 28.0025 310.304 28.0032C310.304 28.0038 310.304 28.0045 310.304 28.0052C310.304 28.0059 310.304 28.0066 310.304 28.0073C310.304 28.008 310.304 28.0086 310.304 28.0093C310.304 28.01 310.304 28.0107 310.304 28.0114C310.304 28.0121 310.304 28.0127 310.304 28.0134C310.304 28.0141 310.304 28.0148 310.304 28.0155C310.304 28.0162 310.304 28.0168 310.304 28.0175C310.304 28.0182 310.304 28.0189 310.304 28.0196C310.304 28.0203 310.304 28.0209 310.304 28.0216C310.304 28.0223 310.304 28.023 310.304 28.0237C310.304 28.0244 310.304 28.025 310.304 28.0257C310.304 28.0264 310.304 28.0271 310.304 28.0278C310.304 28.0284 310.304 28.0291 310.304 28.0298C310.304 28.0305 310.304 28.0312 310.304 28.0318C310.304 28.0325 310.304 28.0332 310.304 28.0339C310.304 28.0346 310.304 28.0352 310.304 28.0359C310.304 28.0366 310.304 28.0373 310.304 28.038C310.304 28.0386 310.304 28.0393 310.304 28.04C310.304 28.0407 310.304 28.0414 310.304 28.042C310.304 28.0427 310.304 28.0434 310.304 28.0441C310.304 28.0448 310.304 28.0454 310.304 28.0461C310.304 28.0468 310.304 28.0475 310.304 28.0481C310.304 28.0488 310.304 28.0495 310.304 28.0502C310.304 28.0508 310.304 28.0515 310.304 28.0522C310.304 28.0529 310.304 28.0536 310.304 28.0542C310.304 28.0549 310.304 28.0556 310.304 28.0563C310.304 28.0569 310.304 28.0576 310.304 28.0583C310.304 28.059 310.304 28.0596 310.304 28.0603C310.304 28.061 310.304 28.0617 310.304 28.0623C310.304 28.063 310.304 28.0637 310.304 28.0644C310.304 28.065 310.304 28.0657 310.304 28.0664C310.304 28.067 310.304 28.0677 310.304 28.0684C310.304 28.0691 310.304 28.0697 310.304 28.0704C310.304 28.0711 310.304 28.0718 310.304 28.0724C310.304 28.0731 310.304 28.0738 310.304 28.0744C310.304 28.0751 310.304 28.0758 310.304 28.0765C310.304 28.0771 310.304 28.0778 310.304 28.0785C310.304 28.0791 310.304 28.0798 310.304 28.0805C310.304 28.0812 310.304 28.0818 310.304 28.0825C310.304 28.0832 310.304 28.0838 310.304 28.0845C310.304 28.0852 310.304 28.0858 310.304 28.0865C310.304 28.0872 310.304 28.0879 310.304 28.0885C310.304 28.0892 310.304 28.0899 310.304 28.0905C310.304 28.0912 310.304 28.0919 310.304 28.0925C310.304 28.0932 310.304 28.0939 310.304 28.0945C310.304 28.0952 310.304 28.0959 310.304 28.0965C310.304 28.0972 310.304 28.0979 310.304 28.0985C310.304 28.0992 310.304 28.0999 310.304 28.1005C310.304 28.1012 310.304 28.1019 310.304 28.1025C310.304 28.1032 310.304 28.1039 310.304 28.1045C310.304 28.1052 310.304 28.1059 310.304 28.1065C310.304 28.1072 310.304 28.1079 310.304 28.1085C310.304 28.1092 310.304 28.1099 310.304 28.1105C310.304 28.1112 310.304 28.1119 310.304 28.1125C310.304 28.1132 310.304 28.1138 310.304 28.1145C310.304 28.1152 310.304 28.1158 310.304 28.1165C310.304 28.1172 310.304 28.1178 310.304 28.1185C310.304 28.1191 310.304 28.1198 310.304 28.1205C310.304 28.1211 310.304 28.1218 310.304 28.1225C310.304 28.1231 310.304 28.1238 310.304 28.1244C310.304 28.1251 310.304 28.1258 310.304 28.1264C310.304 28.1271 310.304 28.1278 310.304 28.1284C310.304 28.1291 310.304 28.1297 310.304 28.1304C310.304 28.1311 310.304 28.1317 310.304 28.1324C310.304 28.133 310.304 28.1337 310.304 28.1344C310.304 28.135 310.304 28.1357 310.304 28.1363C310.304 28.137 310.304 28.1377 310.304 28.1383C310.304 28.139 310.304 28.1396 310.304 28.1403C310.304 28.1409 310.304 28.1416 310.304 28.1423C310.304 28.1429 310.304 28.1436 310.304 28.1442C310.304 28.1449 310.304 28.1456 310.304 28.1462C310.304 28.1469 310.304 28.1475 310.304 28.1482C310.304 28.1488 310.304 28.1495 310.304 28.1501C310.304 28.1508 310.304 28.1515 310.304 28.1521C310.304 28.1528 310.304 28.1534 310.304 28.1541C310.304 28.1547 310.304 28.1554 310.304 28.156C310.304 28.1567 310.304 28.1574 310.304 28.158C310.304 28.1587 310.304 28.1593 310.304 28.16C310.304 28.1606 310.304 28.1613 310.304 28.1619C310.304 28.1626 310.304 28.1632 310.304 28.1639C310.304 28.1646 310.304 28.1652 310.304 28.1659C310.304 28.1665 310.304 28.1672 310.304 28.1678C310.304 28.1685 310.304 28.1691 310.304 28.1698C310.304 28.1704 310.304 28.1711 310.304 28.1717C310.304 28.1724 310.304 28.173 310.304 28.1737C310.304 28.1743 310.304 28.175 310.304 28.1756C310.304 28.1763 310.304 28.1769 310.304 28.1776C310.304 28.1782 310.304 28.1789 310.304 28.1795C310.304 28.1802 310.304 28.1808 310.304 28.1815C310.304 28.1821 310.304 28.1828 310.304 28.1834C310.304 28.1841 310.304 28.1847 310.304 28.1854C310.304 28.186 310.304 28.1867 310.304 28.1873C310.304 28.188 310.304 28.1886 310.304 28.1893C310.304 28.1899 310.304 28.1906 310.304 28.1912C310.304 28.1919 310.304 28.1925 310.304 28.1932C310.304 28.1938 310.304 28.1945 310.304 28.1951C310.304 28.1958 310.304 28.1964 310.304 28.197C310.304 28.1977 310.304 28.1983 310.304 28.199C310.304 28.1996 310.304 28.2003 310.304 28.2009C310.304 28.2016 310.304 28.2022 310.304 28.2029C310.304 28.2035 310.304 28.2042 310.304 28.2048C310.304 28.2054 310.304 28.2061 310.304 28.2067C310.304 28.2074 310.304 28.208 310.304 28.2087C310.304 28.2093 310.304 28.2099 310.304 28.2106C310.304 28.2112 310.304 28.2119 310.304 28.2125C310.304 28.2132 310.304 28.2138 310.304 28.2145C310.304 28.2151 310.304 28.2157 310.304 28.2164C310.304 28.217 310.304 28.2177 310.304 28.2183C310.304 28.219 310.304 28.2196 310.304 28.2202C310.304 28.2209 310.304 28.2215 310.304 28.2222C310.304 28.2228 310.304 28.2234 310.304 28.2241C310.304 28.2247 310.304 28.2254 310.304 28.226C310.304 28.2266 310.304 28.2273 310.304 28.2279C310.304 28.2286 310.304 28.2292 310.304 28.2298C310.304 28.2305 310.304 28.2311 310.304 28.2318C310.304 28.2324 310.304 28.233 310.304 28.2337C310.304 28.2343 310.304 28.235 310.304 28.2356C310.304 28.2362 310.304 28.2369 310.304 28.2375C310.304 28.2381 310.304 28.2388 310.304 28.2394C310.304 28.2401 310.304 28.2407 310.304 28.2413C310.304 28.242 310.304 28.2426 310.304 28.2432C310.304 28.2439 310.304 28.2445 310.304 28.2452C310.304 28.2458 310.304 28.2464 310.304 28.2471C310.304 28.2477 310.304 28.2483 310.304 28.249C310.304 28.2496 310.304 28.2502 310.304 28.2509C310.304 28.2515 310.304 28.2521 310.304 28.2528C310.304 28.2534 310.304 28.254 310.304 28.2547C310.304 28.2553 310.304 28.256 310.304 28.2566C310.304 28.2572 310.304 28.2579 310.304 28.2585C310.304 28.2591 310.304 28.2598 310.304 28.2604C310.304 28.261 310.304 28.2617 310.304 28.2623C310.304 28.2629 310.304 28.2636 310.304 28.2642C310.304 28.2648 310.304 28.2654 310.304 28.2661C310.304 28.2667 310.304 28.2673 310.304 28.268C310.304 28.2686 310.304 28.2692 310.304 28.2699C310.304 28.2705 310.304 28.2711 310.304 28.2718C310.304 28.2724 310.304 28.273 310.304 28.2736C310.304 28.2743 310.304 28.2749 310.304 28.2755C310.304 28.2762 310.304 28.2768 310.304 28.2774C310.304 28.2781 310.304 28.2787 310.304 28.2793C310.304 28.2799 310.304 28.2806 310.304 28.2812C310.304 28.2818 310.304 28.2825 310.304 28.2831C310.304 28.2837 310.304 28.2843 310.304 28.285C310.304 28.2856 310.304 28.2862 310.304 28.2869C310.304 28.2875 310.304 28.2881 310.304 28.2887C310.304 28.2894 310.304 28.29 310.304 28.2906C310.304 28.2912 310.304 28.2919 310.304 28.2925C310.304 28.2931 310.304 28.2937 310.304 28.2944C310.304 28.295 310.304 28.2956 310.304 28.2962C310.304 28.2969 310.304 28.2975 310.304 28.2981C310.304 28.2987 310.304 28.2994 310.304 28.3C310.304 28.3006 310.304 28.3012 310.304 28.3019C310.304 28.3025 310.304 28.3031 310.304 28.3037C310.304 28.3044 310.304 28.305 310.304 28.3056C310.304 28.3062 310.304 28.3069 310.304 28.3075C310.304 28.3081 310.304 28.3087 310.304 28.3093C310.304 28.31 310.304 28.3106 310.304 28.3112C310.304 28.3118 310.304 28.3125 310.304 28.3131C310.304 28.3137 310.304 28.3143 310.304 28.3149C310.304 28.3156 310.304 28.3162 310.304 28.3168C310.304 28.3174 310.304 28.318 310.304 28.3187C310.304 28.3193 310.304 28.3199 310.304 28.3205C310.304 28.3211 310.304 28.3218 310.304 28.3224C310.304 28.323 310.304 28.3236 310.304 28.3242C310.304 28.3249 310.304 28.3255 310.304 28.3261C310.304 28.3267 310.304 28.3273 310.304 28.328C310.304 28.3286 310.304 28.3292 310.304 28.3298C310.304 28.3304 310.304 28.331 310.304 28.3317C310.304 28.3323 310.304 28.3329 310.304 28.3335C310.304 28.3341 310.304 28.3348 310.304 28.3354C310.304 28.336 310.304 28.3366 310.304 28.3372C310.304 28.3378 310.304 28.3385 310.304 28.3391C310.304 28.3397 310.304 28.3403 310.304 28.3409C310.304 28.3415 310.304 28.3421 310.304 28.3428C310.304 28.3434 310.304 28.344 310.304 28.3446C310.304 28.3452 310.304 28.3458 310.304 28.3464C310.304 28.3471 310.304 28.3477 310.304 28.3483C310.304 28.3489 310.304 28.3495 310.304 28.3501C310.304 28.3507 310.304 28.3514 310.304 28.352C310.304 28.3526 310.304 28.3532 310.304 28.3538C310.304 28.3544 310.304 28.355 310.304 28.3556C310.304 28.3563 310.304 28.3569 310.304 28.3575C310.304 28.3581 310.304 28.3587 310.304 28.3593C310.304 28.3599 310.304 28.3605 310.304 28.3611C310.304 28.3618 310.304 28.3624 310.304 28.363C310.304 28.3636 310.304 28.3642 310.304 28.3648C310.304 28.3654 310.304 28.366 310.304 28.3666C310.304 28.3673 310.304 28.3679 310.304 28.3685C310.304 28.3691 310.304 28.3697 310.304 28.3703C310.304 28.3709 310.304 28.3715 310.304 28.3721C310.304 28.3727 310.304 28.3733 310.304 28.374C310.304 28.3746 310.304 28.3752 310.304 28.3758C310.304 28.3764 310.304 28.377 310.304 28.3776C310.304 28.3782 310.304 28.3788 310.304 28.3794C310.304 28.38 310.304 28.3806 310.304 28.3812C310.304 28.3818 310.304 28.3825 310.304 28.3831C310.304 28.3837 310.304 28.3843 310.304 28.3849C310.304 28.3855 310.304 28.3861 310.304 28.3867C310.304 28.3873 310.304 28.3879 310.304 28.3885C310.304 28.3891 310.304 28.3897 310.304 28.3903C310.304 28.3909 310.304 28.3915 310.304 28.3921C310.304 28.3927 310.304 28.3933 310.304 28.3939C310.304 28.3945 310.304 28.3951 310.304 28.3958C310.304 28.3964 310.304 28.397 310.304 28.3976C310.304 28.3982 310.304 28.3988 310.304 28.3994C310.304 28.4 310.304 28.4006 310.304 28.4012C310.304 28.4018 310.304 28.4024 310.304 28.403C310.304 28.4036 310.304 28.4042 310.304 28.4048C310.304 28.4054 310.304 28.406 310.304 28.4066C310.304 28.4072 310.304 28.4078 310.304 28.4084C310.304 28.409 310.304 28.4096 310.304 28.4102C310.304 28.4108 310.304 28.4114 310.304 28.412C310.304 28.4126 310.304 28.4132 310.304 28.4138C310.304 28.4144 310.304 28.415 310.304 28.4156C310.304 28.4162 310.304 28.4168 310.304 28.4174C310.304 28.418 310.304 28.4186 310.304 28.4192C310.304 28.4198 310.304 28.4204 310.304 28.421C310.304 28.4216 310.304 28.4222 310.304 28.4228C310.304 28.4234 310.304 28.424 310.304 28.4246C310.304 28.4251 310.304 28.4257 310.304 28.4263C310.304 28.4269 310.304 28.4275 310.304 28.4281C310.304 28.4287 310.304 28.4293 310.304 28.4299C310.304 28.4305 310.304 28.4311 310.304 28.4317C310.304 28.4323 310.304 28.4329 310.304 28.4335C310.304 28.4341 310.304 28.4347 310.304 28.4353C310.304 28.4359 310.304 28.4365 310.304 28.4371C310.304 28.4376 310.304 28.4382 310.304 28.4388C310.304 28.4394 310.304 28.44 310.304 28.4406C310.304 28.4412 310.304 28.4418 310.304 28.4424C310.304 28.443 310.304 28.4436 310.304 28.4442C310.304 28.4448 310.304 28.4454 310.304 28.4459C310.304 28.4465 310.304 28.4471 310.304 28.4477C310.304 28.4483 310.304 28.4489 310.304 28.4495C310.304 28.4501 310.304 28.4507 310.304 28.4513C310.304 28.4519 310.304 28.4524 310.304 28.453C310.304 28.4536 310.304 28.4542 310.304 28.4548C310.304 28.4554 310.304 28.456 310.304 28.4566C310.304 28.4572 310.304 28.4578 310.304 28.4583C310.304 28.4589 310.304 28.4595 310.304 28.4601C310.304 28.4607 310.304 28.4613 310.304 28.4619C310.304 28.4625 310.304 28.463 310.304 28.4636C310.304 28.4642 310.304 28.4648 310.304 28.4654C310.304 28.466 310.304 28.4666 310.304 28.4672C310.304 28.4677 310.304 28.4683 310.304 28.4689C310.304 28.4695 310.304 28.4701 310.304 28.4707C310.304 28.4713 310.304 28.4719 310.304 28.4724C310.304 28.473 310.304 28.4736 310.304 28.4742C310.304 28.4748 310.304 28.4754 310.304 28.4759C310.304 28.4765 310.304 28.4771 310.304 28.4777C310.304 28.4783 310.304 28.4789 310.304 28.4795C310.304 28.48 310.304 28.4806 310.304 28.4812C310.304 28.4818 310.304 28.4824 310.304 28.483C310.304 28.4835 310.304 28.4841 310.304 28.4847C310.304 28.4853 310.304 28.4859 310.304 28.4865C310.304 28.487 310.304 28.4876 310.304 28.4882C310.304 28.4888 310.304 28.4894 310.304 28.4899C310.304 28.4905 310.304 28.4911 310.304 28.4917C310.304 28.4923 310.304 28.4929 310.304 28.4934C310.304 28.494 310.304 28.4946 310.304 28.4952C310.304 28.4958 310.304 28.4963 310.304 28.4969C310.304 28.4975 310.304 28.4981 310.304 28.4987C310.304 28.4992 310.304 28.4998 310.304 28.5004C310.304 28.501 310.304 28.5015 310.304 28.5021C310.304 28.5027 310.304 28.5033 310.304 28.5039C310.304 28.5044 310.304 28.505 310.304 28.5056C310.304 28.5062 310.304 28.5068 310.304 28.5073C310.304 28.5079 310.304 28.5085 310.304 28.5091C310.304 28.5096 310.304 28.5102 310.304 28.5108C310.304 28.5114 310.304 28.5119 310.304 28.5125C310.304 28.5131 310.304 28.5137 310.304 28.5143C310.304 28.5148 310.304 28.5154 310.304 28.516C310.304 28.5166 310.304 28.5171 310.304 28.5177C310.304 28.5183 310.304 28.5189 310.304 28.5194C310.304 28.52 310.304 28.5206 310.304 28.5212C310.304 28.5217 310.304 28.5223 310.304 28.5229C310.304 28.5234 310.304 28.524 310.304 28.5246C310.304 28.5252 310.304 28.5257 310.304 28.5263C310.304 28.5269 310.304 28.5275 310.304 28.528C310.304 28.5286 310.304 28.5292 310.304 28.5297C310.304 28.5303 310.304 28.5309 310.304 28.5315C310.304 28.532 310.304 28.5326 310.304 28.5332C310.304 28.5338 310.304 28.5343 310.304 28.5349C310.304 28.5355 310.304 28.536 310.304 28.5366C310.304 28.5372 310.304 28.5377 310.304 28.5383C310.304 28.5389 310.304 28.5395 310.304 28.54C310.304 28.5406 310.304 28.5412 310.304 28.5417C310.304 28.5423 310.304 28.5429 310.304 28.5434C310.304 28.544 310.304 28.5446 310.304 28.5451C310.304 28.5457 310.304 28.5463 310.304 28.5469C310.304 28.5474 310.304 28.548 310.304 28.5486C310.304 28.5491 310.304 28.5497 310.304 28.5503C310.304 28.5508 310.304 28.5514 310.304 28.552C310.304 28.5525 310.304 28.5531 310.304 28.5537C310.304 28.5542 310.304 28.5548 310.304 28.5554C310.304 28.5559 310.304 28.5565 310.304 28.5571C310.304 28.5576 310.304 28.5582 310.304 28.5588C310.304 28.5593 310.304 28.5599 310.304 28.5604C310.304 28.561 310.304 28.5616 310.304 28.5621C310.304 28.5627 310.304 28.5633 310.304 28.5638C310.304 28.5644 310.304 28.565 310.304 28.5655C310.304 28.5661 310.304 28.5667 310.304 28.5672C310.304 28.5678 310.304 28.5683 310.304 28.5689C310.304 28.5695 310.304 28.57 310.304 28.5706C310.304 28.5712 310.304 28.5717 310.304 28.5723C310.304 28.5728 310.304 28.5734 310.304 28.574C310.304 28.5745 310.304 28.5751 310.304 28.5756C310.304 28.5762 310.304 28.5768 310.304 28.5773C310.304 28.5779 310.304 28.5785 310.304 28.579C310.304 28.5796 310.304 28.5801 310.304 28.5807C310.304 28.5813 310.304 28.5818 310.304 28.5824C310.304 28.5829 310.304 28.5835 310.304 28.584C310.304 28.5846 310.304 28.5852 310.304 28.5857C310.304 28.5863 310.304 28.5868 310.304 28.5874C310.304 28.588 310.304 28.5885 310.304 28.5891C310.304 28.5896 310.304 28.5902 310.304 28.5908C310.304 28.5913 310.304 28.5919 310.304 28.5924C310.304 28.593 310.304 28.5935 310.304 28.5941C310.304 28.5947 310.304 28.5952 310.304 28.5958C310.304 28.5963 310.304 28.5969 310.304 28.5974C310.304 28.598 310.304 28.5985 310.304 28.5991C310.304 28.5997 310.304 28.6002 310.304 28.6008C310.304 28.6013 310.304 28.6019 310.304 28.6024C310.304 28.603 310.304 28.6035 310.304 28.6041C310.304 28.6046 310.304 28.6052 310.304 28.6058C310.304 28.6063 310.304 28.6069 310.304 28.6074C310.304 28.608 310.304 28.6085 310.304 28.6091C310.304 28.6096 310.304 28.6102 310.304 28.6107C310.304 28.6113 310.304 28.6118 310.304 28.6124C310.304 28.6129 310.304 28.6135 310.304 28.614C310.304 28.6146 310.304 28.6151 310.304 28.6157C310.304 28.6162 310.304 28.6168 310.304 28.6174C310.304 28.6179 310.304 28.6185 310.304 28.619C310.304 28.6196 310.304 28.6201 310.304 28.6207C310.304 28.6212 310.304 28.6218 310.304 28.6223C310.304 28.6229 310.304 28.6234 310.304 28.624C310.304 28.6245 310.304 28.6251 310.304 28.6256C310.304 28.6261 310.304 28.6267 310.304 28.6272C310.304 28.6278 310.304 28.6283 310.304 28.6289C310.304 28.6294 310.304 28.63 310.304 28.6305C310.304 28.6311 310.304 28.6316 310.304 28.6322C310.304 28.6327 310.304 28.6333 310.304 28.6338C310.304 28.6344 310.304 28.6349 310.304 28.6355C310.304 28.636 310.304 28.6366 310.304 28.6371C310.304 28.6376 310.304 28.6382 310.304 28.6387C310.304 28.6393 310.304 28.6398 310.304 28.6404C310.304 28.6409 310.304 28.6415 310.304 28.642C310.304 28.6426 310.304 28.6431 310.304 28.6436C310.304 28.6442 310.304 28.6447 310.304 28.6453C310.304 28.6458 310.304 28.6464 310.304 28.6469C310.304 28.6474 310.304 28.648 310.304 28.6485C310.304 28.6491 310.304 28.6496 310.304 28.6502C310.304 28.6507 310.304 28.6512 310.304 28.6518C310.304 28.6523 310.304 28.6529 310.304 28.6534C310.304 28.654 310.304 28.6545 310.304 28.655C310.304 28.6556 310.304 28.6561 310.304 28.6567C310.304 28.6572 310.304 28.6577 310.304 28.6583C310.304 28.6588 310.304 28.6594 310.304 28.6599C310.304 28.6605 310.304 28.661 310.304 28.6615C310.304 28.6621 310.304 28.6626 310.304 28.6632C310.304 28.6637 310.304 28.6642 310.304 28.6648C310.304 28.6653 310.304 28.6658 310.304 28.6664C310.304 28.6669 310.304 28.6675 310.304 28.668C310.304 28.6685 310.304 28.6691 310.304 28.6696C310.304 28.6702 310.304 28.6707 310.304 28.6712C310.304 28.6718 310.304 28.6723 310.304 28.6728C310.304 28.6734 310.304 28.6739 310.304 28.6745C310.304 28.675 310.304 28.6755 310.304 28.6761C310.304 28.6766 310.304 28.6771 310.304 28.6777C310.304 28.6782 310.304 28.6787 310.304 28.6793C310.304 28.6798 310.304 28.6803 310.304 28.6809C310.304 28.6814 310.304 28.6819 310.304 28.6825C310.304 28.683 310.304 28.6836 310.304 28.6841C310.304 28.6846 310.304 28.6852 310.304 28.6857C310.304 28.6862 310.304 28.6868 310.304 28.6873C310.304 28.6878 310.304 28.6884 310.304 28.6889C310.304 28.6894 310.304 28.69 310.304 28.6905C310.304 28.691 310.304 28.6916 310.304 28.6921C310.304 28.6926 310.304 28.6931 310.304 28.6937C310.304 28.6942 310.304 28.6947 310.304 28.6953C310.304 28.6958 310.304 28.6963 310.304 28.6969C310.304 28.6974 310.304 28.6979 310.304 28.6985C310.304 28.699 310.304 28.6995 310.304 28.7001C310.304 28.7006 310.304 28.7011 310.304 28.7016C310.304 28.7022 310.304 28.7027 310.304 28.7032C310.304 28.7038 310.304 28.7043 310.304 28.7048C310.304 28.7053 310.304 28.7059 310.304 28.7064C310.304 28.7069 310.304 28.7075 310.304 28.708C310.304 28.7085 310.304 28.709 310.304 28.7096C310.304 28.7101 310.304 28.7106 310.304 28.7112C310.304 28.7117 310.304 28.7122 310.304 28.7127C310.304 28.7133 310.304 28.7138 310.304 28.7143C310.304 28.7148 310.304 28.7154 310.304 28.7159C310.304 28.7164 310.304 28.7169 310.304 28.7175C310.304 28.718 310.304 28.7185 310.304 28.719C310.304 28.7196 310.304 28.7201 310.304 28.7206C310.304 28.7211 310.304 28.7217 310.304 28.7222C310.304 28.7227 310.304 28.7232 310.304 28.7238C310.304 28.7243 310.304 28.7248 310.304 28.7253C310.304 28.7259 310.304 28.7264 310.304 28.7269C310.304 28.7274 310.304 28.728 310.304 28.7285L310.867 28.7285ZM310.867 27.7649C310.867 25.3647 311.596 23.3161 313.049 21.6038L312.619 21.2393C311.074 23.0601 310.304 25.2403 310.304 27.7649L310.867 27.7649ZM313.051 21.6007C314.511 19.8283 316.578 18.4622 319.271 17.5119L319.084 16.9805C316.316 17.9572 314.155 19.3747 312.616 21.2425L313.051 21.6007ZM319.271 17.5119C321.964 16.5613 325.117 16.0826 328.733 16.0826L328.733 15.5191C325.068 15.5191 321.85 16.004 319.084 16.9805L319.271 17.5119ZM328.733 16.0826C332.618 16.0826 335.846 16.5885 338.427 17.5892L338.63 17.0638C335.965 16.0302 332.662 15.5191 328.733 15.5191L328.733 16.0826ZM338.429 17.5898C341.062 18.5907 343.047 20.0584 344.401 21.985L344.862 21.6611C343.432 19.6264 341.348 18.0965 338.629 17.0631L338.429 17.5898ZM344.404 21.9891C345.806 23.9116 346.517 26.339 346.517 29.2906L347.081 29.2906C347.081 26.2467 346.346 23.6957 344.859 21.657L344.404 21.9891ZM346.517 29.2906L346.517 48.4812L347.081 48.4812L347.081 29.2906L346.517 29.2906ZM346.517 48.4812C346.517 49.4963 346.801 50.307 347.414 50.8587L347.79 50.4398C347.333 50.0279 347.081 49.3933 347.081 48.4812L346.517 48.4812ZM347.436 50.8771C348.071 51.3386 348.771 51.5733 349.529 51.5733L349.529 51.0099C348.896 51.0099 348.311 50.8163 347.768 50.4214L347.436 50.8771ZM349.529 51.5733L352.179 51.5733L352.179 51.0099L349.529 51.0099L349.529 51.5733ZM351.897 51.2916L351.897 58.5985L352.461 58.5985L352.461 51.2916L351.897 51.2916ZM352.053 58.3465C351.547 58.5993 350.743 58.861 349.624 59.1274L349.755 59.6756C350.885 59.4066 351.74 59.133 352.305 58.8505L352.053 58.3465ZM349.612 59.1306C348.521 59.4425 347.183 59.6015 345.595 59.6015L345.595 60.165C347.218 60.165 348.61 60.0029 349.767 59.6724L349.612 59.1306ZM345.595 59.6015C344.071 59.6015 342.715 59.3652 341.522 58.8982L341.317 59.423C342.586 59.9196 344.013 60.165 345.595 60.165L345.595 59.6015ZM341.516 58.8958C340.372 58.4802 339.418 57.8855 338.648 57.1146L338.249 57.513C339.084 58.348 340.111 58.9845 341.323 59.4254L341.516 58.8958ZM338.654 57.1211C337.884 56.2995 337.343 55.3236 337.034 54.1884L336.49 54.3367C336.823 55.5569 337.407 56.6151 338.243 57.5065L338.654 57.1211ZM336.762 53.9808L336.2 53.9808L336.2 54.5443L336.762 54.5443L336.762 53.9808ZM335.981 54.0853C335.092 55.1837 333.991 56.1544 332.676 56.9962L332.979 57.4708C334.341 56.5996 335.488 55.5896 336.419 54.4398L335.981 54.0853ZM332.671 56.9991C331.416 57.836 329.919 58.4938 328.177 58.9691L328.325 59.5127C330.115 59.0244 331.67 58.344 332.984 57.4679L332.671 56.9991ZM328.174 58.9697C326.492 59.4429 324.538 59.6818 322.309 59.6818L322.309 60.2453C324.576 60.2453 326.584 60.0024 328.327 59.5121L328.174 58.9697ZM326.083 51.8142C327.608 51.8142 328.98 51.5963 330.194 51.1549L330.001 50.6253C328.86 51.0404 327.555 51.2508 326.083 51.2508L326.083 51.8142ZM330.204 51.1509C331.409 50.6582 332.429 50.0254 333.261 49.2493L332.876 48.8374C332.102 49.5601 331.142 50.1585 329.991 50.6294L330.204 51.1509ZM333.268 49.2425C334.1 48.4098 334.737 47.412 335.179 46.253L334.652 46.0524C334.237 47.1416 333.642 48.0709 332.869 48.8441L333.268 49.2425ZM335.174 46.2637C335.672 45.1027 335.92 43.8603 335.92 42.5394L335.356 42.5394C335.356 43.7879 335.122 44.9544 334.656 46.0417L335.174 46.2637ZM335.92 42.5394L335.92 40.2108L335.356 40.2108L335.356 42.5394L335.92 42.5394ZM335.638 39.929C332.627 39.929 329.933 40.144 327.558 40.576L327.659 41.1303C329.994 40.7058 332.653 40.4925 335.638 40.4925L335.638 39.929ZM327.564 40.5749C325.183 40.9537 323.265 41.6336 321.827 42.6289L322.148 43.0922C323.494 42.1604 325.323 41.502 327.653 41.1314L327.564 40.5749ZM321.823 42.6319C320.408 43.6508 319.699 45.0759 319.699 46.8753L320.262 46.8753C320.262 45.2488 320.891 43.9974 322.152 43.0892L321.823 42.6319ZM319.699 46.8753C319.699 47.888 319.953 48.7755 320.471 49.5249L320.935 49.2041C320.49 48.5617 320.262 47.7898 320.262 46.8753L319.699 46.8753ZM320.471 49.5249C320.989 50.2723 321.731 50.839 322.683 51.2309L322.898 50.7099C322.03 50.3524 321.381 49.8485 320.935 49.2041L320.471 49.5249ZM322.683 51.2309C323.636 51.6232 324.772 51.8142 326.083 51.8142L326.083 51.2508C324.824 51.2508 323.765 51.067 322.898 50.7099L322.683 51.2309ZM357.726 10.5816L357.444 10.5816L357.444 10.8634L357.726 10.8634L357.726 10.5816ZM357.726 0.946128L357.726 0.664388L357.444 0.664388L357.444 0.946128L357.726 0.946128ZM368.887 0.946128L369.168 0.946128L369.168 0.664388L368.887 0.664388L368.887 0.946128ZM368.887 10.5816L368.887 10.8634L369.168 10.8634L369.168 10.5816L368.887 10.5816ZM357.726 59L357.444 59L357.444 59.2817L357.726 59.2817L357.726 59ZM357.726 16.7644L357.726 16.4827L357.444 16.4827L357.444 16.7644L357.726 16.7644ZM368.887 16.7644L369.168 16.7644L369.168 16.4827L368.887 16.4827L368.887 16.7644ZM368.887 59L368.887 59.2817L369.168 59.2817L369.168 59L368.887 59ZM358.007 10.5816L358.007 0.946128L357.444 0.946128L357.444 10.5816L358.007 10.5816ZM357.726 1.22787L368.887 1.22787L368.887 0.664388L357.726 0.664388L357.726 1.22787ZM368.605 0.946128L368.605 10.5816L369.168 10.5816L369.168 0.946128L368.605 0.946128ZM368.887 10.2999L357.726 10.2999L357.726 10.8634L368.887 10.8634L368.887 10.2999ZM358.007 59L358.007 16.7644L357.444 16.7644L357.444 59L358.007 59ZM357.726 17.0461L368.887 17.0461L368.887 16.4827L357.726 16.4827L357.726 17.0461ZM368.605 16.7644L368.605 59L369.168 59L369.168 16.7644L368.605 16.7644ZM368.887 58.7183L357.726 58.7183L357.726 59.2817L368.887 59.2817L368.887 58.7183ZM379.133 59L378.851 59L378.851 59.2817L379.133 59.2817L379.133 59ZM379.133 16.7644L379.133 16.4827L378.851 16.4827L378.851 16.7644L379.133 16.7644ZM388.367 16.7644L388.645 16.7219L388.609 16.4827L388.367 16.4827L388.367 16.7644ZM389.25 22.5457L388.971 22.5883L389.008 22.8274L389.25 22.8274L389.25 22.5457ZM389.812 22.5457L389.812 22.8274L389.96 22.8274L390.044 22.7061L389.812 22.5457ZM393.265 18.9324L393.098 18.7049L393.094 18.7081L393.265 18.9324ZM397.922 16.6038L398.006 16.8727L397.922 16.6038ZM410.849 17.3265L410.973 17.0732L410.849 17.3265ZM415.667 22.1442L415.416 22.2727L415.419 22.2774L415.667 22.1442ZM417.434 59L417.434 59.2817L417.715 59.2817L417.715 59L417.434 59ZM406.273 59L405.991 59L405.991 59.2817L406.273 59.2817L406.273 59ZM405.791 29.13L405.523 29.2191L405.525 29.2237L405.791 29.13ZM404.345 26.8014L404.138 26.9918L404.146 27.0008L404.155 27.0091L404.345 26.8014ZM402.097 25.4364L402.177 25.1661L402.097 25.4364ZM394.549 26.2393L394.404 25.9977L394.549 26.2393ZM390.294 59L390.294 59.2817L390.575 59.2817L390.575 59L390.294 59ZM379.414 59L379.414 16.7644L378.851 16.7644L378.851 59L379.414 59ZM379.133 17.0461L388.367 17.0461L388.367 16.4827L379.133 16.4827L379.133 17.0461ZM388.088 16.807L388.971 22.5883L389.528 22.5032L388.645 16.7219L388.088 16.807ZM389.25 22.8274L389.812 22.8274L389.812 22.264L389.25 22.264L389.25 22.8274ZM390.044 22.7061C390.99 21.3385 392.121 20.1557 393.435 19.1567L393.094 18.7081C391.732 19.7432 390.561 20.9693 389.58 22.3853L390.044 22.7061ZM393.431 19.1599C394.797 18.1618 396.321 17.3992 398.006 16.8727L397.838 16.3349C396.096 16.879 394.516 17.6689 393.098 18.7049L393.431 19.1599ZM398.006 16.8727C399.688 16.347 401.533 16.0826 403.542 16.0826L403.542 15.5191C401.484 15.5191 399.581 15.79 397.838 16.3349L398.006 16.8727ZM403.542 16.0826C406.292 16.0826 408.684 16.5848 410.726 17.5798L410.973 17.0732C408.84 16.034 406.36 15.5191 403.542 15.5191L403.542 16.0826ZM410.726 17.5798C412.755 18.5684 414.318 20.1286 415.416 22.2727L415.918 22.0158C414.768 19.7703 413.119 18.1187 410.973 17.0732L410.726 17.5798ZM415.419 22.2774C416.567 24.4177 417.152 27.2311 417.152 30.7359L417.715 30.7359C417.715 27.1747 417.122 24.2603 415.915 22.011L415.419 22.2774ZM417.152 30.7359L417.152 59L417.715 59L417.715 30.7359L417.152 30.7359ZM417.434 58.7183L406.273 58.7183L406.273 59.2817L417.434 59.2817L417.434 58.7183ZM406.554 59L406.554 32.5024L405.991 32.5024L405.991 59L406.554 59ZM406.554 32.5024C406.554 31.1436 406.391 29.9855 406.056 29.0362L405.525 29.2237C405.832 30.0945 405.991 31.1846 405.991 32.5024L406.554 32.5024ZM406.058 29.0409C405.724 28.0395 405.219 27.2199 404.536 26.5937L404.155 27.0091C404.757 27.5606 405.215 28.2934 405.523 29.2191L406.058 29.0409ZM404.553 26.611C403.927 25.9275 403.131 25.4469 402.177 25.1661L402.018 25.7066C402.883 25.9611 403.587 26.3905 404.138 26.9918L404.553 26.611ZM402.177 25.1661C401.237 24.8896 400.192 24.7531 399.046 24.7531L399.046 25.3166C400.148 25.3166 401.138 25.4478 402.018 25.7066L402.177 25.1661ZM399.046 24.7531C397.339 24.7531 395.789 25.1668 394.404 25.9977L394.694 26.4809C395.986 25.7059 397.434 25.3166 399.046 25.3166L399.046 24.7531ZM394.404 25.9977C393.022 26.8271 391.943 27.9621 391.17 29.3979L391.666 29.665C392.392 28.3172 393.4 27.2574 394.694 26.4809L394.404 25.9977ZM391.17 29.3979C390.395 30.8365 390.012 32.4896 390.012 34.3492L390.575 34.3492C390.575 32.5687 390.942 31.0099 391.666 29.665L391.17 29.3979ZM390.012 34.3492L390.012 59L390.575 59L390.575 34.3492L390.012 34.3492ZM390.294 58.7183L379.133 58.7183L379.133 59.2817L390.294 59.2817L390.294 58.7183Z" fill="url(#paint0_linear_30_2144)"/>
<defs>
<linearGradient id="paint0_linear_30_2144" x1="208.5" y1="-11" x2="208.5" y2="76" gradientUnits="userSpaceOnUse">
<stop offset="0.35974" stop-color="#2CABA3"/>
<stop offset="0.87516" stop-color="#15615C" stop-opacity="0"/>
</linearGradient>
</defs>
</svg>
