<svg width="33" height="37" viewBox="0 0 33 37" fill="none" xmlns="http://www.w3.org/2000/svg">
<path fill-rule="evenodd" clip-rule="evenodd" d="M15.3243 0.249643C12.5705 0.677463 9.68254 1.79573 7.51199 3.27457C6.27516 4.1172 4.30307 6.05929 3.39049 7.33335C-0.952237 13.3968 -1.14364 22.3815 2.93448 28.7388C7.88559 36.4571 18.3993 39.2328 26.906 35.0674C28.6399 34.2183 30.1203 33.1962 31.8806 31.6325L32.6939 30.9101L29.7681 27.9766L26.8422 25.0432L26.0391 25.7833C24.7994 26.9262 23.3804 27.7959 21.918 28.3094C20.1004 28.9474 17.2299 28.9902 15.3425 28.4075C13.8818 27.9566 12.2144 27.0048 11.2075 26.0474C7.92011 22.9218 7.17111 17.1486 9.51662 13.0141C10.2992 11.6349 11.8817 10.1239 13.2667 9.43359C14.9816 8.57886 16.3298 8.28081 18.5056 8.27557C21.5088 8.26834 23.4831 9.04518 26.2365 11.3177L26.9354 11.8944L29.8147 9.00053L32.6939 6.10682L31.6998 5.20564C27.1062 1.0413 21.3814 -0.691129 15.3243 0.249643ZM16.744 12.5288C14.8392 13.0076 13.0991 14.5962 12.4434 16.4549C12.2983 16.8661 12.1795 17.8226 12.1797 18.5807C12.1797 19.725 12.2677 20.1427 12.6981 21.0431C13.7252 23.1918 15.5912 24.4303 17.9633 24.5378C19.84 24.6229 21.1401 24.1257 22.44 22.8256C23.6703 21.5953 24.1467 20.5289 24.2509 18.7733C24.3194 17.6179 24.2626 17.2359 23.8825 16.295C22.9468 13.9784 21.1491 12.6546 18.5704 12.383C18.0875 12.3322 17.2655 12.3978 16.744 12.5288Z" fill="#40EDB7"/>
<ellipse cx="18.4383" cy="18.4359" rx="6.14529" ry="6.14529" fill="#40EDB7"/>
</svg>
