<svg width="37" height="37" viewBox="0 0 37 37" fill="none" xmlns="http://www.w3.org/2000/svg">
<path fill-rule="evenodd" clip-rule="evenodd" d="M16.8552 0.0445115C12.3182 0.486777 8.30987 2.42133 5.15511 5.69135C2.99986 7.92537 1.48171 10.582 0.671466 13.5377C-0.201358 16.7211 -0.22311 19.8886 0.605343 23.1428C0.933573 24.4319 1.26303 25.3046 1.93835 26.6735C3.94467 30.7401 7.34744 33.8936 11.6038 35.6309C13.8847 36.5618 16.6964 37.0496 19.1746 36.9443C25.2306 36.6869 30.5813 33.6588 33.9705 28.5711C34.5485 27.7035 35.4973 25.821 35.8687 24.8049C36.7136 22.4937 37.1069 19.7191 36.9328 17.297C36.8339 15.9203 36.7025 15.1024 36.3709 13.7998C36.0463 12.5249 35.7158 11.6502 35.0369 10.2692C34.0688 8.29985 32.9102 6.72251 31.2681 5.1383C29.7921 3.71438 28.4934 2.80571 26.618 1.88497C24.8133 0.998851 23.1467 0.474926 21.1981 0.181094C20.1147 0.0177732 17.858 -0.0531917 16.8552 0.0445115ZM22.9633 9.41173C23.1013 9.58711 23.1131 9.69739 23.1131 10.8129C23.1131 12.4428 23.1915 12.3529 21.7285 12.4024C20.571 12.4418 20.3464 12.498 20.0529 12.8224C19.78 13.1239 19.7231 13.4687 19.7198 14.84L19.7166 16.1588H21.2939H22.8711L23.0416 16.3403L23.2121 16.5217L23.0454 17.9482C22.9538 18.7327 22.8483 19.4331 22.8109 19.5046C22.693 19.7301 22.4163 19.7721 21.0489 19.7721H19.7166V23.6332C19.7166 27.0468 19.7035 27.5073 19.6031 27.6078C19.5071 27.7037 19.256 27.7213 17.9812 27.7213C16.5184 27.7213 16.4696 27.7166 16.3637 27.5655C16.2683 27.4293 16.2602 26.9292 16.299 23.5962L16.3434 19.7826L15.219 19.7593C13.6783 19.7273 13.7909 19.8692 13.7909 17.9595V16.4583L13.9813 16.3086C14.1536 16.173 14.2691 16.1588 15.1987 16.1588H16.2258L16.2687 14.4786C16.3168 12.5948 16.4171 12.0254 16.8423 11.2221C17.1508 10.6392 17.8305 9.96485 18.3802 9.69602C19.1654 9.31214 19.6639 9.23251 21.3193 9.22665L22.8136 9.22131L22.9633 9.41173Z" fill="#40EDB7"/>
</svg>
