<svg width="383" height="49" viewBox="0 0 383 49" fill="none" xmlns="http://www.w3.org/2000/svg">
<path d="M0.072 0.383938L51.72 0.383938L51.72 12.0319L18.056 12.0319L18.056 17.9839L51.016 17.9839L51.016 29.6959L18.056 29.6959L18.056 47.9999L0.072 47.9999L0.072 0.383938ZM56.4975 23.1039L56.4975 0.383938L74.7375 0.383938L74.7375 21.6959C74.7375 23.3173 74.9508 24.8319 75.3775 26.2399C75.8042 27.6053 76.5082 28.9493 77.4895 30.2719C78.4708 31.5519 79.9642 32.5759 81.9695 33.3439C84.0175 34.1119 86.4708 34.4959 89.3295 34.4959C92.1455 34.4959 94.5562 34.1119 96.5615 33.3439C98.5668 32.5759 100.06 31.5519 101.042 30.2719C102.066 28.9493 102.791 27.6053 103.218 26.2399C103.644 24.8319 103.858 23.3173 103.858 21.6959L103.858 0.383938L122.034 0.383938L122.034 23.1039C122.034 25.2373 121.82 27.3279 121.394 29.3759C120.967 31.4239 120.071 33.6639 118.706 36.0959C117.34 38.5279 115.57 40.6399 113.394 42.4319C111.218 44.2239 108.167 45.7386 104.242 46.9759C100.316 48.1706 95.7935 48.7679 90.6735 48.7679L88.1135 48.7679C82.8228 48.7679 78.1935 48.1706 74.2255 46.9759C70.2575 45.7386 67.1642 44.2239 64.9455 42.4319C62.7695 40.6399 60.9988 38.5279 59.6335 36.0959C58.3108 33.6213 57.4575 31.3813 57.0735 29.3759C56.6895 27.3706 56.4975 25.2799 56.4975 23.1039ZM146.707 47.9999L146.707 13.3759L126.162 13.3759L126.163 0.383938L185.427 0.383938L185.427 13.3759L164.883 13.3759L164.883 47.9999L146.707 47.9999ZM189.623 23.1039L189.623 0.383938L207.863 0.383938L207.863 21.6959C207.863 23.3173 208.076 24.8319 208.503 26.2399C208.929 27.6053 209.633 28.9493 210.615 30.2719C211.596 31.5519 213.089 32.5759 215.095 33.3439C217.143 34.1119 219.596 34.4959 222.455 34.4959C225.271 34.4959 227.681 34.1119 229.687 33.3439C231.692 32.5759 233.185 31.5519 234.167 30.2719C235.191 28.9493 235.916 27.6053 236.343 26.2399C236.769 24.8319 236.983 23.3173 236.983 21.6959L236.983 0.383938L255.159 0.383938L255.159 23.1039C255.159 25.2373 254.945 27.3279 254.519 29.3759C254.092 31.4239 253.196 33.6639 251.831 36.0959C250.465 38.5279 248.695 40.6399 246.519 42.4319C244.343 44.2239 241.292 45.7386 237.367 46.9759C233.441 48.1706 228.919 48.7679 223.798 48.7679L221.239 48.7679C215.948 48.7679 211.319 48.1706 207.351 46.9759C203.383 45.7386 200.289 44.2239 198.071 42.4319C195.895 40.6399 194.124 38.5279 192.759 36.0959C191.436 33.6213 190.583 31.3813 190.199 29.3759C189.815 27.3706 189.623 25.2799 189.623 23.1039ZM278.936 11.9679L278.936 20.1599L299.8 20.1599C303.469 20.1599 305.304 18.7946 305.304 16.0639L305.304 15.9999C305.304 13.3119 303.469 11.9679 299.8 11.9679L278.936 11.9679ZM278.936 31.6799L278.936 47.9999L260.759 47.9999L260.76 0.383938L304.024 0.383938C317.378 0.383938 324.056 4.4586 324.056 12.6079L324.056 13.3119C324.056 14.9333 323.736 16.4053 323.096 17.7279C322.456 19.0506 321.602 20.1173 320.536 20.9279C319.512 21.7386 318.488 22.3786 317.464 22.8479C316.482 23.3173 315.48 23.6799 314.456 23.9359C317.485 24.6186 319.874 25.9413 321.624 27.9039C323.373 29.8239 324.248 32.2773 324.248 35.2639L324.248 42.3039C324.248 44.7786 324.546 46.5706 325.144 47.6799L325.144 47.9999L306.584 47.9999C306.2 47.5733 306.008 46.7413 306.008 45.5039L306.008 39.9359C306.008 37.1199 305.261 35.0506 303.768 33.7279C302.317 32.3626 299.842 31.6799 296.344 31.6799L278.936 31.6799ZM329.26 0.383938L381.932 0.383938L381.932 12.0319L347.18 12.0319L347.18 17.9839L381.228 17.9839L381.228 29.5679L347.18 29.5679L347.18 36.0959L382.444 36.0959L382.444 47.9999L329.259 47.9999L329.26 0.383938Z" fill="#040404"/>
</svg>
