<svg width="562" height="58" viewBox="0 0 562 58" fill="none" xmlns="http://www.w3.org/2000/svg">
<path d="M276.52 17.8349L276.52 11.2349L284.165 11.2349L284.165 17.8349L276.52 17.8349ZM276.52 50.9999L276.52 22.0699L284.165 22.0699L284.165 50.9999L276.52 50.9999ZM302.898 51.6599C300.881 51.6599 299.066 51.4399 297.453 50.9999C295.84 50.5599 294.465 49.9549 293.328 49.1849C292.191 48.3783 291.311 47.4249 290.688 46.3249C290.101 45.2249 289.808 43.9783 289.808 42.5849C289.808 42.4383 289.808 42.2916 289.808 42.1449C289.808 41.9983 289.826 41.8883 289.863 41.8149L297.233 41.8149C297.233 41.8883 297.233 41.9616 297.233 42.0349C297.233 42.1083 297.233 42.1816 297.233 42.2549C297.27 43.1716 297.563 43.9233 298.113 44.5099C298.663 45.0599 299.378 45.4633 300.258 45.7199C301.175 45.9766 302.128 46.1049 303.118 46.1049C303.998 46.1049 304.841 46.0316 305.648 45.8849C306.491 45.7016 307.188 45.3899 307.738 44.9499C308.325 44.5099 308.618 43.9416 308.618 43.2449C308.618 42.3649 308.251 41.6866 307.518 41.2099C306.821 40.7333 305.886 40.3483 304.713 40.0549C303.576 39.7616 302.33 39.4316 300.973 39.0649C299.726 38.7716 298.48 38.4416 297.233 38.0749C295.986 37.6716 294.85 37.1583 293.823 36.5349C292.833 35.9116 292.026 35.1049 291.403 34.1149C290.78 33.0883 290.468 31.8049 290.468 30.2649C290.468 28.7616 290.798 27.4599 291.458 26.3599C292.118 25.2233 293.016 24.2883 294.153 23.5549C295.326 22.8216 296.683 22.2899 298.223 21.9599C299.8 21.5933 301.486 21.4099 303.283 21.4099C304.97 21.4099 306.546 21.5933 308.013 21.9599C309.48 22.2899 310.763 22.8033 311.863 23.4999C312.963 24.1599 313.825 25.0033 314.448 26.0299C315.071 27.0199 315.383 28.1383 315.383 29.3849C315.383 29.6416 315.383 29.8799 315.383 30.0999C315.383 30.3199 315.365 30.4666 315.328 30.5399L308.013 30.5399L308.013 30.0999C308.013 29.4399 307.811 28.8899 307.408 28.4499C307.005 27.9733 306.418 27.6066 305.648 27.3499C304.915 27.0933 304.016 26.9649 302.953 26.9649C302.22 26.9649 301.541 27.0199 300.918 27.1299C300.331 27.2399 299.818 27.4049 299.378 27.6249C298.938 27.8449 298.59 28.1199 298.333 28.4499C298.113 28.7433 298.003 29.1099 298.003 29.5499C298.003 30.1733 298.26 30.6866 298.773 31.0899C299.323 31.4566 300.038 31.7683 300.918 32.0249C301.798 32.2816 302.77 32.5566 303.833 32.8499C305.153 33.2166 306.528 33.5833 307.958 33.9499C309.425 34.2799 310.781 34.7383 312.028 35.3249C313.275 35.9116 314.283 36.7549 315.053 37.8549C315.823 38.9183 316.208 40.3666 316.208 42.1999C316.208 43.9599 315.86 45.4449 315.163 46.6549C314.503 47.8649 313.568 48.8366 312.358 49.5699C311.148 50.3033 309.736 50.8349 308.123 51.1649C306.51 51.4949 304.768 51.6599 302.898 51.6599Z" fill="#040404"/>
<path d="M0.292893 6.73839C-0.0976311 7.12891 -0.0976311 7.76208 0.292893 8.1526L6.65685 14.5166C7.04738 14.9071 7.68054 14.9071 8.07107 14.5166C8.46159 14.126 8.46159 13.4929 8.07107 13.1023L2.41421 7.44549L8.07107 1.78864C8.46159 1.39812 8.46159 0.764951 8.07107 0.374427C7.68054 -0.0160971 7.04738 -0.0160971 6.65685 0.374427L0.292893 6.73839ZM562 6.4455L1 6.44549L1 8.44549L562 8.4455L562 6.4455Z" fill="black"/>
</svg>
