<svg width="21" height="15" viewBox="0 0 21 15" fill="none" xmlns="http://www.w3.org/2000/svg">
<path fill-rule="evenodd" clip-rule="evenodd" d="M1.32768 0.274452C1.0312 0.422837 0.624671 0.777461 0.42428 1.06256C0.0671901 1.57074 0.0591416 1.69578 0.0149571 7.33309C-0.0359619 13.838 -0.0264352 13.8952 1.22683 14.6246C1.86644 14.9968 1.87021 14.9969 10.4556 14.9998C18.7423 15.0023 19.0674 14.9906 19.6927 14.6668C20.1101 14.4507 20.4589 14.0966 20.6718 13.673C20.9837 13.0523 21.0023 12.7013 20.9998 7.4648C20.997 2.02857 20.9895 1.90119 20.6302 1.26496C19.8914 -0.0429921 20.2102 -0.00331156 10.4928 0.00102329C2.88317 0.00435779 1.8032 0.0365356 1.32768 0.274452ZM19.5368 1.48488L20.0169 1.97221L20.0169 7.49981L20.0169 13.0274L19.5368 13.5147L19.0567 14.0021L10.4901 14.0021L1.9236 14.0021L1.44348 13.5147L0.963364 13.0274L0.963364 7.49981L0.963364 1.97221L1.44348 1.48488L1.9236 0.997538L10.4901 0.997538L19.0567 0.997538L19.5368 1.48488ZM1.96499 1.98788C1.48323 2.28999 2.01427 2.85552 4.86803 5.07997C6.51665 6.36491 7.85205 7.49147 7.83546 7.58317C7.8187 7.67487 6.44586 8.78593 4.78475 10.0522C2.65946 11.6723 1.78004 12.4382 1.81716 12.6364C1.94446 13.3142 2.57257 12.9847 5.71936 10.5899C8.90016 8.16904 8.90689 8.16504 9.2464 8.48799C10.0003 9.20457 10.705 9.21091 11.5841 8.50883L11.9893 8.18538L15.1642 10.5936C16.9105 11.918 18.4871 13.0017 18.6677 13.0017C19.0215 13.0017 19.2326 12.6643 19.0572 12.3792C18.9979 12.2826 17.6002 11.1844 15.9516 9.9385C14.3028 8.69256 12.9569 7.61535 12.9604 7.54483C12.964 7.47413 14.3674 6.36608 16.0791 5.0823C18.4737 3.28634 19.1825 2.67162 19.1524 2.41637C19.0656 1.67577 18.4798 2.00156 14.641 4.92491C12.5069 6.55015 10.6445 7.90862 10.5023 7.94397C10.3546 7.98065 8.6247 6.74955 6.4659 5.07113C2.25293 1.79582 2.26163 1.80182 1.96499 1.98788Z" fill="#ACACAC"/>
</svg>
