<svg width="241" height="50" viewBox="0 0 241 50" fill="none" xmlns="http://www.w3.org/2000/svg">
<path d="M0.072 1.384L20.424 1.384L48.072 28.456L48.072 1.384L66.12 1.384L66.12 49L47.944 49L18.12 20.136L18.12 49L0.072 49L0.072 1.384ZM105.412 0.487999L108.292 0.487999C112.516 0.487999 116.356 0.786666 119.812 1.384C123.31 1.93867 126.233 2.68533 128.58 3.624C130.969 4.52 133.038 5.65067 134.788 7.016C136.58 8.33867 137.988 9.68267 139.012 11.048C140.036 12.4133 140.846 13.9067 141.444 15.528C142.084 17.1493 142.489 18.6213 142.66 19.944C142.873 21.2667 142.979 22.6533 142.979 24.104L142.979 26.024C142.979 27.4747 142.873 28.8613 142.66 30.184C142.489 31.5067 142.084 33 141.444 34.664C140.846 36.2853 140.036 37.8 139.012 39.208C138.03 40.5733 136.644 41.9387 134.852 43.304C133.06 44.6693 130.99 45.8213 128.644 46.76C126.297 47.6987 123.374 48.4453 119.876 49C116.42 49.5973 112.558 49.896 108.292 49.896L105.412 49.896C101.145 49.896 97.2622 49.5973 93.7635 49C90.3075 48.4453 87.3848 47.6987 84.9955 46.76C82.6488 45.8213 80.5795 44.6693 78.7875 43.304C76.9955 41.9387 75.5875 40.5733 74.5635 39.208C73.5822 37.8 72.7715 36.2853 72.1315 34.664C71.5342 33 71.1288 31.5067 70.9155 30.184C70.7448 28.8613 70.6595 27.4747 70.6595 26.024L70.6595 24.104C70.6595 22.6533 70.7448 21.2667 70.9155 19.944C71.1288 18.6213 71.5342 17.1493 72.1315 15.528C72.7715 13.9067 73.5822 12.4133 74.5635 11.048C75.5875 9.68267 76.9955 8.33867 78.7875 7.016C80.5795 5.65067 82.6488 4.52 84.9955 3.624C87.3848 2.68533 90.3075 1.93867 93.7635 1.384C97.2622 0.786666 101.145 0.487999 105.412 0.487999ZM124.164 25.448L124.164 24.552C124.164 23.144 123.908 21.8427 123.396 20.648C122.884 19.4107 122.009 18.216 120.772 17.064C119.577 15.912 117.785 14.9947 115.396 14.312C113.006 13.6293 110.148 13.288 106.819 13.288C103.406 13.288 100.505 13.6293 98.1155 14.312C95.7262 14.9947 93.9342 15.912 92.7395 17.064C91.5448 18.216 90.6915 19.4107 90.1795 20.648C89.7102 21.8427 89.4755 23.144 89.4755 24.552L89.4755 25.32C89.4755 26.728 89.7315 28.072 90.2435 29.352C90.7555 30.5893 91.6088 31.8267 92.8035 33.064C93.9982 34.2587 95.7902 35.2187 98.1795 35.944C100.612 36.6693 103.492 37.032 106.819 37.032C110.148 37.032 113.006 36.6907 115.396 36.008C117.828 35.2827 119.641 34.3227 120.836 33.128C122.03 31.9333 122.884 30.7173 123.396 29.48C123.908 28.2 124.164 26.856 124.164 25.448ZM181.436 49L159.292 49L140.732 1.384L160.956 1.384L171.772 32.808L181.308 1.384L201.788 1.384L211.452 32.296L221.948 1.384L240.572 1.384L222.012 49L200.956 49L191.036 18.92L181.436 49Z" fill="#040404"/>
</svg>
