<svg width="20" height="20" viewBox="0 0 20 20" fill="none" xmlns="http://www.w3.org/2000/svg">
<path fill-rule="evenodd" clip-rule="evenodd" d="M2.99386 0.281597C2.07624 0.69877 0.807799 1.93071 0.33624 2.8628C-0.0156693 3.55835 -0.0474193 3.762 0.0431387 4.7389C0.196102 6.38754 0.541912 7.56026 1.3951 9.3253C4.09886 14.9185 10.0306 19.4895 15.2145 19.9744C15.8178 20.0308 16.4201 19.9924 16.7754 19.8751C18.0134 19.4657 20 17.093 20 16.0237C20 14.9003 15.9634 11.5662 14.6033 11.5662C13.9185 11.5662 13.5873 11.8579 12.6528 13.2838C11.6943 14.746 11.7523 14.7373 10.1321 13.6664C8.81444 12.7955 7.19879 11.1773 6.32934 9.85745C5.26016 8.23466 5.2514 8.29278 6.71127 7.3328C8.13487 6.39679 8.42609 6.06499 8.42609 5.37915C8.42609 4.44721 6.29133 1.40936 4.95517 0.439975C4.20646 -0.103305 3.89553 -0.128369 2.99386 0.281597ZM5.22622 2.04506C6.07424 2.98358 7.48767 5.07697 7.48767 5.39451C7.48767 5.51043 6.86346 6.02567 6.10052 6.5395C4.67208 7.50152 4.51599 7.68637 4.51599 8.41607C4.51599 9.34316 6.60586 12.1753 8.31457 13.5639C10.2731 15.1555 11.4431 15.6958 12.2549 15.3838C12.3964 15.3294 12.9318 14.6597 13.4448 13.8956C13.9578 13.1314 14.4722 12.5062 14.5879 12.5062C14.9641 12.5062 17.1758 14.0528 18.1328 14.9851C19.0425 15.871 19.0614 15.9064 18.8897 16.3998C18.6379 17.1231 17.29 18.5396 16.5843 18.8224C15.5531 19.2356 13.0425 18.7396 11.0102 17.7212C7.31109 15.8675 3.49185 11.8874 2.02431 8.3567C1.09574 6.12248 0.810771 4.07312 1.29766 3.13006C1.59467 2.55498 2.84684 1.4128 3.46667 1.15182C4.08494 0.891456 4.26762 0.984195 5.22622 2.04506Z" fill="#ACACAC"/>
</svg>
