<svg width="52" height="38" viewBox="0 0 52 38" fill="none" xmlns="http://www.w3.org/2000/svg">
<path fill-rule="evenodd" clip-rule="evenodd" d="M0.452306 0.316797L0 0.633391L0.00345893 8.70979C0.00752826 17.6782 0.0964431 18.5405 1.26251 20.9096C1.63119 21.6586 2.48229 22.8609 3.15373 23.5814C5.61364 26.2207 8.50714 27.4981 12.0045 27.4889C14.3008 27.4828 15.8148 27.1186 17.7846 26.099C20.58 24.652 23.1305 21.4386 23.7761 18.5504C23.8843 18.0662 24.0078 17.635 24.0503 17.5925C24.0929 17.5498 24.5472 18.0935 25.0599 18.8005L25.9922 20.0858L24.2935 27.8971C23.3594 32.1933 22.5927 35.8229 22.5899 35.9627C22.587 36.1025 22.7679 36.4001 22.9917 36.624C23.3634 36.9957 23.6699 37.0309 26.5298 37.0309C29.2139 37.0309 29.722 36.98 30.0872 36.6748C30.4284 36.3898 30.731 35.3132 31.6034 31.2813C32.203 28.5107 32.7512 26.1863 32.8214 26.1161C32.8916 26.0457 33.4035 26.1837 33.959 26.4226C36.4374 27.4889 40.357 27.8157 42.8226 27.1617C47.0071 26.052 50.1172 23.0601 51.5993 18.7189C52.1336 17.1536 52.1336 13.5692 51.5991 12.0045C50.1354 7.7185 46.7596 4.52387 42.6779 3.56148C41.0386 3.17489 38.3005 3.17815 36.6449 3.56819C33.6991 4.26262 30.8386 6.44134 29.2214 9.22211C28.787 9.96904 28.4025 10.5803 28.3667 10.5803C27.9919 10.5803 25.166 4.34625 24.4046 1.83974C24.1448 0.983964 23.8155 0.317814 23.5944 0.199397C23.3895 0.0897286 21.8527 0 20.1792 0C17.5791 0 17.0743 0.0518839 16.7103 0.356066C16.2926 0.705215 16.2832 0.872668 16.2299 8.88436L16.1756 17.0568L15.5652 17.9232C13.7181 20.5444 9.77595 20.2899 8.32239 17.4554C7.96124 16.7514 7.93519 16.1648 7.93519 8.75719C7.93519 1.08509 7.92136 0.80003 7.52826 0.406933C7.15693 0.0356066 6.85011 0 4.01297 0C1.52885 0 0.813662 0.0636848 0.452306 0.316797ZM5.69706 9.45346C5.69706 17.6434 5.75444 18.0058 7.33883 19.8056C8.55597 21.1884 10.1007 21.8726 12.0045 21.8726C14.2608 21.8726 16.1088 20.9511 17.2871 19.2386C18.4076 17.61 18.5154 16.7203 18.5154 9.10553V2.22287L20.3845 2.28127L22.2535 2.33986L23.128 4.65389C24.9114 9.3739 27.6564 14.2453 28.5293 14.2396C29.2302 14.2349 29.4314 14.0317 29.8919 12.8633C30.689 10.8409 31.3347 9.78022 32.578 8.45138C37.3798 3.31793 45.8817 4.79713 48.9715 11.3036C49.5817 12.5885 49.714 13.1171 49.7994 14.6148C49.9736 17.6713 49.2198 19.872 47.2813 21.9656C45.0699 24.3545 42.9621 25.2803 39.676 25.3065C37.2466 25.3261 35.9662 25.0203 33.6416 23.8652C32.0968 23.0979 31.2612 23.0625 31.0482 23.7551C30.9007 24.2343 28.6888 34.434 28.6888 34.6345C28.6888 34.7215 27.8629 34.7928 26.8537 34.7928C25.0547 34.7928 25.0207 34.7838 25.1251 34.335C25.1837 34.0833 25.9235 30.6899 26.7689 26.7943L28.3061 19.7112L26.788 17.4348C25.953 16.1827 25.0215 14.6547 24.7179 14.0392C24.0237 12.6312 23.6513 12.2072 23.1128 12.211C22.1778 12.218 22.0828 12.4625 21.9502 15.2014C21.8073 18.1521 21.4474 19.3718 20.1875 21.1752C16.789 26.0396 9.66099 26.8079 5.39145 22.7699C4.00585 21.4594 3.11995 20.0919 2.6237 18.4969C2.27455 17.3756 2.23813 16.5475 2.23813 9.74828V2.23813H3.9676H5.69706V9.45346ZM38.15 8.92729C36.3198 9.41297 34.5283 10.9965 33.6578 12.8977C33.095 14.1271 32.0944 18.3431 32.2618 18.7797C32.5679 19.5769 35.5674 21.2171 37.5886 21.6922C41.1381 22.5266 44.4271 21.0321 45.8459 17.9409C46.5218 16.4682 46.4683 14.0998 45.725 12.586C45.0686 11.2497 43.6908 9.89946 42.4012 9.32893C41.4064 8.88884 39.1113 8.67194 38.15 8.92729ZM41.4628 11.3032C44.4251 12.5404 45.0843 16.5335 42.6757 18.6483C41.6699 19.5311 40.7037 19.8062 39.0279 19.6864C37.3463 19.5659 34.5893 18.3466 34.5893 17.7229C34.5893 17.0655 35.3702 14.2911 35.779 13.4961C36.2404 12.5988 37.0685 11.7622 37.9465 11.3064C38.7304 10.8997 40.4927 10.8979 41.4628 11.3032Z" fill="#40EDB7"/>
</svg>
