<svg width="73" height="72" viewBox="0 0 73 72" fill="none" xmlns="http://www.w3.org/2000/svg">
<rect x="5.5" y="0.5" width="67" height="67" stroke="#40EDB7"/>
<path fill-rule="evenodd" clip-rule="evenodd" d="M30.601 12.7467C28.5998 15.4583 22.0611 25.4182 20.6478 27.9077C18.5871 31.5371 16.9189 35.0042 15.9416 37.689C15.1365 39.901 15.023 40.5577 15.001 43.1386C14.9699 46.7493 15.6857 49.2142 17.6288 52.1908C20.8292 57.0934 26.0779 59.9686 31.8835 59.9996C34.8755 60.0152 36.7157 59.5843 39.6803 58.173C43.8231 56.2008 47.1446 52.1874 48.5377 47.4703C49.2067 45.2052 49.2028 41.2983 48.529 39.0863C47.2893 35.0145 44.3485 29.2846 39.9707 22.4095C37.5991 18.6853 32.2331 11 32.0042 11C31.9413 11 31.3097 11.7861 30.601 12.7467ZM40.1017 12.9152L38.9579 14.5207L40.8823 17.4414C48.5159 29.0258 52.8434 38.2882 52.8434 43.0419C52.8434 48.8405 50.0099 54.9477 45.6176 58.6148L44.3197 59.6983L45.2978 59.491C48.2716 58.8599 52.071 56.5761 54.2332 54.1199C57.0567 50.9122 58.625 46.4667 58.3509 42.448C58.2665 41.2139 57.9266 39.3867 57.5955 38.3877C56.8417 36.1145 54.6843 31.5488 52.7895 28.2165C50.0468 23.3935 41.8847 11.2521 41.4133 11.2946C41.3211 11.3029 40.7308 12.0321 40.1017 12.9152ZM33.7696 22.528C39.1353 29.9285 43.6163 38.1929 44.0743 41.5339L44.2468 42.7929L41.7682 42.6517C38.5161 42.4667 36.6646 42.953 32.2658 45.1463C28.0338 47.2565 26.5893 47.4879 24.294 46.4234C23.473 46.0425 22.1405 45.1882 21.3337 44.525C20.0364 43.4588 19.8665 43.1973 19.8665 42.2652C19.8665 39.7319 22.7371 33.7809 27.3156 26.8231C29.6824 23.2261 31.8139 20.2224 31.9995 20.2224C32.0534 20.2224 32.8502 21.26 33.7696 22.528Z" fill="#00A6FF"/>
<rect x="0.5" y="4.5" width="67" height="67" stroke="#40EDB7"/>
</svg>
