<svg width="73" height="72" viewBox="0 0 73 72" fill="none" xmlns="http://www.w3.org/2000/svg">
<rect x="5.5" y="0.5" width="67" height="67" stroke="#40EDB7"/>
<path d="M48.3131 35.6566C48.3131 33.6005 47.9082 31.5646 47.1213 29.6651C46.3345 27.7655 45.1813 26.0395 43.7274 24.5857C42.2736 23.1319 40.5476 21.9786 38.6481 21.1918C36.7485 20.405 34.7126 20 32.6566 20C30.6005 20 28.5646 20.405 26.6651 21.1918C24.7655 21.9786 23.0395 23.1319 21.5857 24.5857C20.1319 26.0395 18.9786 27.7655 18.1918 29.6651C17.405 31.5646 17 33.6005 17 35.6566" stroke="#F8F8F8" stroke-width="4.38384"/>
<path d="M58.0204 35.3434C58.0204 37.3995 57.6154 39.4354 56.8286 41.3349C56.0418 43.2345 54.8886 44.9605 53.4347 46.4143C51.9809 47.8681 50.2549 49.0214 48.3554 49.8082C46.4558 50.595 44.4199 51 42.3638 51C40.3078 51 38.2719 50.595 36.3723 49.8082C34.4728 49.0214 32.7468 47.8681 31.293 46.4143C29.8391 44.9605 28.6859 43.2345 27.8991 41.3349C27.1122 39.4354 26.7073 37.3995 26.7073 35.3434" stroke="#F8F8F8" stroke-width="4.38384"/>
<rect x="0.5" y="4.5" width="67" height="67" stroke="#40EDB7"/>
</svg>
