<svg width="73" height="72" viewBox="0 0 73 72" fill="none" xmlns="http://www.w3.org/2000/svg">
<rect x="5.5" y="0.5" width="67" height="67" stroke="#40EDB7"/>
<rect x="0.5" y="4.5" width="67" height="67" stroke="#40EDB7"/>
<path d="M20.56 41V17.8926H25.5789V36.7221H37.2337V41H20.56Z" fill="white"/>
<path d="M44.4015 52L36.0478 28.8926H41.4709L46.4562 43.6463C46.546 43.8933 46.6471 44.1965 46.7593 44.5558C46.8716 44.8926 46.9839 45.2295 47.0962 45.5663C47.2085 45.9032 47.2983 46.2063 47.3657 46.4758H47.5678C47.6576 46.2288 47.7474 45.9481 47.8372 45.6337C47.9495 45.2968 48.0506 44.96 48.1404 44.6232C48.2527 44.2863 48.3537 43.9719 48.4436 43.68L53.4288 28.8926H58.6499L50.2625 52H44.4015Z" fill="white"/>
</svg>
