<svg width="1058" height="224" viewBox="0 0 1058 224" fill="none" xmlns="http://www.w3.org/2000/svg">
<g style="mix-blend-mode:hard-light" filter="url(#filter0_f_792_12)">
<path d="M14 119.952L59.524 12.8368L131.827 12.8368L88.9807 79.7838L131.827 79.7838L14 211L48.8125 119.952L14 119.952Z" stroke="#00A8A8" stroke-width="3.48124"/>
</g>
<g style="mix-blend-mode:hard-light" filter="url(#filter1_f_792_12)">
<path d="M14 119.952L59.524 12.8368L131.827 12.8368L88.9807 79.7838L131.827 79.7838L14 211L48.8125 119.952L14 119.952Z" stroke="#00A8A8" stroke-width="4.5524"/>
</g>
<g style="mix-blend-mode:hard-light" filter="url(#filter2_ddi_792_12)">
<path d="M14 119.952L59.524 12.8368L131.827 12.8368L88.9807 79.7838L131.827 79.7838L14 211L48.8125 119.952L14 119.952Z" stroke="#33E9C6" stroke-opacity="0.2" stroke-width="3.48124"/>
</g>
<g filter="url(#filter3_f_792_12)">
<path d="M14 119.952L59.524 12.8368L131.827 12.8368L88.9807 79.7838L131.827 79.7838L14 211L48.8125 119.952L14 119.952Z" stroke="#33E9E9" stroke-width="2.1423"/>
</g>
<g filter="url(#filter4_f_792_12)">
<path d="M14 119.952L59.524 12.8368L131.827 12.8368L88.9807 79.7838L131.827 79.7838L14 211L48.8125 119.952L14 119.952Z" stroke="white" stroke-width="1.07115"/>
</g>
<path d="M292.081 49.1564L292.081 171L267.06 171L267.06 49.1564L292.081 49.1564ZM329.571 49.1564L329.571 68.8221L230.155 68.8221L230.155 49.1564L329.571 49.1564ZM376.183 172.674C369.154 172.674 362.85 171.558 357.271 169.326C351.692 167.039 346.95 163.887 343.045 159.87C339.195 155.853 336.238 151.195 334.174 145.895C332.11 140.539 331.078 134.849 331.078 128.823L331.078 125.476C331.078 118.614 332.054 112.338 334.007 106.647C335.959 100.957 338.749 96.0193 342.375 91.8352C346.057 87.651 350.52 84.4431 355.764 82.2115C361.009 79.9242 366.922 78.7805 373.505 78.7805C379.921 78.7805 385.612 79.8405 390.577 81.9605C395.542 84.0805 399.698 87.0931 403.046 90.9983C406.449 94.9036 409.015 99.5899 410.745 105.057C412.474 110.469 413.339 116.494 413.339 123.133L413.339 133.175L341.371 133.175L341.371 117.108L389.656 117.108L389.656 115.267C389.656 111.919 389.043 108.935 387.815 106.312C386.644 103.635 384.859 101.515 382.46 99.9525C380.061 98.3904 376.992 97.6093 373.254 97.6093C370.074 97.6093 367.341 98.3067 365.053 99.7014C362.766 101.096 360.897 103.049 359.447 105.559C358.052 108.07 356.992 111.027 356.267 114.43C355.597 117.777 355.262 121.459 355.262 125.476L355.262 128.823C355.262 132.45 355.764 135.797 356.769 138.865C357.829 141.934 359.307 144.584 361.204 146.815C363.157 149.047 365.5 150.776 368.233 152.004C371.023 153.231 374.175 153.845 377.69 153.845C382.041 153.845 386.086 153.008 389.824 151.334C393.617 149.605 396.881 147.011 399.615 143.552L411.331 156.272C409.434 159.005 406.839 161.627 403.548 164.138C400.312 166.648 396.407 168.713 391.832 170.331C387.257 171.893 382.041 172.674 376.183 172.674ZM464.47 153.845C467.427 153.845 470.049 153.287 472.336 152.171C474.623 151 476.409 149.382 477.692 147.317C479.031 145.198 479.728 142.715 479.784 139.87L502.462 139.87C502.406 146.23 500.705 151.892 497.357 156.857C494.01 161.767 489.519 165.644 483.884 168.489C478.25 171.279 471.945 172.674 464.972 172.674C457.942 172.674 451.806 171.502 446.561 169.159C441.373 166.816 437.049 163.58 433.59 159.452C430.131 155.267 427.537 150.414 425.808 144.891C424.078 139.312 423.214 133.342 423.214 126.982L423.214 124.556C423.214 118.14 424.078 112.17 425.808 106.647C427.537 101.068 430.131 96.2146 433.59 92.0862C437.049 87.902 441.373 84.6384 446.561 82.2952C451.75 79.9521 457.831 78.7805 464.804 78.7805C472.224 78.7805 478.724 80.2031 484.303 83.0484C489.937 85.8936 494.345 89.9662 497.525 95.2662C500.761 100.51 502.406 106.731 502.462 113.928L479.784 113.928C479.728 110.915 479.086 108.181 477.859 105.727C476.688 103.272 474.958 101.319 472.671 99.8688C470.439 98.3625 467.678 97.6093 464.386 97.6093C460.871 97.6093 457.998 98.3625 455.767 99.8688C453.535 101.319 451.806 103.328 450.578 105.894C449.351 108.405 448.486 111.278 447.984 114.513C447.538 117.693 447.315 121.041 447.315 124.556L447.315 126.982C447.315 130.497 447.538 133.872 447.984 137.108C448.43 140.344 449.267 143.217 450.495 145.728C451.778 148.238 453.535 150.219 455.767 151.669C457.998 153.12 460.899 153.845 464.47 153.845ZM539.952 42.4617L539.952 171L515.852 171L515.852 42.4617L539.952 42.4617ZM536.521 122.547L529.91 122.547C529.966 116.243 530.803 110.441 532.421 105.141C534.039 99.7851 536.354 95.1546 539.367 91.2494C542.379 87.2883 545.978 84.2199 550.162 82.0442C554.402 79.8684 559.088 78.7805 564.221 78.7805C568.684 78.7805 572.729 79.4221 576.355 80.7052C580.037 81.9326 583.189 83.941 585.811 86.7304C588.489 89.4641 590.553 93.0625 592.004 97.5257C593.454 101.989 594.18 107.4 594.18 113.76L594.18 171L569.911 171L569.911 113.593C569.911 109.576 569.325 106.424 568.154 104.137C567.038 101.794 565.392 100.148 563.217 99.1993C561.097 98.1951 558.474 97.693 555.35 97.693C551.891 97.693 548.935 98.3346 546.48 99.6177C544.081 100.901 542.156 102.686 540.706 104.974C539.255 107.205 538.195 109.827 537.526 112.84C536.856 115.852 536.521 119.088 536.521 122.547Z" fill="#F6F6F6"/>
<path d="M704.391 117.526L673.093 117.526L672.926 100.287L699.203 100.287C703.833 100.287 707.627 99.7014 710.584 98.5299C713.54 97.3025 715.744 95.5451 717.195 93.2578C718.701 90.9146 719.454 88.0694 719.454 84.722C719.454 80.9284 718.729 77.86 717.278 75.5168C715.884 73.1737 713.68 71.4721 710.667 70.4121C707.711 69.3521 703.889 68.8221 699.203 68.8221L681.796 68.8221L681.796 171L656.691 171L656.691 49.1564L699.203 49.1564C706.288 49.1564 712.62 49.8259 718.199 51.1648C723.834 52.5038 728.604 54.5401 732.509 57.2738C736.414 60.0074 739.399 63.4664 741.463 67.6505C743.527 71.7789 744.559 76.6884 744.559 82.3789C744.559 87.3999 743.416 92.0304 741.128 96.2704C738.897 100.51 735.354 103.969 730.5 106.647C725.703 109.325 719.426 110.803 711.672 111.082L704.391 117.526ZM703.303 171L666.231 171L676.022 151.418L703.303 151.418C707.711 151.418 711.309 150.721 714.098 149.326C716.888 147.875 718.952 145.923 720.291 143.468C721.63 141.013 722.299 138.196 722.299 135.016C722.299 131.445 721.686 128.349 720.458 125.727C719.287 123.105 717.39 121.097 714.768 119.702C712.146 118.251 708.687 117.526 704.391 117.526L680.206 117.526L680.374 100.287L710.5 100.287L716.274 107.066C723.694 106.954 729.664 108.265 734.182 110.999C738.757 113.677 742.077 117.163 744.141 121.459C746.261 125.755 747.321 130.358 747.321 135.267C747.321 143.078 745.619 149.661 742.216 155.016C738.813 160.316 733.82 164.305 727.237 166.983C720.709 169.661 712.732 171 703.303 171ZM813.515 150.581L813.515 110.246C813.515 107.345 813.041 104.862 812.092 102.798C811.144 100.678 809.665 99.032 807.657 97.8604C805.704 96.6888 803.166 96.103 800.042 96.103C797.364 96.103 795.048 96.5772 793.096 97.5257C791.143 98.4183 789.637 99.7293 788.577 101.459C787.517 103.132 786.987 105.113 786.987 107.4L762.886 107.4C762.886 103.551 763.779 99.8967 765.564 96.4378C767.349 92.9788 769.943 89.9383 773.347 87.3162C776.75 84.6384 780.794 82.5463 785.481 81.04C790.223 79.5336 795.523 78.7805 801.381 78.7805C808.41 78.7805 814.658 79.9521 820.126 82.2952C825.593 84.6384 829.889 88.1531 833.013 92.8394C836.193 97.5257 837.783 103.384 837.783 110.413L837.783 149.159C837.783 154.124 838.09 158.196 838.704 161.376C839.317 164.501 840.21 167.234 841.381 169.577L841.381 171L817.029 171C815.858 168.545 814.965 165.477 814.352 161.795C813.794 158.057 813.515 154.319 813.515 150.581ZM816.695 115.852L816.862 129.493L803.389 129.493C800.209 129.493 797.447 129.855 795.104 130.581C792.761 131.306 790.836 132.338 789.33 133.677C787.824 134.96 786.708 136.466 785.983 138.196C785.313 139.925 784.979 141.822 784.979 143.886C784.979 145.951 785.453 147.82 786.401 149.493C787.35 151.111 788.716 152.394 790.502 153.343C792.287 154.235 794.379 154.682 796.778 154.682C800.404 154.682 803.556 153.956 806.234 152.506C808.912 151.055 810.976 149.27 812.427 147.15C813.933 145.03 814.714 143.022 814.77 141.125L821.13 151.334C820.237 153.622 819.01 155.993 817.448 158.447C815.942 160.902 814.017 163.217 811.674 165.393C809.331 167.513 806.513 169.271 803.222 170.665C799.93 172.004 796.025 172.674 791.506 172.674C785.76 172.674 780.543 171.53 775.857 169.243C771.227 166.899 767.544 163.692 764.811 159.619C762.133 155.491 760.794 150.804 760.794 145.56C760.794 140.818 761.687 136.606 763.472 132.924C765.257 129.242 767.879 126.146 771.338 123.635C774.853 121.069 779.232 119.144 784.476 117.861C789.721 116.522 795.802 115.852 802.72 115.852L816.695 115.852ZM879.96 99.7851L879.96 171L855.859 171L855.859 80.4542L878.453 80.4542L879.96 99.7851ZM876.445 122.547L869.918 122.547C869.918 115.852 870.782 109.827 872.512 104.471C874.241 99.0599 876.668 94.4572 879.792 90.6636C882.916 86.8141 886.626 83.8852 890.922 81.8768C895.274 79.8126 900.127 78.7805 905.483 78.7805C909.723 78.7805 913.6 79.3942 917.115 80.6215C920.63 81.8489 923.643 83.8015 926.153 86.4794C928.719 89.1573 930.672 92.6999 932.011 97.1072C933.406 101.515 934.103 106.898 934.103 113.258L934.103 171L909.835 171L909.835 113.175C909.835 109.158 909.277 106.034 908.161 103.802C907.045 101.57 905.399 100.008 903.224 99.1156C901.104 98.1672 898.482 97.693 895.357 97.693C892.122 97.693 889.304 98.3346 886.905 99.6177C884.562 100.901 882.61 102.686 881.048 104.974C879.541 107.205 878.398 109.827 877.616 112.84C876.835 115.852 876.445 119.088 876.445 122.547ZM1005.9 151.251L1005.9 42.4617L1030.17 42.4617L1030.17 171L1008.33 171L1005.9 151.251ZM948.664 126.815L948.664 125.058C948.664 118.14 949.445 111.863 951.007 106.229C952.569 100.538 954.857 95.6567 957.869 91.5841C960.882 87.5115 964.592 84.3594 968.999 82.1278C973.406 79.8963 978.427 78.7805 984.062 78.7805C989.362 78.7805 993.993 79.8963 997.954 82.1278C1001.97 84.3594 1005.37 87.5394 1008.16 91.6678C1011.01 95.7404 1013.3 100.566 1015.03 106.145C1016.75 111.668 1018.01 117.721 1018.79 124.304L1018.79 128.154C1018.01 134.458 1016.75 140.316 1015.03 145.728C1013.3 151.139 1011.01 155.881 1008.16 159.954C1005.37 163.971 1001.97 167.095 997.954 169.326C993.937 171.558 989.251 172.674 983.895 172.674C978.26 172.674 973.239 171.53 968.832 169.243C964.48 166.955 960.798 163.747 957.785 159.619C954.829 155.491 952.569 150.637 951.007 145.058C949.445 139.479 948.664 133.398 948.664 126.815ZM972.765 125.058L972.765 126.815C972.765 130.553 973.044 134.04 973.602 137.275C974.215 140.511 975.192 143.384 976.531 145.895C977.925 148.35 979.711 150.274 981.886 151.669C984.118 153.008 986.824 153.677 990.004 153.677C994.132 153.677 997.535 152.757 1000.21 150.916C1002.89 149.019 1004.93 146.425 1006.32 143.133C1007.77 139.842 1008.61 136.048 1008.83 131.752L1008.83 120.79C1008.67 117.275 1008.16 114.123 1007.33 111.333C1006.55 108.488 1005.37 106.061 1003.81 104.053C1002.31 102.045 1000.41 100.482 998.121 99.3667C995.889 98.2509 993.239 97.693 990.171 97.693C987.047 97.693 984.369 98.4183 982.137 99.8688C979.906 101.264 978.093 103.188 976.698 105.643C975.359 108.098 974.355 110.999 973.685 114.346C973.072 117.638 972.765 121.208 972.765 125.058Z" fill="#3CDCAA"/>
<defs>
<filter id="filter0_f_792_12" x="0.523724" y="0.250774" width="146.051" height="222.758" filterUnits="userSpaceOnUse" color-interpolation-filters="sRGB">
<feFlood flood-opacity="0" result="BackgroundImageFix"/>
<feBlend mode="normal" in="SourceGraphic" in2="BackgroundImageFix" result="shape"/>
<feGaussianBlur stdDeviation="5.42271" result="effect1_foregroundBlur_792_12"/>
</filter>
<filter id="filter1_f_792_12" x="6.94443" y="6.94541" width="133.6" height="209.19" filterUnits="userSpaceOnUse" color-interpolation-filters="sRGB">
<feFlood flood-opacity="0" result="BackgroundImageFix"/>
<feBlend mode="normal" in="SourceGraphic" in2="BackgroundImageFix" result="shape"/>
<feGaussianBlur stdDeviation="1.80757" result="effect1_foregroundBlur_792_12"/>
</filter>
<filter id="filter2_ddi_792_12" x="6.66946" y="10.0116" width="133.759" height="210.466" filterUnits="userSpaceOnUse" color-interpolation-filters="sRGB">
<feFlood flood-opacity="0" result="BackgroundImageFix"/>
<feColorMatrix in="SourceAlpha" type="matrix" values="0 0 0 0 0 0 0 0 0 0 0 0 0 0 0 0 0 0 127 0" result="hardAlpha"/>
<feOffset dy="3.48124"/>
<feGaussianBlur stdDeviation="1.33894"/>
<feColorMatrix type="matrix" values="0 0 0 0 0 0 0 0 0 0.3 0 0 0 0 0.275 0 0 0 0.7 0"/>
<feBlend mode="multiply" in2="BackgroundImageFix" result="effect1_dropShadow_792_12"/>
<feColorMatrix in="SourceAlpha" type="matrix" values="0 0 0 0 0 0 0 0 0 0 0 0 0 0 0 0 0 0 127 0" result="hardAlpha"/>
<feOffset dy="3.61514"/>
<feGaussianBlur stdDeviation="2.34984"/>
<feColorMatrix type="matrix" values="0 0 0 0 0 0 0 0 0 0.6 0 0 0 0 0.6 0 0 0 1 0"/>
<feBlend mode="color-dodge" in2="effect1_dropShadow_792_12" result="effect2_dropShadow_792_12"/>
<feBlend mode="normal" in="SourceGraphic" in2="effect2_dropShadow_792_12" result="shape"/>
<feColorMatrix in="SourceAlpha" type="matrix" values="0 0 0 0 0 0 0 0 0 0 0 0 0 0 0 0 0 0 127 0" result="hardAlpha"/>
<feOffset dx="-0.348124" dy="0.696249"/>
<feGaussianBlur stdDeviation="0.174062"/>
<feComposite in2="hardAlpha" operator="arithmetic" k2="-1" k3="1"/>
<feColorMatrix type="matrix" values="0 0 0 0 1 0 0 0 0 1 0 0 0 0 1 0 0 0 0.5 0"/>
<feBlend mode="normal" in2="shape" result="effect3_innerShadow_792_12"/>
</filter>
<filter id="filter3_f_792_12" x="11.8453" y="11.23" width="122.918" height="201.021" filterUnits="userSpaceOnUse" color-interpolation-filters="sRGB">
<feFlood flood-opacity="0" result="BackgroundImageFix"/>
<feBlend mode="normal" in="SourceGraphic" in2="BackgroundImageFix" result="shape"/>
<feGaussianBlur stdDeviation="0.267788" result="effect1_foregroundBlur_792_12"/>
</filter>
<filter id="filter4_f_792_12" x="12.8334" y="11.9442" width="120.551" height="199.771" filterUnits="userSpaceOnUse" color-interpolation-filters="sRGB">
<feFlood flood-opacity="0" result="BackgroundImageFix"/>
<feBlend mode="normal" in="SourceGraphic" in2="BackgroundImageFix" result="shape"/>
<feGaussianBlur stdDeviation="0.178525" result="effect1_foregroundBlur_792_12"/>
</filter>
</defs>
</svg>
