<svg width="154" height="33" viewBox="0 0 154 33" fill="none" xmlns="http://www.w3.org/2000/svg">
<g style="mix-blend-mode:hard-light" filter="url(#filter0_f_2_570)">
<path d="M2 17.7318L8.63415 2.12207L19.1707 2.12207L12.9268 11.8782L19.1707 11.8782L2 31.0001L7.07317 17.7318L2 17.7318Z" stroke="#00A8A8" stroke-width="0.507317"/>
</g>
<g style="mix-blend-mode:hard-light" filter="url(#filter1_f_2_570)">
<path d="M2 17.7318L8.63415 2.12207L19.1707 2.12207L12.9268 11.8782L19.1707 11.8782L2 31.0001L7.07317 17.7318L2 17.7318Z" stroke="#00A8A8" stroke-width="0.663415"/>
</g>
<g style="mix-blend-mode:hard-light" filter="url(#filter2_ddi_2_570)">
<path d="M2 17.7318L8.63415 2.12207L19.1707 2.12207L12.9268 11.8782L19.1707 11.8782L2 31.0001L7.07317 17.7318L2 17.7318Z" stroke="#33E9C6" stroke-opacity="0.2" stroke-width="0.507317"/>
</g>
<g filter="url(#filter3_f_2_570)">
<path d="M2 17.7318L8.63415 2.12207L19.1707 2.12207L12.9268 11.8782L19.1707 11.8782L2 31.0001L7.07317 17.7318L2 17.7318Z" stroke="#33E9E9" stroke-width="0.312195"/>
</g>
<g filter="url(#filter4_f_2_570)">
<path d="M2 17.7318L8.63415 2.12207L19.1707 2.12207L12.9268 11.8782L19.1707 11.8782L2 31.0001L7.07317 17.7318L2 17.7318Z" stroke="white" stroke-width="0.156098"/>
</g>
<path d="M42.5244 7.2439L42.5244 25L38.878 25L38.878 7.2439L42.5244 7.2439ZM47.9878 7.2439L47.9878 10.1098L33.5 10.1098L33.5 7.2439L47.9878 7.2439ZM54.7805 25.2439C53.7561 25.2439 52.8374 25.0813 52.0244 24.7561C51.2114 24.4228 50.5203 23.9634 49.9512 23.378C49.3902 22.7927 48.9593 22.1138 48.6585 21.3415C48.3577 20.561 48.2073 19.7317 48.2073 18.8537L48.2073 18.3659C48.2073 17.3659 48.3496 16.4512 48.6341 15.622C48.9187 14.7927 49.3252 14.0732 49.8537 13.4634C50.3902 12.8537 51.0406 12.3862 51.8049 12.061C52.5691 11.7276 53.4309 11.561 54.3902 11.561C55.3252 11.561 56.1545 11.7154 56.878 12.0244C57.6016 12.3333 58.2073 12.7724 58.6951 13.3415C59.1911 13.9106 59.565 14.5935 59.8171 15.3902C60.0691 16.1789 60.1951 17.0569 60.1951 18.0244L60.1951 19.4878L49.7073 19.4878L49.7073 17.1463L56.7439 17.1463L56.7439 16.878C56.7439 16.3902 56.6545 15.9553 56.4756 15.5732C56.3049 15.1829 56.0447 14.874 55.6951 14.6463C55.3455 14.4187 54.8984 14.3049 54.3537 14.3049C53.8902 14.3049 53.4919 14.4065 53.1585 14.6098C52.8252 14.813 52.5528 15.0976 52.3415 15.4634C52.1382 15.8293 51.9837 16.2602 51.878 16.7561C51.7805 17.2439 51.7317 17.7805 51.7317 18.3659L51.7317 18.8537C51.7317 19.3821 51.8049 19.8699 51.9512 20.3171C52.1057 20.7642 52.3211 21.1504 52.5976 21.4756C52.8821 21.8008 53.2236 22.0528 53.622 22.2317C54.0285 22.4106 54.4878 22.5 55 22.5C55.6341 22.5 56.2236 22.378 56.7683 22.1341C57.3211 21.8821 57.7967 21.5041 58.1951 21L59.9024 22.8537C59.626 23.252 59.248 23.6341 58.7683 24C58.2967 24.3659 57.7276 24.6667 57.061 24.9024C56.3943 25.1301 55.6341 25.2439 54.7805 25.2439ZM67.6463 22.5C68.0772 22.5 68.4593 22.4187 68.7927 22.2561C69.126 22.0854 69.3862 21.8496 69.5732 21.5488C69.7683 21.2398 69.8699 20.878 69.878 20.4634L73.1829 20.4634C73.1748 21.3902 72.9268 22.2154 72.439 22.939C71.9512 23.6545 71.2967 24.2195 70.4756 24.6341C69.6545 25.0407 68.7358 25.2439 67.7195 25.2439C66.6951 25.2439 65.8008 25.0732 65.0366 24.7317C64.2805 24.3902 63.6504 23.9187 63.1463 23.3171C62.6423 22.7073 62.2642 22 62.0122 21.1951C61.7602 20.3821 61.6341 19.5122 61.6341 18.5854L61.6341 18.2317C61.6341 17.2967 61.7602 16.4268 62.0122 15.622C62.2642 14.8089 62.6423 14.1016 63.1463 13.5C63.6504 12.8902 64.2805 12.4146 65.0366 12.0732C65.7927 11.7317 66.6789 11.561 67.6951 11.561C68.7764 11.561 69.7236 11.7683 70.5366 12.1829C71.3577 12.5976 72 13.1911 72.4634 13.9634C72.935 14.7276 73.1748 15.6341 73.1829 16.6829L69.878 16.6829C69.8699 16.2439 69.7764 15.8455 69.5976 15.4878C69.4268 15.1301 69.1748 14.8455 68.8415 14.6341C68.5163 14.4146 68.1138 14.3049 67.6341 14.3049C67.122 14.3049 66.7033 14.4146 66.378 14.6341C66.0528 14.8455 65.8008 15.1382 65.622 15.5122C65.4431 15.878 65.3171 16.2967 65.2439 16.7683C65.1789 17.2317 65.1463 17.7195 65.1463 18.2317L65.1463 18.5854C65.1463 19.0976 65.1789 19.5894 65.2439 20.061C65.3089 20.5325 65.4309 20.9512 65.6098 21.3171C65.7967 21.6829 66.0528 21.9715 66.378 22.1829C66.7033 22.3943 67.126 22.5 67.6463 22.5ZM78.6463 6.26829L78.6463 25L75.1341 25L75.1341 6.26829L78.6463 6.26829ZM78.1463 17.939L77.1829 17.939C77.1911 17.0203 77.313 16.1748 77.5488 15.4024C77.7846 14.622 78.1219 13.9472 78.561 13.378C79 12.8008 79.5244 12.3537 80.1341 12.0366C80.752 11.7195 81.435 11.561 82.1829 11.561C82.8333 11.561 83.4228 11.6545 83.9512 11.8415C84.4878 12.0203 84.9472 12.313 85.3293 12.7195C85.7195 13.1179 86.0203 13.6423 86.2317 14.2927C86.4431 14.9431 86.5488 15.7317 86.5488 16.6585L86.5488 25L83.0122 25L83.0122 16.6341C83.0122 16.0488 82.9268 15.5894 82.7561 15.2561C82.5935 14.9146 82.3537 14.6748 82.0366 14.5366C81.7276 14.3902 81.3455 14.3171 80.8902 14.3171C80.3862 14.3171 79.9553 14.4106 79.5976 14.5976C79.248 14.7846 78.9675 15.0447 78.7561 15.378C78.5447 15.7033 78.3902 16.0854 78.2927 16.5244C78.1951 16.9634 78.1463 17.435 78.1463 17.939Z" fill="#F6F6F6"/>
<path d="M96.3902 17.2073L91.8293 17.2073L91.8049 14.6951L95.6341 14.6951C96.3089 14.6951 96.8618 14.6098 97.2927 14.439C97.7236 14.2602 98.0447 14.0041 98.2561 13.6707C98.4756 13.3293 98.5854 12.9146 98.5854 12.4268C98.5854 11.874 98.4797 11.4268 98.2683 11.0854C98.065 10.7439 97.7439 10.4959 97.3049 10.3415C96.874 10.187 96.3171 10.1098 95.6341 10.1098L93.0976 10.1098L93.0976 25L89.439 25L89.439 7.2439L95.6341 7.2439C96.6667 7.2439 97.5894 7.34146 98.4024 7.53659C99.2236 7.73171 99.9187 8.02846 100.488 8.42683C101.057 8.8252 101.492 9.32927 101.793 9.93903C102.093 10.5407 102.244 11.2561 102.244 12.0854C102.244 12.8171 102.077 13.4919 101.744 14.1098C101.419 14.7276 100.902 15.2317 100.195 15.622C99.4959 16.0122 98.5813 16.2276 97.4512 16.2683L96.3902 17.2073ZM96.2317 25L90.8293 25L92.2561 22.1463L96.2317 22.1463C96.874 22.1463 97.3984 22.0447 97.8049 21.8415C98.2114 21.6301 98.5122 21.3455 98.7073 20.9878C98.9024 20.6301 99 20.2195 99 19.7561C99 19.2358 98.9106 18.7846 98.7317 18.4024C98.561 18.0203 98.2846 17.7276 97.9024 17.5244C97.5203 17.313 97.0163 17.2073 96.3902 17.2073L92.8659 17.2073L92.8902 14.6951L97.2805 14.6951L98.1219 15.6829C99.2032 15.6667 100.073 15.8577 100.732 16.2561C101.398 16.6463 101.882 17.1545 102.183 17.7805C102.492 18.4065 102.646 19.0772 102.646 19.7927C102.646 20.9309 102.398 21.8902 101.902 22.6707C101.407 23.4431 100.679 24.0244 99.7195 24.4146C98.7683 24.8049 97.6057 25 96.2317 25ZM112.293 22.0244L112.293 16.1463C112.293 15.7236 112.224 15.3618 112.085 15.061C111.947 14.752 111.732 14.5122 111.439 14.3415C111.154 14.1707 110.785 14.0854 110.329 14.0854C109.939 14.0854 109.602 14.1545 109.317 14.2927C109.033 14.4228 108.813 14.6138 108.659 14.8659C108.504 15.1098 108.427 15.3984 108.427 15.7317L104.915 15.7317C104.915 15.1707 105.045 14.6382 105.305 14.1341C105.565 13.6301 105.943 13.187 106.439 12.8049C106.935 12.4146 107.524 12.1098 108.207 11.8902C108.898 11.6707 109.671 11.561 110.524 11.561C111.549 11.561 112.459 11.7317 113.256 12.0732C114.053 12.4146 114.679 12.9268 115.134 13.6098C115.598 14.2927 115.829 15.1463 115.829 16.1707L115.829 21.8171C115.829 22.5407 115.874 23.1341 115.963 23.5976C116.053 24.0528 116.183 24.4512 116.354 24.7927L116.354 25L112.805 25C112.634 24.6423 112.504 24.1951 112.415 23.6585C112.333 23.1138 112.293 22.5691 112.293 22.0244ZM112.756 16.9634L112.78 18.9512L110.817 18.9512C110.354 18.9512 109.951 19.0041 109.61 19.1098C109.268 19.2154 108.988 19.3659 108.768 19.561C108.549 19.748 108.386 19.9675 108.28 20.2195C108.183 20.4715 108.134 20.748 108.134 21.0488C108.134 21.3496 108.203 21.622 108.341 21.8659C108.48 22.1016 108.679 22.2886 108.939 22.4268C109.199 22.5569 109.504 22.622 109.854 22.622C110.382 22.622 110.841 22.5163 111.232 22.3049C111.622 22.0935 111.923 21.8333 112.134 21.5244C112.354 21.2154 112.467 20.9228 112.476 20.6463L113.402 22.1341C113.272 22.4675 113.093 22.813 112.866 23.1707C112.646 23.5285 112.366 23.8659 112.024 24.1829C111.683 24.4919 111.272 24.748 110.793 24.9512C110.313 25.1463 109.744 25.2439 109.085 25.2439C108.248 25.2439 107.488 25.0772 106.805 24.7439C106.13 24.4024 105.593 23.935 105.195 23.3415C104.805 22.7398 104.61 22.0569 104.61 21.2927C104.61 20.6016 104.74 19.9878 105 19.4512C105.26 18.9146 105.642 18.4634 106.146 18.0976C106.659 17.7236 107.297 17.4431 108.061 17.2561C108.825 17.061 109.711 16.9634 110.72 16.9634L112.756 16.9634ZM121.976 14.622L121.976 25L118.463 25L118.463 11.8049L121.756 11.8049L121.976 14.622ZM121.463 17.939L120.512 17.939C120.512 16.9634 120.638 16.0854 120.89 15.3049C121.142 14.5163 121.496 13.8455 121.951 13.2927C122.407 12.7317 122.947 12.3049 123.573 12.0122C124.207 11.7114 124.915 11.561 125.695 11.561C126.313 11.561 126.878 11.6504 127.39 11.8293C127.902 12.0081 128.341 12.2927 128.707 12.6829C129.081 13.0732 129.366 13.5894 129.561 14.2317C129.764 14.874 129.866 15.6585 129.866 16.5854L129.866 25L126.329 25L126.329 16.5732C126.329 15.9878 126.248 15.5325 126.085 15.2073C125.923 14.8821 125.683 14.6545 125.366 14.5244C125.057 14.3862 124.675 14.3171 124.22 14.3171C123.748 14.3171 123.337 14.4106 122.988 14.5976C122.646 14.7846 122.362 15.0447 122.134 15.378C121.915 15.7033 121.748 16.0854 121.634 16.5244C121.52 16.9634 121.463 17.435 121.463 17.939ZM140.329 22.122L140.329 6.26829L143.866 6.26829L143.866 25L140.683 25L140.329 22.122ZM131.988 18.561L131.988 18.3049C131.988 17.2967 132.102 16.3821 132.329 15.561C132.557 14.7317 132.89 14.0203 133.329 13.4268C133.768 12.8333 134.309 12.374 134.951 12.0488C135.593 11.7236 136.325 11.561 137.146 11.561C137.919 11.561 138.593 11.7236 139.171 12.0488C139.756 12.374 140.252 12.8374 140.659 13.439C141.073 14.0325 141.407 14.7358 141.659 15.5488C141.911 16.3537 142.093 17.2358 142.207 18.1951L142.207 18.7561C142.093 19.6748 141.911 20.5285 141.659 21.3171C141.407 22.1057 141.073 22.7967 140.659 23.3902C140.252 23.9756 139.756 24.4309 139.171 24.7561C138.585 25.0813 137.902 25.2439 137.122 25.2439C136.301 25.2439 135.569 25.0772 134.927 24.7439C134.293 24.4106 133.756 23.9431 133.317 23.3415C132.886 22.7398 132.557 22.0325 132.329 21.2195C132.102 20.4065 131.988 19.5203 131.988 18.561ZM135.5 18.3049L135.5 18.561C135.5 19.1057 135.541 19.6138 135.622 20.0854C135.711 20.5569 135.854 20.9756 136.049 21.3415C136.252 21.6992 136.512 21.9797 136.829 22.1829C137.154 22.378 137.549 22.4756 138.012 22.4756C138.614 22.4756 139.11 22.3415 139.5 22.0732C139.89 21.7967 140.187 21.4187 140.39 20.939C140.602 20.4593 140.724 19.9065 140.756 19.2805L140.756 17.6829C140.732 17.1707 140.659 16.7114 140.537 16.3049C140.423 15.8902 140.252 15.5366 140.024 15.2439C139.805 14.9512 139.528 14.7236 139.195 14.561C138.87 14.3984 138.484 14.3171 138.037 14.3171C137.581 14.3171 137.191 14.4228 136.866 14.6341C136.541 14.8374 136.276 15.1179 136.073 15.4756C135.878 15.8333 135.732 16.2561 135.634 16.7439C135.545 17.2236 135.5 17.7439 135.5 18.3049Z" fill="#3CDCAA"/>
<defs>
<filter id="filter0_f_2_570" x="0.0362114" y="0.28792" width="21.2838" height="32.4622" filterUnits="userSpaceOnUse" color-interpolation-filters="sRGB">
<feFlood flood-opacity="0" result="BackgroundImageFix"/>
<feBlend mode="normal" in="SourceGraphic" in2="BackgroundImageFix" result="shape"/>
<feGaussianBlur stdDeviation="0.790244" result="effect1_foregroundBlur_2_570"/>
</filter>
<filter id="filter1_f_2_570" x="0.971706" y="1.26345" width="19.4694" height="30.4851" filterUnits="userSpaceOnUse" color-interpolation-filters="sRGB">
<feFlood flood-opacity="0" result="BackgroundImageFix"/>
<feBlend mode="normal" in="SourceGraphic" in2="BackgroundImageFix" result="shape"/>
<feGaussianBlur stdDeviation="0.263415" result="effect1_foregroundBlur_2_570"/>
</filter>
<filter id="filter2_ddi_2_570" x="0.931821" y="1.71036" width="19.4926" height="30.671" filterUnits="userSpaceOnUse" color-interpolation-filters="sRGB">
<feFlood flood-opacity="0" result="BackgroundImageFix"/>
<feColorMatrix in="SourceAlpha" type="matrix" values="0 0 0 0 0 0 0 0 0 0 0 0 0 0 0 0 0 0 127 0" result="hardAlpha"/>
<feOffset dy="0.507317"/>
<feGaussianBlur stdDeviation="0.195122"/>
<feColorMatrix type="matrix" values="0 0 0 0 0 0 0 0 0 0.3 0 0 0 0 0.275 0 0 0 0.7 0"/>
<feBlend mode="multiply" in2="BackgroundImageFix" result="effect1_dropShadow_2_570"/>
<feColorMatrix in="SourceAlpha" type="matrix" values="0 0 0 0 0 0 0 0 0 0 0 0 0 0 0 0 0 0 127 0" result="hardAlpha"/>
<feOffset dy="0.526829"/>
<feGaussianBlur stdDeviation="0.342439"/>
<feColorMatrix type="matrix" values="0 0 0 0 0 0 0 0 0 0.6 0 0 0 0 0.6 0 0 0 1 0"/>
<feBlend mode="color-dodge" in2="effect1_dropShadow_2_570" result="effect2_dropShadow_2_570"/>
<feBlend mode="normal" in="SourceGraphic" in2="effect2_dropShadow_2_570" result="shape"/>
<feColorMatrix in="SourceAlpha" type="matrix" values="0 0 0 0 0 0 0 0 0 0 0 0 0 0 0 0 0 0 127 0" result="hardAlpha"/>
<feOffset dx="-0.0507317" dy="0.101463"/>
<feGaussianBlur stdDeviation="0.0253659"/>
<feComposite in2="hardAlpha" operator="arithmetic" k2="-1" k3="1"/>
<feColorMatrix type="matrix" values="0 0 0 0 1 0 0 0 0 1 0 0 0 0 1 0 0 0 0.5 0"/>
<feBlend mode="normal" in2="shape" result="effect3_innerShadow_2_570"/>
</filter>
<filter id="filter3_f_2_570" x="1.68611" y="1.88802" width="17.9127" height="29.2945" filterUnits="userSpaceOnUse" color-interpolation-filters="sRGB">
<feFlood flood-opacity="0" result="BackgroundImageFix"/>
<feBlend mode="normal" in="SourceGraphic" in2="BackgroundImageFix" result="shape"/>
<feGaussianBlur stdDeviation="0.0390244" result="effect1_foregroundBlur_2_570"/>
</filter>
<filter id="filter4_f_2_570" x="1.83005" y="1.99191" width="17.5677" height="29.1124" filterUnits="userSpaceOnUse" color-interpolation-filters="sRGB">
<feFlood flood-opacity="0" result="BackgroundImageFix"/>
<feBlend mode="normal" in="SourceGraphic" in2="BackgroundImageFix" result="shape"/>
<feGaussianBlur stdDeviation="0.0260163" result="effect1_foregroundBlur_2_570"/>
</filter>
</defs>
</svg>
