<svg width="800" height="156" viewBox="0 0 800 156" fill="none" xmlns="http://www.w3.org/2000/svg">
<g style="mix-blend-mode:hard-light">
<path d="M3 84.4565L37.7719 2.64014L92.998 2.64014L60.2714 53.7753L92.998 53.7753L3 154L29.5903 84.4565L3 84.4565Z" stroke="#00A8A8" stroke-width="2.65903"/>
</g>
<g style="mix-blend-mode:hard-light">
<path d="M3 84.4565L37.7719 2.64014L92.998 2.64014L60.2714 53.7753L92.998 53.7753L3 154L29.5903 84.4565L3 84.4565Z" stroke="#00A8A8" stroke-width="3.47719"/>
</g>
<g style="mix-blend-mode:hard-light">
<path d="M3 84.4565L37.7719 2.64014L92.998 2.64014L60.2714 53.7753L92.998 53.7753L3 154L29.5903 84.4565L3 84.4565Z" stroke="#33E9C6" stroke-opacity="0.2" stroke-width="2.65903"/>
</g>
<path d="M3 84.4565L37.7719 2.64014L92.998 2.64014L60.2714 53.7753L92.998 53.7753L3 154L29.5903 84.4565L3 84.4565Z" stroke="#33E9E9" stroke-width="1.63633"/>
<path d="M3 84.4565L37.7719 2.64014L92.998 2.64014L60.2714 53.7753L92.998 53.7753L3 154L29.5903 84.4565L3 84.4565Z" stroke="white" stroke-width="0.818163"/>
<path d="M215.403 29.9339L215.403 123L196.291 123L196.291 29.9339L215.403 29.9339ZM244.039 29.9339L244.039 44.9549L168.103 44.9549L168.103 29.9339L244.039 29.9339ZM279.642 124.278C274.272 124.278 269.457 123.426 265.196 121.722C260.935 119.975 257.312 117.567 254.33 114.499C251.389 111.431 249.131 107.873 247.554 103.824C245.977 99.7335 245.189 95.387 245.189 90.7848L245.189 88.2281C245.189 82.9867 245.935 78.1928 247.426 73.8463C248.918 69.4998 251.048 65.7286 253.818 62.5326C256.631 59.3367 260.04 56.8865 264.045 55.1819C268.051 53.4348 272.568 52.5613 277.596 52.5613C282.497 52.5613 286.843 53.3709 290.636 54.9902C294.428 56.6095 297.603 58.9106 300.159 61.8934C302.759 64.8763 304.719 68.4558 306.04 72.6318C307.361 76.7653 308.022 81.3674 308.022 86.4383L308.022 94.1086L253.051 94.1086L253.051 81.8362L289.932 81.8362L289.932 80.43C289.932 77.8732 289.464 75.5934 288.526 73.5906C287.631 71.5452 286.268 69.9259 284.435 68.7328C282.603 67.5396 280.259 66.943 277.404 66.943C274.975 66.943 272.887 67.4757 271.14 68.541C269.393 69.6063 267.966 71.0978 266.858 73.0153C265.792 74.9329 264.983 77.1914 264.429 79.7908C263.917 82.3475 263.662 85.16 263.662 88.2281L263.662 90.7848C263.662 93.5547 264.045 96.1114 264.812 98.4551C265.622 100.799 266.751 102.823 268.2 104.527C269.691 106.232 271.481 107.553 273.569 108.49C275.7 109.428 278.107 109.897 280.792 109.897C284.116 109.897 287.205 109.257 290.06 107.979C292.958 106.658 295.451 104.677 297.539 102.035L306.487 111.75C305.039 113.838 303.057 115.841 300.543 117.759C298.071 119.676 295.089 121.253 291.594 122.489C288.1 123.682 284.116 124.278 279.642 124.278ZM347.076 109.897C349.335 109.897 351.337 109.47 353.084 108.618C354.832 107.723 356.195 106.488 357.175 104.911C358.198 103.292 358.731 101.395 358.773 99.2221L376.095 99.2221C376.053 104.08 374.753 108.405 372.196 112.198C369.639 115.948 366.209 118.909 361.905 121.082C357.601 123.213 352.786 124.278 347.46 124.278C342.09 124.278 337.403 123.384 333.397 121.594C329.434 119.804 326.132 117.333 323.49 114.179C320.848 110.983 318.866 107.276 317.545 103.057C316.224 98.796 315.564 94.2365 315.564 89.3786L315.564 87.525C315.564 82.6245 316.224 78.0649 317.545 73.8463C318.866 69.585 320.848 65.8777 323.49 62.7244C326.132 59.5284 329.434 57.0356 333.397 55.2459C337.36 53.4561 342.005 52.5613 347.332 52.5613C352.999 52.5613 357.964 53.6479 362.225 55.8211C366.529 57.9944 369.895 61.1051 372.324 65.1533C374.796 69.1589 376.053 73.9102 376.095 79.4072L358.773 79.4072C358.731 77.1062 358.241 75.0181 357.303 73.1432C356.408 71.2682 355.087 69.7768 353.34 68.6689C351.636 67.5183 349.526 66.943 347.012 66.943C344.328 66.943 342.133 67.5183 340.428 68.6689C338.724 69.7768 337.403 71.3108 336.465 73.271C335.528 75.1886 334.868 77.3831 334.484 79.8547C334.143 82.2836 333.973 84.8404 333.973 87.525L333.973 89.3786C333.973 92.0632 334.143 94.6413 334.484 97.1128C334.825 99.5843 335.464 101.779 336.402 103.696C337.382 105.614 338.724 107.127 340.428 108.235C342.133 109.343 344.349 109.897 347.076 109.897ZM404.731 24.8204L404.731 123L386.322 123L386.322 24.8204L404.731 24.8204ZM402.11 85.9909L397.061 85.9909C397.103 81.1757 397.742 76.744 398.978 72.6958C400.214 68.6049 401.982 65.0681 404.284 62.0852C406.585 59.0597 409.333 56.716 412.529 55.0541C415.768 53.3922 419.347 52.5613 423.267 52.5613C426.676 52.5613 429.766 53.0513 432.536 54.0314C435.348 54.9689 437.756 56.5029 439.759 58.6336C441.804 60.7216 443.381 63.4701 444.489 66.8791C445.597 70.2881 446.15 74.4216 446.15 79.2794L446.15 123L427.614 123L427.614 79.1516C427.614 76.0835 427.167 73.6758 426.272 71.9287C425.419 70.139 424.162 68.8819 422.5 68.1575C420.881 67.3905 418.878 67.007 416.492 67.007C413.85 67.007 411.592 67.497 409.717 68.4771C407.884 69.4572 406.414 70.8208 405.306 72.5679C404.198 74.2724 403.389 76.2752 402.877 78.5763C402.366 80.8774 402.11 83.3489 402.11 85.9909Z" fill="#F6F6F6"/>
<path d="M497.733 82.1558L473.827 82.1558L473.7 68.9885L493.77 68.9885C497.307 68.9885 500.205 68.541 502.463 67.6462C504.722 66.7087 506.405 65.3664 507.513 63.6193C508.663 61.8295 509.239 59.6563 509.239 57.0995C509.239 54.2019 508.685 51.8582 507.577 50.0684C506.511 48.2787 504.828 46.979 502.527 46.1694C500.269 45.3597 497.35 44.9549 493.77 44.9549L480.475 44.9549L480.475 123L461.299 123L461.299 29.9339L493.77 29.9339C499.182 29.9339 504.018 30.4453 508.28 31.468C512.584 32.4907 516.227 34.0461 519.21 36.1341C522.193 38.2221 524.473 40.8641 526.049 44.06C527.626 47.2134 528.414 50.9633 528.414 55.3098C528.414 59.1449 527.541 62.6818 525.794 65.9203C524.089 69.1589 521.383 71.8009 517.676 73.8463C514.011 75.8917 509.217 77.0209 503.294 77.234L497.733 82.1558ZM496.902 123L468.586 123L476.065 108.043L496.902 108.043C500.269 108.043 503.017 107.51 505.148 106.445C507.278 105.337 508.855 103.846 509.878 101.971C510.9 100.096 511.412 97.9438 511.412 95.5148C511.412 92.7876 510.943 90.4226 510.006 88.4198C509.111 86.417 507.662 84.883 505.659 83.8177C503.656 82.7097 501.014 82.1558 497.733 82.1558L479.261 82.1558L479.388 68.9885L502.399 68.9885L506.81 74.1659C512.477 74.0807 517.037 75.0821 520.488 77.1701C523.983 79.2155 526.518 81.8788 528.095 85.16C529.714 88.4411 530.524 91.9567 530.524 95.7066C530.524 101.672 529.224 106.701 526.624 110.791C524.025 114.84 520.211 117.886 515.183 119.932C510.197 121.977 504.104 123 496.902 123ZM581.083 107.404L581.083 76.5948C581.083 74.379 580.721 72.4827 579.997 70.906C579.272 69.2867 578.143 68.0297 576.609 67.1348C575.118 66.2399 573.179 65.7925 570.793 65.7925C568.747 65.7925 566.979 66.1547 565.487 66.8791C563.996 67.5609 562.845 68.5623 562.036 69.8833C561.226 71.1617 560.821 72.6744 560.821 74.4216L542.412 74.4216C542.412 71.4813 543.094 68.6902 544.458 66.0482C545.821 63.4062 547.803 61.0838 550.402 59.081C553.002 57.0356 556.091 55.4376 559.671 54.2871C563.293 53.1365 567.341 52.5613 571.815 52.5613C577.184 52.5613 581.957 53.4561 586.133 55.2459C590.309 57.0356 593.59 59.7202 595.977 63.2997C598.406 66.8791 599.62 71.3535 599.62 76.7226L599.62 106.317C599.62 110.11 599.854 113.22 600.323 115.649C600.792 118.036 601.474 120.124 602.368 121.913L602.368 123L583.768 123C582.873 121.125 582.191 118.781 581.723 115.969C581.297 113.114 581.083 110.259 581.083 107.404ZM583.512 80.8774L583.64 91.2962L573.349 91.2962C570.92 91.2962 568.811 91.5732 567.021 92.1271C565.232 92.6811 563.761 93.4694 562.611 94.4921C561.46 95.4722 560.608 96.6228 560.054 97.9438C559.543 99.2647 559.287 100.714 559.287 102.29C559.287 103.867 559.649 105.294 560.374 106.573C561.098 107.809 562.142 108.789 563.506 109.513C564.869 110.195 566.467 110.536 568.3 110.536C571.069 110.536 573.477 109.982 575.523 108.874C577.568 107.766 579.145 106.402 580.253 104.783C581.403 103.164 582 101.63 582.042 100.181L586.9 107.979C586.218 109.726 585.281 111.537 584.088 113.412C582.937 115.287 581.467 117.056 579.677 118.717C577.888 120.337 575.736 121.679 573.221 122.744C570.707 123.767 567.724 124.278 564.273 124.278C559.884 124.278 555.899 123.405 552.32 121.658C548.783 119.868 545.971 117.418 543.883 114.307C541.837 111.154 540.815 107.574 540.815 103.569C540.815 99.9466 541.496 96.7293 542.86 93.9169C544.224 91.1044 546.226 88.7394 548.868 86.8219C551.553 84.8617 554.898 83.3915 558.904 82.4114C562.909 81.3887 567.554 80.8774 572.838 80.8774L583.512 80.8774ZM631.835 68.6049L631.835 123L613.426 123L613.426 53.8397L630.685 53.8397L631.835 68.6049ZM629.151 85.9909L624.165 85.9909C624.165 80.8774 624.825 76.2752 626.146 72.1844C627.467 68.051 629.321 64.5354 631.707 61.6378C634.094 58.6975 636.927 56.4603 640.209 54.9263C643.532 53.3496 647.24 52.5613 651.33 52.5613C654.569 52.5613 657.531 53.03 660.215 53.9675C662.9 54.905 665.201 56.3964 667.118 58.4418C669.079 60.4872 670.57 63.1931 671.593 66.5595C672.658 69.9259 673.191 74.0381 673.191 78.8959L673.191 123L654.654 123L654.654 78.832C654.654 75.7639 654.228 73.3776 653.376 71.673C652.524 69.9685 651.267 68.7754 649.605 68.0936C647.985 67.3692 645.983 67.007 643.596 67.007C641.125 67.007 638.973 67.497 637.14 68.4771C635.351 69.4572 633.859 70.8208 632.666 72.5679C631.516 74.2724 630.642 76.2752 630.045 78.5763C629.449 80.8774 629.151 83.3489 629.151 85.9909ZM728.033 107.915L728.033 24.8204L746.57 24.8204L746.57 123L729.887 123L728.033 107.915ZM684.313 89.2508L684.313 87.9085C684.313 82.6245 684.909 77.8306 686.102 73.5267C687.296 69.1802 689.043 65.4516 691.344 62.3409C693.645 59.2302 696.479 56.8225 699.845 55.118C703.211 53.4135 707.047 52.5613 711.35 52.5613C715.399 52.5613 718.935 53.4135 721.961 55.118C725.029 56.8225 727.628 59.2515 729.759 62.4048C731.932 65.5155 733.679 69.2015 735 73.4628C736.321 77.6814 737.28 82.3049 737.877 87.3332L737.877 90.2735C737.28 95.0887 736.321 99.563 735 103.696C733.679 107.83 731.932 111.452 729.759 114.563C727.628 117.631 725.029 120.017 721.961 121.722C718.893 123.426 715.313 124.278 711.223 124.278C706.919 124.278 703.084 123.405 699.717 121.658C696.393 119.911 693.581 117.46 691.28 114.307C689.021 111.154 687.296 107.446 686.102 103.185C684.909 98.9238 684.313 94.2791 684.313 89.2508ZM702.721 87.9085L702.721 89.2508C702.721 92.1058 702.934 94.7691 703.361 97.2406C703.829 99.7122 704.575 101.907 705.598 103.824C706.663 105.699 708.027 107.169 709.689 108.235C711.393 109.257 713.46 109.769 715.889 109.769C719.042 109.769 721.641 109.066 723.687 107.659C725.732 106.211 727.288 104.229 728.353 101.715C729.461 99.2008 730.1 96.3032 730.27 93.022L730.27 84.6486C730.143 81.964 729.759 79.5564 729.12 77.4258C728.523 75.2525 727.628 73.3989 726.435 71.8648C725.285 70.3308 723.836 69.1376 722.089 68.2853C720.384 67.4331 718.36 67.007 716.016 67.007C713.63 67.007 711.585 67.5609 709.88 68.6689C708.176 69.7342 706.791 71.2043 705.726 73.0793C704.703 74.9542 703.936 77.1701 703.424 79.7268C702.956 82.241 702.721 84.9682 702.721 87.9085Z" fill="#3CDCAA"/>
</svg>
