<svg width="73" height="72" viewBox="0 0 73 72" fill="none" xmlns="http://www.w3.org/2000/svg">
<rect x="5.5" y="0.5" width="67" height="67" stroke="#40EDB7"/>
<rect x="0.5" y="4.5" width="67" height="67" stroke="#40EDB7"/>
<path d="M20.096 57L20.096 23.336L27.456 23.336L28.16 27.944L28.608 27.944C29.376 26.8347 30.2933 25.8747 31.36 25.064C32.4693 24.2533 33.7067 23.6347 35.072 23.208C36.4373 22.7813 37.9307 22.568 39.552 22.568C41.7707 22.568 43.712 22.9733 45.376 23.784C47.04 24.5947 48.32 25.8747 49.216 27.624C50.1547 29.3733 50.624 31.656 50.624 34.472L50.624 57L41.728 57L41.728 35.88C41.728 34.8133 41.6 33.9173 41.344 33.192C41.088 32.424 40.704 31.8053 40.192 31.336C39.7227 30.824 39.1253 30.4613 38.4 30.248C37.6747 30.0347 36.864 29.928 35.968 29.928C34.6453 29.928 33.4507 30.248 32.384 30.888C31.3173 31.528 30.4853 32.4027 29.888 33.512C29.2907 34.6213 28.992 35.9013 28.992 37.352L28.992 57L20.096 57Z" fill="#DDDDDD"/>
<path d="M21 12H53" stroke="#DE5B11" stroke-width="3"/>
</svg>
