<svg width="73" height="73" viewBox="0 0 73 73" fill="none" xmlns="http://www.w3.org/2000/svg">
<rect x="5.5" y="1.5" width="67" height="67" stroke="#40EDB7"/>
<rect x="0.5" y="5.5" width="67" height="67" stroke="#40EDB7"/>
<path d="M11.9136 22.2999C11.1588 21.5238 10.5641 20.743 10.1295 19.9574C9.69493 19.1719 9.41308 18.4163 9.28393 17.6906C9.16889 16.9513 9.20636 16.2558 9.39635 15.6041C9.60007 14.9666 9.97002 14.3871 10.5062 13.8656C10.5627 13.8107 10.6191 13.7558 10.6755 13.7009C10.732 13.646 10.7812 13.6118 10.8231 13.5985L13.5818 16.4347C13.5536 16.4621 13.5254 16.4896 13.4971 16.517C13.4689 16.5445 13.4407 16.5719 13.4125 16.5994C13.0734 16.9566 12.894 17.3509 12.8741 17.7821C12.8683 18.1996 12.9807 18.6258 13.2113 19.0605C13.4557 19.5093 13.7631 19.9242 14.1337 20.3052C14.4631 20.6439 14.807 20.941 15.1654 21.1965C15.5516 21.4524 15.9323 21.6038 16.3075 21.6508C16.6964 21.7119 17.0249 21.612 17.293 21.3512C17.6317 21.0218 17.7555 20.6268 17.6644 20.1662C17.5871 19.7197 17.3853 19.2158 17.059 18.6544C16.7464 18.1072 16.4067 17.5039 16.04 16.8446C15.6863 16.255 15.3466 15.6518 15.0211 15.0348C14.7096 14.404 14.4817 13.7745 14.3373 13.1461C14.2066 12.5318 14.2151 11.9194 14.3627 11.3089C14.5245 10.6848 14.9017 10.0845 15.4943 9.50802C16.0729 8.9453 16.6973 8.58507 17.3677 8.42731C18.0521 8.25583 18.7482 8.25155 19.4559 8.41448C20.1773 8.59151 20.8897 8.91459 21.5931 9.3837C22.3244 9.8532 23.0263 10.4337 23.6988 11.1251C24.3302 11.7741 24.8498 12.4495 25.2577 13.1512C25.6797 13.8391 25.9625 14.5251 26.1061 15.2092C26.2639 15.8796 26.2619 16.5268 26.1001 17.151C25.9525 17.7614 25.6387 18.3 25.159 18.7666C25.0602 18.8627 24.9685 18.9519 24.8838 19.0343C24.7992 19.1166 24.7359 19.1645 24.6939 19.1778L21.9558 16.3628L22.1252 16.1981C22.3791 15.951 22.5153 15.6676 22.5337 15.3476C22.5661 15.014 22.4876 14.651 22.2982 14.2586C22.1225 13.8803 21.8356 13.4866 21.4376 13.0774C21.1631 12.7952 20.888 12.5547 20.6124 12.356C20.3504 12.1714 20.0948 12.0356 19.8454 11.9487C19.5961 11.8617 19.3598 11.8306 19.1368 11.8553C18.9415 11.8805 18.7593 11.9754 18.5899 12.1401C18.3501 12.3734 18.2486 12.6643 18.2855 13.0128C18.3503 13.3617 18.498 13.7535 18.7286 14.1883C18.9592 14.623 19.2171 15.0999 19.5023 15.6189C19.8552 16.2641 20.2288 16.9305 20.623 17.618C21.045 18.306 21.3764 18.9996 21.6173 19.6989C21.8582 20.3983 21.9111 21.102 21.776 21.8101C21.655 22.5044 21.2417 23.1947 20.5362 23.8809C19.8589 24.5397 19.1571 24.9615 18.4307 25.1463C17.718 25.3453 16.9941 25.3492 16.2589 25.158C15.5238 24.9669 14.7908 24.6226 14.0599 24.1253C13.329 23.628 12.6136 23.0195 11.9136 22.2999ZM23.9502 34.6746C22.7699 33.4611 21.9726 32.232 21.5583 30.9874C21.1581 29.729 21.1757 28.4625 21.6109 27.1879C22.0603 25.8995 22.9411 24.6172 24.2534 23.3408C25.5939 22.0369 26.9002 21.1919 28.1723 20.8059C29.4585 20.4061 30.7179 20.4305 31.9506 20.8791C33.1974 21.314 34.411 22.1382 35.5913 23.3517C36.7991 24.5934 37.5962 25.8364 37.9826 27.0806C38.3969 28.3253 38.3864 29.5849 37.9512 30.8595C37.53 32.1204 36.6492 33.4028 35.3087 34.7067C33.9965 35.9831 32.6902 36.828 31.3899 37.2416C30.1036 37.6413 28.8371 37.6238 27.5904 37.1889C26.3714 36.7544 25.158 35.9163 23.9502 34.6746ZM26.2361 32.4512C26.8675 33.1003 27.4883 33.4986 28.0988 33.6463C28.723 33.8081 29.3712 33.7405 30.0435 33.4435C30.7158 33.1466 31.4117 32.6482 32.1314 31.9482L32.6393 31.4541C33.359 30.7541 33.8765 30.0723 34.1919 29.4085C34.5074 28.7447 34.5929 28.0986 34.4485 27.4701C34.3319 26.8421 33.9579 26.2036 33.3266 25.5545C32.709 24.9195 32.081 24.528 31.4427 24.38C30.8323 24.2323 30.1909 24.3069 29.5186 24.6039C28.8464 24.9008 28.1504 25.3993 27.4308 26.0992L26.9228 26.5933C26.2032 27.2933 25.6856 27.9752 25.3702 28.639C25.0547 29.3028 24.9624 29.9418 25.0931 30.5561C25.2375 31.1845 25.6185 31.8162 26.2361 32.4512ZM36.576 47.6551C35.3956 46.4416 34.5983 45.2125 34.184 43.9679C33.7839 42.7095 33.8014 41.443 34.2367 40.1684C34.686 38.88 35.5669 37.5976 36.8791 36.3212C38.2196 35.0173 39.5259 34.1724 40.798 33.7863C42.0842 33.3865 43.3436 33.4109 44.5763 33.8595C45.8231 34.2944 47.0367 35.1186 48.217 36.3321C49.4248 37.5738 50.2219 38.8168 50.6084 40.0611C51.0227 41.3057 51.0122 42.5653 50.5769 43.84C50.1558 45.1009 49.2749 46.3833 47.9345 47.6871C46.6222 48.9635 45.3159 49.8085 44.0156 50.222C42.7294 50.6218 41.4629 50.6042 40.2161 50.1694C38.9971 49.7349 37.7837 48.8968 36.576 47.6551ZM38.8618 45.4316C39.4932 46.0807 40.1141 46.4791 40.7245 46.6267C41.3487 46.7885 41.9969 46.7209 42.6692 46.424C43.3415 46.1271 44.0375 45.6286 44.7571 44.9287L45.2651 44.4346C45.9847 43.7346 46.5022 43.0527 46.8177 42.3889C47.1331 41.7251 47.2186 41.079 47.0742 40.4506C46.9576 39.8226 46.5837 39.184 45.9523 38.5349C45.3347 37.9 44.7068 37.5085 44.0685 37.3604C43.458 37.2128 42.8167 37.2874 42.1444 37.5843C41.4721 37.8813 40.7761 38.3797 40.0565 39.0797L39.5485 39.5738C38.8289 40.2737 38.3114 40.9556 37.9959 41.6194C37.6805 42.2832 37.5881 42.9223 37.7188 43.5366C37.8632 44.165 38.2442 44.7967 38.8618 45.4316ZM44.4736 55.2664L55.6067 44.4375L57.9742 46.8716L56.6767 48.5867L56.8209 48.7348C57.4348 48.632 58.0473 48.6265 58.6586 48.7185C59.2835 48.8246 59.8861 49.0348 60.4664 49.3491C61.0467 49.6634 61.5976 50.0886 62.1192 50.6248C62.8329 51.3586 63.3233 52.131 63.5905 52.942C63.8576 53.7531 63.8461 54.5882 63.5558 55.4472C63.2792 56.3204 62.6752 57.2098 61.744 58.1157L54.2937 65.3624L51.4321 62.4204L58.4167 55.6266C58.7695 55.2835 59.0246 54.9529 59.1821 54.6349C59.3538 54.3032 59.4348 53.9772 59.4254 53.6569C59.4437 53.337 59.3715 53.0228 59.2087 52.7143C59.046 52.4058 58.8205 52.1034 58.5322 51.8071C58.1068 51.3697 57.6167 51.0775 57.0619 50.9306C56.5071 50.7837 55.9502 50.7899 55.3912 50.9492C54.8322 51.1085 54.3128 51.4215 53.833 51.8881L47.3352 58.2084L44.4736 55.2664Z" fill="white"/>
</svg>
