<svg width="73" height="72" viewBox="0 0 73 72" fill="none" xmlns="http://www.w3.org/2000/svg">
<rect x="5.5" y="0.5" width="67" height="67" stroke="#40EDB7"/>
<rect x="0.5" y="4.5" width="67" height="67" stroke="#40EDB7"/>
<path d="M11.2577 16.7449L19.8933 2.42448L22.4909 5.09502L17.2219 13.5093C17.1534 13.6418 17.0342 13.8235 16.8642 14.0546C16.7055 14.2748 16.5356 14.5058 16.3544 14.7479C16.1732 14.9899 16.009 15.2044 15.8619 15.3914L15.9441 15.4759C16.09 15.3779 16.2473 15.2578 16.416 15.1156C16.5957 14.9847 16.7697 14.8592 16.9381 14.7393C17.1287 14.6197 17.3026 14.5053 17.4598 14.3964C17.6279 14.2986 17.7568 14.2171 17.8467 14.1516L26.2886 8.99943L29.215 12.008L23.8638 20.3378C23.784 20.4812 23.6648 20.663 23.5061 20.8831C23.3474 21.1032 23.1775 21.3343 22.9963 21.5764C22.815 21.8184 22.6509 22.0329 22.5038 22.2198L22.586 22.3044C22.7319 22.2063 22.889 22.0973 23.0574 21.9774C23.2368 21.8687 23.4106 21.7544 23.5791 21.6345C23.7697 21.5148 23.9491 21.4061 24.1172 21.3084C24.2852 21.2107 24.431 21.1238 24.5543 21.0477L33.0949 15.9969L35.4458 18.4139L20.8753 26.6327L18.0804 23.7593L23.5527 15.1144C23.6775 14.9271 23.8195 14.7123 23.9784 14.47C24.1597 14.2279 24.3352 13.9914 24.5052 13.7603C24.6751 13.5292 24.828 13.3257 24.9638 13.1497L24.8981 13.0821C24.7184 13.213 24.5051 13.3657 24.2581 13.5401C24.0221 13.7258 23.7808 13.8948 23.5341 14.047C23.2984 14.2105 23.0908 14.3465 22.9115 14.4552L14.1347 19.7028L11.2577 16.7449ZM27.1039 33.0364L35.7396 18.7159L38.3371 21.3865L33.0682 29.8008C32.9997 29.9332 32.8804 30.115 32.7105 30.3461C32.5518 30.5662 32.3818 30.7973 32.2006 31.0393C32.0194 31.2814 31.8553 31.4959 31.7082 31.6828L31.7904 31.7673C31.9362 31.6693 32.0935 31.5492 32.2622 31.407C32.4419 31.2761 32.6159 31.1507 32.7844 31.0307C32.975 30.9111 33.1489 30.7968 33.306 30.6878C33.4741 30.5901 33.6031 30.5085 33.6929 30.4431L42.1349 25.2909L45.0612 28.2995L39.7101 36.6293C39.6303 36.7727 39.511 36.9544 39.3523 37.1746C39.1937 37.3947 39.0237 37.6258 38.8425 37.8678C38.6613 38.1099 38.4971 38.3244 38.35 38.5113L38.4322 38.5958C38.5781 38.4978 38.7352 38.3888 38.9037 38.2689C39.083 38.1602 39.2569 38.0459 39.4253 37.9259C39.6159 37.8063 39.7953 37.6976 39.9634 37.5999C40.1315 37.5022 40.2772 37.4152 40.4006 37.3391L48.9411 32.2884L51.2921 34.7054L36.7215 42.9241L33.9267 40.0508L39.3989 31.4058C39.5238 31.2186 39.6657 31.0038 39.8247 30.7614C40.0059 30.5194 40.1815 30.2828 40.3514 30.0517C40.5214 29.8206 40.6743 29.6171 40.8101 29.4411L40.7443 29.3735C40.5647 29.5044 40.3513 29.6571 40.1044 29.8315C39.8684 30.0173 39.627 30.1862 39.3803 30.3384C39.1446 30.5019 38.9371 30.638 38.7577 30.7467L29.981 35.9942L27.1039 33.0364ZM42.9502 49.3278L51.5858 35.0074L54.1834 37.6779L48.9144 46.0922C48.8459 46.2247 48.7267 46.4064 48.5567 46.6375C48.398 46.8577 48.2281 47.0887 48.0469 47.3308C47.8657 47.5728 47.7015 47.7873 47.5544 47.9743L47.6366 48.0588C47.7825 47.9608 47.9398 47.8407 48.1085 47.6985C48.2882 47.5676 48.4622 47.4421 48.6306 47.3222C48.8212 47.2026 48.9951 47.0883 49.1523 46.9793C49.3204 46.8815 49.4493 46.8 49.5392 46.7345L57.9811 41.5823L60.9075 44.5909L55.5563 52.9207C55.4765 53.0641 55.3573 53.2459 55.1986 53.466C55.0399 53.6861 54.87 53.9172 54.6888 54.1593C54.5076 54.4013 54.3434 54.6158 54.1963 54.8028L54.2785 54.8873C54.4244 54.7892 54.5815 54.6802 54.7499 54.5603C54.9293 54.4516 55.1032 54.3373 55.2716 54.2174C55.4622 54.0977 55.6416 53.989 55.8097 53.8913C55.9778 53.7936 56.1235 53.7067 56.2468 53.6306L64.7874 48.5798L67.1384 50.9968L52.5678 59.2156L49.7729 56.3422L55.2452 47.6973C55.37 47.51 55.512 47.2952 55.671 47.0529C55.8522 46.8108 56.0277 46.5743 56.1977 46.3432C56.3676 46.1121 56.5205 45.9086 56.6564 45.7326L56.5906 45.665C56.4109 45.7959 56.1976 45.9486 55.9506 46.123C55.7146 46.3087 55.4733 46.4777 55.2266 46.6299C54.9909 46.7934 54.7834 46.9294 54.604 47.0381L45.8272 52.2857L42.9502 49.3278ZM54.6608 61.3674L57.0778 59.0165L59.4617 61.4673L57.0447 63.8183L54.6608 61.3674Z" fill="white"/>
</svg>
